{
.appVersion = "3337";
.formatVersion = 3;
DisplayStrings = (
"arhinni
horses onager
quagga unicorn
donkey dziggetai
zebra pony
kôň
equus
canter
mane forelock
gallop trot
demivolte
ride herd
hooves
withers
tack
bridle saddle
stirrup horseshoe",
"A font running free with the wild herd.
Legs stretched as it enjoys the freedom of the open space.
the downs the heath the plain.

When you ride shoulder to shoulder with your friends in the ride.
Our hooves beat together the rhythm of the herd drums the ground.
Our sound is thunder rolling out across the hills.
Together strong loyal to one another together unstoppable.
Hear us coming we are the next wave.",

glyphs = (
{
color = 9;
glyphname = A;
kernLeft = A;
kernRight = A;
lastChange = "2025-01-15 12:06:35 +0000";
layers = (
{
anchors = (
{
name = bottom;
pos = (375,0);
},
{
name = ogonek;
pos = (715,0);
},
{
name = top;
pos = (365,800);
}
);
background = {
shapes = (
{
closed = 1;
nodes = (
(530,112,ls),
(617,199,o),
(702,364,o),
(702,512,cs),
(702,670,o),
(605,808,o),
(310,808,c),
(190,688,ls),
(103,601,o),
(18,436,o),
(18,288,cs),
(18,130,o),
(115,-8,o),
(410,-8,c)
);
},
{
closed = 1;
nodes = (
(196,138,o),
(104,265,o),
(104,396,cs),
(104,487,o),
(154,576,o),
(210,632,cs),
(240,662,l),
(524,662,o),
(616,535,o),
(616,404,cs),
(616,313,o),
(566,224,o),
(510,168,cs),
(480,138,l)
);
}
);
};
guides = (
{
angle = 69.9885;
pos = (35,0);
}
);
layerId = m01;
shapes = (
{
closed = 1;
nodes = (
(105,0,l),
(368,707,l),
(342,707,l),
(605,0,l),
(715,0,l),
(420,802,l),
(310,810,l),
(310,730,o),
(133,270,o),
(35,0,c)
);
},
{
closed = 1;
nodes = (
(215,0,l),
(200,85,l),
(140,235,l),
(35,0,l)
);
},
{
closed = 1;
nodes = (
(675,0,l),
(570,235,l),
(510,85,l),
(495,0,l)
);
},
{
closed = 1;
nodes = (
(555,245,l),
(555,311,l),
(155,311,l),
(155,245,l)
);
}
);
width = 740;
},
{
anchors = (
{
name = bottom;
pos = (375,0);
},
{
name = ogonek;
pos = (715,0);
},
{
name = top;
pos = (365,800);
}
);
background = {
shapes = (
{
closed = 1;
nodes = (
(530,112,ls),
(617,199,o),
(702,364,o),
(702,512,cs),
(702,670,o),
(605,808,o),
(310,808,c),
(190,688,ls),
(103,601,o),
(18,436,o),
(18,288,cs),
(18,130,o),
(115,-8,o),
(410,-8,c)
);
},
{
closed = 1;
nodes = (
(196,138,o),
(104,265,o),
(104,396,cs),
(104,487,o),
(154,576,o),
(210,632,cs),
(240,662,l),
(524,662,o),
(616,535,o),
(616,404,cs),
(616,313,o),
(566,224,o),
(510,168,cs),
(480,138,l)
);
}
);
};
guides = (
{
angle = 69.9885;
pos = (35,0);
}
);
layerId = m003;
shapes = (
{
closed = 1;
nodes = (
(105,0,l),
(368,707,l),
(342,707,l),
(605,0,l),
(715,0,l),
(420,802,l),
(310,810,l),
(310,730,o),
(133,270,o),
(35,0,c)
);
},
{
closed = 1;
nodes = (
(215,0,l),
(200,85,l),
(140,235,l),
(35,0,l)
);
},
{
closed = 1;
nodes = (
(555,245,l),
(555,311,l),
(155,311,l),
(155,245,l)
);
},
{
closed = 1;
nodes = (
(675,0,l),
(570,235,l),
(510,85,l),
(495,0,l)
);
}
);
width = 740;
},
{
anchors = (
{
name = bottom;
pos = (375,0);
},
{
name = ogonek;
pos = (715,0);
},
{
name = top;
pos = (365,800);
}
);
background = {
shapes = (
{
closed = 1;
nodes = (
(530,112,ls),
(617,199,o),
(702,364,o),
(702,512,cs),
(702,670,o),
(605,808,o),
(310,808,c),
(190,688,ls),
(103,601,o),
(18,436,o),
(18,288,cs),
(18,130,o),
(115,-8,o),
(410,-8,c)
);
},
{
closed = 1;
nodes = (
(196,138,o),
(104,265,o),
(104,396,cs),
(104,487,o),
(154,576,o),
(210,632,cs),
(240,662,l),
(524,662,o),
(616,535,o),
(616,404,cs),
(616,313,o),
(566,224,o),
(510,168,cs),
(480,138,l)
);
}
);
};
guides = (
{
angle = 69.9885;
pos = (35,0);
}
);
layerId = m005;
shapes = (
{
closed = 1;
nodes = (
(105,0,l),
(368,707,l),
(342,707,l),
(605,0,l),
(715,0,l),
(420,802,l),
(310,810,l),
(310,730,o),
(133,270,o),
(35,0,c)
);
},
{
closed = 1;
nodes = (
(215,0,l),
(200,85,l),
(140,235,l),
(35,0,l)
);
},
{
closed = 1;
nodes = (
(555,245,l),
(555,311,l),
(155,311,l),
(155,245,l)
);
},
{
closed = 1;
nodes = (
(675,0,l),
(570,235,l),
(510,85,l),
(495,0,l)
);
}
);
width = 740;
},
{
anchors = (
{
name = bottom;
pos = (360,0);
},
{
name = ogonek;
pos = (700,0);
},
{
name = top;
pos = (350,800);
}
);
background = {
shapes = (
{
closed = 1;
nodes = (
(530,112,ls),
(617,199,o),
(702,364,o),
(702,512,cs),
(702,670,o),
(605,808,o),
(310,808,c),
(190,688,ls),
(103,601,o),
(18,436,o),
(18,288,cs),
(18,130,o),
(115,-8,o),
(410,-8,c)
);
},
{
closed = 1;
nodes = (
(196,138,o),
(104,265,o),
(104,396,cs),
(104,487,o),
(154,576,o),
(210,632,cs),
(240,662,l),
(524,662,o),
(616,535,o),
(616,404,cs),
(616,313,o),
(566,224,o),
(510,168,cs),
(480,138,l)
);
}
);
};
guides = (
{
angle = 69.9885;
pos = (35,0);
}
);
layerId = m004;
shapes = (
{
closed = 1;
nodes = (
(180,0,l),
(331,433,l),
(319,433,l),
(440,0,l),
(700,0,l),
(460,802,l),
(240,810,l),
(240,688,o),
(152,364,o),
(20,0,c)
);
},
{
closed = 1;
nodes = (
(260,0,l),
(241,109,l),
(164,300,l),
(30,0,l)
);
},
{
closed = 1;
nodes = (
(590,0,l),
(456,300,l),
(379,109,l),
(360,0,l)
);
},
{
closed = 1;
nodes = (
(540,80,l),
(540,220,l),
(140,220,l),
(140,80,l)
);
}
);
width = 720;
}
);
unicode = 65;
},
{
glyphname = AE;
kernLeft = AE;
kernRight = E;
lastChange = "2025-01-15 12:07:14 +0000";
layers = (
{
anchors = (
{
name = bottom;
pos = (523,0);
},
{
name = top;
pos = (600,800);
}
);
layerId = m01;
shapes = (
{
closed = 1;
nodes = (
(705,0,l),
(690,85,l),
(645,160,l),
(645,640,l),
(690,715,l),
(705,800,l),
(495,800,l),
(481,730,o),
(133,270,o),
(35,0,c),
(85,0,l),
(537,714,l),
(510,695,l),
(555,640,l),
(555,160,l),
(510,85,l),
(495,0,l)
);
},
{
closed = 1;
nodes = (
(235,245,l),
(555,245,l),
(555,311,l),
(235,311,l)
);
},
{
closed = 1;
nodes = (
(645,680,l),
(955,680,l),
(955,800,l),
(645,800,l)
);
},
{
closed = 1;
nodes = (
(645,0,l),
(985,0,l),
(985,120,l),
(645,120,l)
);
},
{
closed = 1;
nodes = (
(610,380,l),
(853,380,ls),
(889,380,o),
(909,375,o),
(942,357,c),
(970,487,l),
(938,470,o),
(907,460,o),
(873,460,cs),
(610,460,l)
);
},
{
closed = 1;
nodes = (
(860,0,l),
(1020,0,l),
(1020,180,l),
(935,165,l),
(860,120,l)
);
},
{
closed = 1;
nodes = (
(905,635,l),
(990,620,l),
(990,800,l),
(830,800,l),
(830,680,l)
);
},
{
closed = 1;
nodes = (
(115,160,l),
(55,0,l),
(245,0,l),
(230,85,l),
(185,160,l)
);
}
);
width = 1045;
},
{
anchors = (
{
name = bottom;
pos = (523,0);
},
{
name = top;
pos = (600,800);
}
);
layerId = m003;
shapes = (
{
closed = 1;
nodes = (
(705,0,l),
(690,85,l),
(645,160,l),
(645,640,l),
(690,715,l),
(705,800,l),
(495,800,l),
(481,730,o),
(133,270,o),
(35,0,c),
(85,0,l),
(537,714,l),
(510,695,l),
(555,640,l),
(555,160,l),
(510,85,l),
(495,0,l)
);
},
{
closed = 1;
nodes = (
(235,245,l),
(555,245,l),
(555,311,l),
(235,311,l)
);
},
{
closed = 1;
nodes = (
(645,680,l),
(955,680,l),
(955,800,l),
(645,800,l)
);
},
{
closed = 1;
nodes = (
(645,0,l),
(985,0,l),
(985,120,l),
(645,120,l)
);
},
{
closed = 1;
nodes = (
(610,380,l),
(853,380,ls),
(889,380,o),
(909,375,o),
(942,357,c),
(970,487,l),
(938,470,o),
(907,460,o),
(873,460,cs),
(610,460,l)
);
},
{
closed = 1;
nodes = (
(860,0,l),
(1020,0,l),
(1020,180,l),
(935,165,l),
(860,120,l)
);
},
{
closed = 1;
nodes = (
(905,635,l),
(990,620,l),
(990,800,l),
(830,800,l),
(830,680,l)
);
},
{
closed = 1;
nodes = (
(115,160,l),
(55,0,l),
(245,0,l),
(230,85,l),
(185,160,l)
);
}
);
width = 1045;
},
{
anchors = (
{
name = bottom;
pos = (523,0);
},
{
name = top;
pos = (600,800);
}
);
layerId = m005;
shapes = (
{
closed = 1;
nodes = (
(705,0,l),
(690,85,l),
(645,160,l),
(645,640,l),
(690,715,l),
(705,800,l),
(495,800,l),
(481,730,o),
(133,270,o),
(35,0,c),
(85,0,l),
(537,714,l),
(510,695,l),
(555,640,l),
(555,160,l),
(510,85,l),
(495,0,l)
);
},
{
closed = 1;
nodes = (
(235,245,l),
(555,245,l),
(555,311,l),
(235,311,l)
);
},
{
closed = 1;
nodes = (
(645,680,l),
(955,680,l),
(955,800,l),
(645,800,l)
);
},
{
closed = 1;
nodes = (
(645,0,l),
(985,0,l),
(985,120,l),
(645,120,l)
);
},
{
closed = 1;
nodes = (
(610,380,l),
(853,380,ls),
(889,380,o),
(909,375,o),
(942,357,c),
(970,487,l),
(938,470,o),
(907,460,o),
(873,460,cs),
(610,460,l)
);
},
{
closed = 1;
nodes = (
(860,0,l),
(1020,0,l),
(1020,180,l),
(935,165,l),
(860,120,l)
);
},
{
closed = 1;
nodes = (
(905,635,l),
(990,620,l),
(990,800,l),
(830,800,l),
(830,680,l)
);
},
{
closed = 1;
nodes = (
(115,160,l),
(55,0,l),
(245,0,l),
(230,85,l),
(185,160,l)
);
}
);
width = 1045;
},
{
anchors = (
{
name = bottom;
pos = (508,0);
},
{
name = top;
pos = (585,800);
}
);
layerId = m004;
shapes = (
{
closed = 1;
nodes = (
(690,0,l),
(675,85,l),
(630,160,l),
(630,640,l),
(675,715,l),
(690,800,l),
(480,800,l),
(466,730,o),
(118,270,o),
(20,0,c),
(70,0,l),
(522,714,l),
(495,695,l),
(540,640,l),
(540,160,l),
(495,85,l),
(480,0,l)
);
},
{
closed = 1;
nodes = (
(220,245,l),
(540,245,l),
(540,311,l),
(220,311,l)
);
},
{
closed = 1;
nodes = (
(630,680,l),
(940,680,l),
(940,800,l),
(630,800,l)
);
},
{
closed = 1;
nodes = (
(630,0,l),
(970,0,l),
(970,120,l),
(630,120,l)
);
},
{
closed = 1;
nodes = (
(595,380,l),
(838,380,ls),
(874,380,o),
(894,375,o),
(927,357,c),
(955,487,l),
(923,470,o),
(892,460,o),
(858,460,cs),
(595,460,l)
);
},
{
closed = 1;
nodes = (
(845,0,l),
(1005,0,l),
(1005,180,l),
(920,165,l),
(845,120,l)
);
},
{
closed = 1;
nodes = (
(890,635,l),
(975,620,l),
(975,800,l),
(815,800,l),
(815,680,l)
);
},
{
closed = 1;
nodes = (
(100,160,l),
(40,0,l),
(230,0,l),
(215,85,l),
(170,160,l)
);
}
);
width = 1015;
}
);
metricLeft = "=A";
metricRight = "=E";
unicode = 198;
},
{
glyphname = B;
kernLeft = H;
kernRight = B;
lastChange = "2025-01-07 11:10:22 +0000";
layers = (
{
anchors = (
{
name = bottom;
pos = (320,0);
},
{
name = center;
pos = (320,400);
},
{
name = top;
pos = (320,800);
}
);
layerId = m01;
shapes = (
{
closed = 1;
nodes = (
(328,353,l),
(479,348,o),
(539,288,o),
(539,240,cs),
(539,209,o),
(532,188,o),
(482,138,c),
(116,138,l),
(116,0,l),
(428,0,l),
(493,69,ls),
(568,148,o),
(600,228,o),
(600,295,cs),
(600,396,o),
(524,469,o),
(403,469,c)
);
},
{
closed = 1;
nodes = (
(328,353,l),
(512,482,o),
(555,548,o),
(555,602,cs),
(555,736,o),
(441,808,o),
(235,808,cs),
(144,808,o),
(95,806,o),
(45,800,c),
(60,715,l),
(105,640,l),
(105,160,l),
(60,85,l),
(45,0,l),
(255,0,l),
(240,85,l),
(195,160,l),
(195,673,l),
(361,673,o),
(450,629,o),
(450,546,cs),
(450,517,o),
(420,472,o),
(319,408,c)
);
}
);
width = 638;
},
{
anchors = (
{
name = bottom;
pos = (320,0);
},
{
name = center;
pos = (320,400);
},
{
name = top;
pos = (320,800);
}
);
layerId = m003;
shapes = (
{
closed = 1;
nodes = (
(504,470,o),
(555,543,o),
(555,602,cs),
(555,736,o),
(441,808,o),
(235,808,cs),
(144,808,o),
(95,806,o),
(45,800,c),
(60,715,l),
(105,640,l),
(105,160,l),
(60,85,l),
(45,0,l),
(255,0,l),
(240,85,l),
(195,160,l),
(195,673,l),
(361,673,o),
(450,629,o),
(450,546,cs),
(450,511,o),
(407,454,o),
(250,366,c),
(257,350,o),
(264,333,o),
(273,315,c)
);
},
{
closed = 1;
nodes = (
(311,353,l),
(474,353,o),
(539,290,o),
(539,240,cs),
(539,209,o),
(532,188,o),
(482,138,c),
(116,138,l),
(116,0,l),
(428,0,l),
(493,69,ls),
(567,149,o),
(600,228,o),
(600,295,cs),
(600,396,o),
(524,469,o),
(403,469,c)
);
}
);
width = 638;
},
{
anchors = (
{
name = bottom;
pos = (320,0);
},
{
name = center;
pos = (320,400);
},
{
name = top;
pos = (320,800);
}
);
layerId = m005;
shapes = (
{
closed = 1;
nodes = (
(504,470,o),
(555,543,o),
(555,602,cs),
(555,736,o),
(441,808,o),
(235,808,cs),
(144,808,o),
(95,806,o),
(45,800,c),
(60,715,l),
(105,640,l),
(105,160,l),
(60,85,l),
(45,0,l),
(255,0,l),
(240,85,l),
(195,160,l),
(195,673,l),
(361,673,o),
(450,629,o),
(450,546,cs),
(450,511,o),
(407,454,o),
(250,366,c),
(257,350,o),
(264,333,o),
(273,315,c)
);
},
{
closed = 1;
nodes = (
(311,353,l),
(474,353,o),
(539,290,o),
(539,240,cs),
(539,209,o),
(532,188,o),
(482,138,c),
(116,138,l),
(116,0,l),
(428,0,l),
(493,69,ls),
(567,149,o),
(600,228,o),
(600,295,cs),
(600,396,o),
(524,469,o),
(403,469,c)
);
}
);
width = 638;
},
{
anchors = (
{
name = bottom;
pos = (295,0);
},
{
name = center;
pos = (295,400);
},
{
name = top;
pos = (295,800);
}
);
layerId = m004;
shapes = (
{
closed = 1;
nodes = (
(479,470,o),
(530,543,o),
(530,602,cs),
(530,736,o),
(416,808,o),
(210,808,cs),
(119,808,o),
(70,806,o),
(20,800,c),
(35,715,l),
(80,640,l),
(80,160,l),
(35,85,l),
(20,0,l),
(230,0,l),
(215,85,l),
(170,160,l),
(170,673,l),
(336,673,o),
(425,629,o),
(425,546,cs),
(425,511,o),
(382,454,o),
(225,366,c),
(232,350,o),
(239,333,o),
(248,315,c)
);
},
{
closed = 1;
nodes = (
(286,353,l),
(449,353,o),
(514,290,o),
(514,240,cs),
(514,209,o),
(507,188,o),
(457,138,c),
(91,138,l),
(91,0,l),
(403,0,l),
(468,69,ls),
(542,149,o),
(575,228,o),
(575,295,cs),
(575,396,o),
(499,469,o),
(378,469,c)
);
}
);
width = 585;
}
);
metricLeft = "=H";
metricRight = "=O";
unicode = 66;
},
{
glyphname = C;
kernLeft = O;
kernRight = C;
lastChange = "2023-11-09 12:17:21 +0000";
layers = (
{
anchors = (
{
name = bottom;
pos = (290,0);
},
{
name = top;
pos = (340,800);
}
);
background = {
shapes = (
{
closed = 1;
nodes = (
(550,112,ls),
(637,199,o),
(722,364,o),
(722,512,cs),
(722,670,o),
(625,808,o),
(330,808,c),
(210,688,ls),
(123,601,o),
(38,436,o),
(38,288,cs),
(38,130,o),
(135,-8,o),
(430,-8,c)
);
},
{
closed = 1;
nodes = (
(216,138,o),
(124,265,o),
(124,396,cs),
(124,487,o),
(174,576,o),
(230,632,cs),
(260,662,l),
(544,662,o),
(636,535,o),
(636,404,cs),
(636,313,o),
(586,224,o),
(530,168,cs),
(500,138,l)
);
}
);
};
layerId = m01;
shapes = (
{
closed = 1;
nodes = (
(578,138,l),
(563,138,l),
(215,138,o),
(124,212,o),
(124,386,cs),
(124,481,o),
(154,582,o),
(221,649,cs),
(234,662,l),
(356,662,o),
(440,649,o),
(495,629,c),
(566,757,l),
(513,788,o),
(429,808,o),
(304,808,c),
(189,693,ls),
(96,600,o),
(38,436,o),
(38,278,cs),
(38,78,o),
(134,-8,o),
(493,-8,c)
);
},
{
closed = 1;
nodes = (
(538,517,l),
(566,517,l),
(566,757,l),
(441,757,l)
);
}
);
width = 600;
},
{
anchors = (
{
name = bottom;
pos = (290,0);
},
{
name = top;
pos = (340,800);
}
);
layerId = m003;
shapes = (
{
closed = 1;
nodes = (
(578,138,l),
(563,138,l),
(215,138,o),
(124,212,o),
(124,386,cs),
(124,481,o),
(154,582,o),
(221,649,cs),
(234,662,l),
(356,662,o),
(440,649,o),
(495,629,c),
(566,757,l),
(513,788,o),
(429,808,o),
(304,808,c),
(189,693,ls),
(96,600,o),
(38,436,o),
(38,278,cs),
(38,78,o),
(134,-8,o),
(493,-8,c)
);
},
{
closed = 1;
nodes = (
(538,517,l),
(566,517,l),
(566,757,l),
(441,757,l)
);
}
);
width = 600;
},
{
anchors = (
{
name = bottom;
pos = (290,0);
},
{
name = top;
pos = (340,800);
}
);
layerId = m005;
shapes = (
{
closed = 1;
nodes = (
(578,138,l),
(563,138,l),
(215,138,o),
(124,212,o),
(124,386,cs),
(124,481,o),
(154,582,o),
(221,649,cs),
(234,662,l),
(356,662,o),
(440,649,o),
(495,629,c),
(566,757,l),
(513,788,o),
(429,808,o),
(304,808,c),
(189,693,ls),
(96,600,o),
(38,436,o),
(38,278,cs),
(38,78,o),
(134,-8,o),
(493,-8,c)
);
},
{
closed = 1;
nodes = (
(538,517,l),
(566,517,l),
(566,757,l),
(441,757,l)
);
}
);
width = 600;
},
{
anchors = (
{
name = bottom;
pos = (262,0);
},
{
name = top;
pos = (312,800);
}
);
background = {
shapes = (
{
closed = 1;
nodes = (
(522,112,ls),
(609,199,o),
(694,364,o),
(694,512,cs),
(694,670,o),
(597,808,o),
(302,808,c),
(182,688,ls),
(95,601,o),
(10,436,o),
(10,288,cs),
(10,130,o),
(107,-8,o),
(402,-8,c)
);
},
{
closed = 1;
nodes = (
(188,138,o),
(96,265,o),
(96,396,cs),
(96,487,o),
(146,576,o),
(202,632,cs),
(232,662,l),
(516,662,o),
(608,535,o),
(608,404,cs),
(608,313,o),
(558,224,o),
(502,168,cs),
(472,138,l)
);
}
);
};
layerId = m004;
shapes = (
{
closed = 1;
nodes = (
(550,138,l),
(535,138,l),
(187,138,o),
(96,212,o),
(96,386,cs),
(96,481,o),
(126,582,o),
(193,649,cs),
(206,662,l),
(328,662,o),
(412,649,o),
(467,629,c),
(538,757,l),
(485,788,o),
(401,808,o),
(276,808,c),
(161,693,ls),
(68,600,o),
(10,436,o),
(10,278,cs),
(10,78,o),
(106,-8,o),
(465,-8,c)
);
},
{
closed = 1;
nodes = (
(510,517,l),
(538,517,l),
(538,757,l),
(413,757,l)
);
}
);
width = 572;
}
);
metricLeft = "=O";
unicode = 67;
},
{
glyphname = D;
kernLeft = H;
kernRight = O;
lastChange = "2024-06-19 12:17:12 +0000";
layers = (
{
anchors = (
{
name = bottom;
pos = (340,0);
},
{
name = center;
pos = (193,414);
},
{
name = top;
pos = (340,800);
}
);
background = {
shapes = (
{
closed = 1;
nodes = (
(255,0,l),
(240,85,l),
(195,160,l),
(195,640,l),
(240,715,l),
(195,673,l),
(494,673,o),
(586,545,o),
(586,424,cs),
(586,323,o),
(546,224,o),
(490,168,cs),
(460,138,l),
(130,138,l),
(130,0,l),
(398,0,l),
(495,97,ls),
(607,209,o),
(672,377,o),
(672,532,cs),
(672,680,o),
(575,808,o),
(235,808,cs),
(144,808,o),
(95,806,o),
(45,800,c),
(60,715,l),
(105,640,l),
(105,160,l),
(60,85,l),
(45,0,l)
);
}
);
};
layerId = m01;
shapes = (
{
closed = 1;
nodes = (
(255,0,l),
(240,85,l),
(195,160,l),
(195,640,l),
(240,715,l),
(195,673,l),
(474,673,o),
(586,505,o),
(586,394,cs),
(586,293,o),
(546,224,o),
(490,168,cs),
(460,138,l),
(130,138,l),
(130,0,l),
(398,0,l),
(495,97,ls),
(607,209,o),
(672,347,o),
(672,502,cs),
(672,640,o),
(555,808,o),
(235,808,cs),
(144,808,o),
(95,806,o),
(45,800,c),
(60,715,l),
(105,640,l),
(105,160,l),
(60,85,l),
(45,0,l)
);
}
);
width = 710;
},
{
anchors = (
{
name = bottom;
pos = (340,0);
},
{
name = center;
pos = (193,414);
},
{
name = top;
pos = (340,800);
}
);
layerId = m003;
shapes = (
{
closed = 1;
nodes = (
(255,0,l),
(240,85,l),
(195,160,l),
(195,640,l),
(240,715,l),
(195,673,l),
(474,673,o),
(586,505,o),
(586,394,cs),
(586,293,o),
(546,224,o),
(490,168,cs),
(460,138,l),
(130,138,l),
(130,0,l),
(398,0,l),
(495,97,ls),
(607,209,o),
(672,347,o),
(672,502,cs),
(672,640,o),
(555,808,o),
(235,808,cs),
(144,808,o),
(95,806,o),
(45,800,c),
(60,715,l),
(105,640,l),
(105,160,l),
(60,85,l),
(45,0,l)
);
}
);
width = 710;
},
{
anchors = (
{
name = bottom;
pos = (340,0);
},
{
name = center;
pos = (193,414);
},
{
name = top;
pos = (340,800);
}
);
layerId = m005;
shapes = (
{
closed = 1;
nodes = (
(255,0,l),
(240,85,l),
(195,160,l),
(195,640,l),
(240,715,l),
(195,673,l),
(474,673,o),
(586,505,o),
(586,394,cs),
(586,293,o),
(546,224,o),
(490,168,cs),
(460,138,l),
(130,138,l),
(130,0,l),
(398,0,l),
(495,97,ls),
(607,209,o),
(672,347,o),
(672,502,cs),
(672,640,o),
(555,808,o),
(235,808,cs),
(144,808,o),
(95,806,o),
(45,800,c),
(60,715,l),
(105,640,l),
(105,160,l),
(60,85,l),
(45,0,l)
);
}
);
width = 710;
},
{
anchors = (
{
name = bottom;
pos = (387,0);
},
{
name = center;
pos = (193,414);
},
{
name = top;
pos = (367,800);
}
);
layerId = m004;
shapes = (
{
closed = 1;
nodes = (
(335,0,l),
(316,159,l),
(232,300,l),
(232,508,l),
(312,642,l),
(222,547,l),
(424,547,o),
(575,526,o),
(575,403,cs),
(575,375,o),
(569,348,o),
(527,306,cs),
(497,276,l),
(157,276,l),
(157,0,l),
(425,0,l),
(522,97,ls),
(634,209,o),
(699,367,o),
(699,522,cs),
(699,751,o),
(487,808,o),
(274,808,cs),
(186,808,o),
(98,804,o),
(24,795,c),
(51,642,l),
(132,506,l),
(132,300,l),
(48,159,l),
(20,0,l)
);
}
);
width = 709;
}
);
metricLeft = "=H";
metricRight = "=O";
unicode = 68;
},
{
color = 4;
glyphname = E;
kernLeft = H;
kernRight = E;
lastChange = "2023-10-30 09:42:08 +0000";
layers = (
{
anchors = (
{
name = bottom;
pos = (298,0);
},
{
name = ogonek;
pos = (560,0);
},
{
name = top;
pos = (298,800);
},
{
name = topleft;
pos = (20,800);
}
);
guides = (
{
angle = 90;
pos = (280,423);
showMeasurement = 1;
}
);
layerId = m01;
shapes = (
{
closed = 1;
nodes = (
(560,0,l),
(560,180,l),
(475,165,l),
(400,120,l),
(209,120,l),
(185,160,l),
(185,640,l),
(209,680,l),
(364,680,l),
(439,635,l),
(524,620,l),
(524,800,l),
(35,800,l),
(50,715,l),
(95,640,l),
(95,160,l),
(50,85,l),
(35,0,l)
);
},
{
closed = 1;
nodes = (
(185,380,l),
(383,380,ls),
(419,380,o),
(439,375,o),
(472,357,c),
(500,487,l),
(468,470,o),
(437,460,o),
(403,460,cs),
(185,460,l)
);
},
{
closed = 1;
nodes = (
(140,166,l),
(170,136,l),
(170,656,l),
(110,656,l),
(110,136,l)
);
},
{
closed = 1;
nodes = (
(110,60,l),
(80,30,l),
(540,30,l),
(540,90,l),
(80,90,l)
);
},
{
closed = 1;
nodes = (
(110,740,l),
(80,710,l),
(510,710,l),
(510,770,l),
(80,770,l)
);
},
{
closed = 1;
nodes = (
(472,60,l),
(500,88,l),
(528,60,l),
(500,32,l)
);
},
{
closed = 1;
nodes = (
(352,60,l),
(380,88,l),
(408,60,l),
(380,32,l)
);
},
{
closed = 1;
nodes = (
(232,60,l),
(260,88,l),
(288,60,l),
(260,32,l)
);
},
{
closed = 1;
nodes = (
(112,60,l),
(140,88,l),
(168,60,l),
(140,32,l)
);
},
{
closed = 1;
nodes = (
(112,196,l),
(140,224,l),
(168,196,l),
(140,168,l)
);
},
{
closed = 1;
nodes = (
(112,332,l),
(140,360,l),
(168,332,l),
(140,304,l)
);
},
{
closed = 1;
nodes = (
(112,468,l),
(140,496,l),
(168,468,l),
(140,440,l)
);
},
{
closed = 1;
nodes = (
(112,604,l),
(140,632,l),
(168,604,l),
(140,576,l)
);
},
{
closed = 1;
nodes = (
(112,740,l),
(140,768,l),
(168,740,l),
(140,712,l)
);
},
{
closed = 1;
nodes = (
(222,740,l),
(250,768,l),
(278,740,l),
(250,712,l)
);
},
{
closed = 1;
nodes = (
(332,740,l),
(360,768,l),
(388,740,l),
(360,712,l)
);
},
{
closed = 1;
nodes = (
(442,740,l),
(470,768,l),
(498,740,l),
(470,712,l)
);
}
);
width = 585;
},
{
anchors = (
{
name = bottom;
pos = (293,0);
},
{
name = ogonek;
pos = (560,0);
},
{
name = top;
pos = (293,800);
},
{
name = topleft;
pos = (20,800);
}
);
associatedMasterId = m01;
attr = {
coordinates = (
1,
2,
1,
430,
0
);
};
guides = (
{
angle = 90;
pos = (280,423);
showMeasurement = 1;
}
);
layerId = "D066B052-4F65-4E90-A890-330A5399613A";
name = "25 Nov 22, 13:45";
shapes = (
{
closed = 1;
nodes = (
(560,0,l),
(560,180,l),
(475,165,l),
(400,120,l),
(209,120,l),
(185,160,l),
(185,640,l),
(209,680,l),
(370,680,l),
(445,635,l),
(530,620,l),
(530,800,l),
(35,800,l),
(50,715,l),
(95,640,l),
(95,160,l),
(50,85,l),
(35,0,l)
);
},
{
closed = 1;
nodes = (
(185,380,l),
(393,380,ls),
(429,380,o),
(449,375,o),
(482,357,c),
(510,487,l),
(478,470,o),
(447,460,o),
(413,460,cs),
(185,460,l)
);
},
{
closed = 1;
nodes = (
(140,642,l),
(170,612,l),
(170,656,l),
(110,656,l),
(110,612,l)
);
},
{
closed = 1;
nodes = (
(538,60,l),
(508,30,l),
(540,30,l),
(540,90,l),
(508,90,l)
);
},
{
closed = 1;
nodes = (
(508,740,l),
(478,710,l),
(510,710,l),
(510,770,l),
(478,770,l)
);
},
{
closed = 1;
nodes = (
(472,60,l),
(500,88,l),
(528,60,l),
(500,32,l)
);
},
{
closed = 1;
nodes = (
(352,60,l),
(380,88,l),
(408,60,l),
(380,32,l)
);
},
{
closed = 1;
nodes = (
(232,60,l),
(260,88,l),
(288,60,l),
(260,32,l)
);
},
{
closed = 1;
nodes = (
(112,60,l),
(140,88,l),
(168,60,l),
(140,32,l)
);
},
{
closed = 1;
nodes = (
(112,196,l),
(140,224,l),
(168,196,l),
(140,168,l)
);
},
{
closed = 1;
nodes = (
(112,332,l),
(140,360,l),
(168,332,l),
(140,304,l)
);
},
{
closed = 1;
nodes = (
(112,468,l),
(140,496,l),
(168,468,l),
(140,440,l)
);
},
{
closed = 1;
nodes = (
(112,604,l),
(140,632,l),
(168,604,l),
(140,576,l)
);
},
{
closed = 1;
nodes = (
(112,740,l),
(140,768,l),
(168,740,l),
(140,712,l)
);
},
{
closed = 1;
nodes = (
(222,740,l),
(250,768,l),
(278,740,l),
(250,712,l)
);
},
{
closed = 1;
nodes = (
(332,740,l),
(360,768,l),
(388,740,l),
(360,712,l)
);
},
{
closed = 1;
nodes = (
(442,740,l),
(470,768,l),
(498,740,l),
(470,712,l)
);
}
);
width = 585;
},
{
anchors = (
{
name = bottom;
pos = (293,0);
},
{
name = ogonek;
pos = (560,0);
},
{
name = top;
pos = (293,800);
},
{
name = topleft;
pos = (20,800);
}
);
guides = (
{
angle = 90;
pos = (280,423);
showMeasurement = 1;
},
{
angle = 77.9052;
pos = (490,419);
}
);
layerId = m003;
shapes = (
{
closed = 1;
nodes = (
(560,0,l),
(560,180,l),
(475,165,l),
(400,120,l),
(209,120,l),
(185,160,l),
(185,640,l),
(209,680,l),
(364,680,l),
(439,635,l),
(524,620,l),
(524,800,l),
(35,800,l),
(50,715,l),
(95,640,l),
(95,160,l),
(50,85,l),
(35,0,l)
);
},
{
closed = 1;
nodes = (
(185,380,l),
(383,380,ls),
(419,380,o),
(439,375,o),
(472,357,c),
(500,487,l),
(468,470,o),
(437,460,o),
(403,460,cs),
(185,460,l)
);
},
{
closed = 1;
nodes = (
(140,166,l),
(170,136,l),
(170,656,l),
(110,656,l),
(110,136,l)
);
},
{
closed = 1;
nodes = (
(110,60,l),
(80,30,l),
(540,30,l),
(540,90,l),
(80,90,l)
);
},
{
closed = 1;
nodes = (
(110,740,l),
(80,710,l),
(510,710,l),
(510,770,l),
(80,770,l)
);
},
{
closed = 1;
nodes = (
(472,60,l),
(500,88,l),
(528,60,l),
(500,32,l)
);
},
{
closed = 1;
nodes = (
(352,60,l),
(380,88,l),
(408,60,l),
(380,32,l)
);
},
{
closed = 1;
nodes = (
(232,60,l),
(260,88,l),
(288,60,l),
(260,32,l)
);
},
{
closed = 1;
nodes = (
(112,60,l),
(140,88,l),
(168,60,l),
(140,32,l)
);
},
{
closed = 1;
nodes = (
(112,196,l),
(140,224,l),
(168,196,l),
(140,168,l)
);
},
{
closed = 1;
nodes = (
(112,332,l),
(140,360,l),
(168,332,l),
(140,304,l)
);
},
{
closed = 1;
nodes = (
(112,468,l),
(140,496,l),
(168,468,l),
(140,440,l)
);
},
{
closed = 1;
nodes = (
(112,604,l),
(140,632,l),
(168,604,l),
(140,576,l)
);
},
{
closed = 1;
nodes = (
(112,740,l),
(140,768,l),
(168,740,l),
(140,712,l)
);
},
{
closed = 1;
nodes = (
(222,740,l),
(250,768,l),
(278,740,l),
(250,712,l)
);
},
{
closed = 1;
nodes = (
(332,740,l),
(360,768,l),
(388,740,l),
(360,712,l)
);
},
{
closed = 1;
nodes = (
(442,740,l),
(470,768,l),
(498,740,l),
(470,712,l)
);
}
);
width = 585;
},
{
anchors = (
{
name = bottom;
pos = (293,0);
},
{
name = ogonek;
pos = (560,0);
},
{
name = top;
pos = (293,800);
},
{
name = topleft;
pos = (20,800);
}
);
guides = (
{
angle = 90;
pos = (280,423);
showMeasurement = 1;
}
);
layerId = m005;
shapes = (
{
closed = 1;
nodes = (
(560,0,l),
(560,180,l),
(475,165,l),
(400,120,l),
(209,120,l),
(185,160,l),
(185,640,l),
(209,680,l),
(364,680,l),
(439,635,l),
(524,620,l),
(524,800,l),
(35,800,l),
(50,715,l),
(95,640,l),
(95,160,l),
(50,85,l),
(35,0,l)
);
},
{
closed = 1;
nodes = (
(185,380,l),
(383,380,ls),
(419,380,o),
(439,375,o),
(472,357,c),
(500,487,l),
(468,470,o),
(437,460,o),
(403,460,cs),
(185,460,l)
);
},
{
closed = 1;
nodes = (
(140,166,l),
(170,136,l),
(170,656,l),
(110,656,l),
(110,136,l)
);
},
{
closed = 1;
nodes = (
(110,60,l),
(80,30,l),
(540,30,l),
(540,90,l),
(80,90,l)
);
},
{
closed = 1;
nodes = (
(110,740,l),
(80,710,l),
(510,710,l),
(510,770,l),
(80,770,l)
);
},
{
closed = 1;
nodes = (
(472,60,l),
(500,88,l),
(528,60,l),
(500,32,l)
);
},
{
closed = 1;
nodes = (
(352,60,l),
(380,88,l),
(408,60,l),
(380,32,l)
);
},
{
closed = 1;
nodes = (
(232,60,l),
(260,88,l),
(288,60,l),
(260,32,l)
);
},
{
closed = 1;
nodes = (
(112,60,l),
(140,88,l),
(168,60,l),
(140,32,l)
);
},
{
closed = 1;
nodes = (
(112,196,l),
(140,224,l),
(168,196,l),
(140,168,l)
);
},
{
closed = 1;
nodes = (
(112,332,l),
(140,360,l),
(168,332,l),
(140,304,l)
);
},
{
closed = 1;
nodes = (
(112,468,l),
(140,496,l),
(168,468,l),
(140,440,l)
);
},
{
closed = 1;
nodes = (
(112,604,l),
(140,632,l),
(168,604,l),
(140,576,l)
);
},
{
closed = 1;
nodes = (
(112,740,l),
(140,768,l),
(168,740,l),
(140,712,l)
);
},
{
closed = 1;
nodes = (
(222,740,l),
(250,768,l),
(278,740,l),
(250,712,l)
);
},
{
closed = 1;
nodes = (
(332,740,l),
(360,768,l),
(388,740,l),
(360,712,l)
);
},
{
closed = 1;
nodes = (
(442,740,l),
(470,768,l),
(498,740,l),
(470,712,l)
);
}
);
width = 585;
},
{
anchors = (
{
name = bottom;
pos = (330,0);
},
{
name = ogonek;
pos = (597,0);
},
{
name = top;
pos = (330,800);
},
{
name = topleft;
pos = (57,800);
}
);
guides = (
{
angle = 90;
pos = (280,423);
showMeasurement = 1;
}
);
layerId = m004;
shapes = (
{
closed = 1;
nodes = (
(597,0,l),
(597,272,l),
(438,243,l),
(366,200,l),
(282,200,l),
(222,300,l),
(222,500,l),
(282,600,l),
(335,600,l),
(408,556,l),
(567,528,l),
(567,800,l),
(20,800,l),
(48,641,l),
(132,500,l),
(132,300,l),
(48,159,l),
(20,0,l)
);
},
{
closed = 1;
nodes = (
(222,337,l),
(446,337,ls),
(482,337,o),
(502,337,o),
(535,337,c),
(563,467,l),
(531,467,o),
(500,467,o),
(466,467,cs),
(222,467,l)
);
},
{
closed = 1;
nodes = (
(177,166,l),
(207,136,l),
(207,656,l),
(147,656,l),
(147,136,l)
);
},
{
closed = 1;
nodes = (
(147,60,l),
(117,30,l),
(577,30,l),
(577,90,l),
(117,90,l)
);
},
{
closed = 1;
nodes = (
(147,740,l),
(117,710,l),
(547,710,l),
(547,770,l),
(117,770,l)
);
},
{
closed = 1;
nodes = (
(509,60,l),
(537,88,l),
(565,60,l),
(537,32,l)
);
},
{
closed = 1;
nodes = (
(389,60,l),
(417,88,l),
(445,60,l),
(417,32,l)
);
},
{
closed = 1;
nodes = (
(269,60,l),
(297,88,l),
(325,60,l),
(297,32,l)
);
},
{
closed = 1;
nodes = (
(149,60,l),
(177,88,l),
(205,60,l),
(177,32,l)
);
},
{
closed = 1;
nodes = (
(149,196,l),
(177,224,l),
(205,196,l),
(177,168,l)
);
},
{
closed = 1;
nodes = (
(149,332,l),
(177,360,l),
(205,332,l),
(177,304,l)
);
},
{
closed = 1;
nodes = (
(149,468,l),
(177,496,l),
(205,468,l),
(177,440,l)
);
},
{
closed = 1;
nodes = (
(149,604,l),
(177,632,l),
(205,604,l),
(177,576,l)
);
},
{
closed = 1;
nodes = (
(149,740,l),
(177,768,l),
(205,740,l),
(177,712,l)
);
},
{
closed = 1;
nodes = (
(259,740,l),
(287,768,l),
(315,740,l),
(287,712,l)
);
},
{
closed = 1;
nodes = (
(369,740,l),
(397,768,l),
(425,740,l),
(397,712,l)
);
},
{
closed = 1;
nodes = (
(479,740,l),
(507,768,l),
(535,740,l),
(507,712,l)
);
}
);
width = 607;
},
{
anchors = (
{
name = bottom;
pos = (293,0);
},
{
name = ogonek;
pos = (560,0);
},
{
name = top;
pos = (293,800);
},
{
name = topleft;
pos = (20,800);
}
);
associatedMasterId = m004;
attr = {
coordinates = (
1,
2,
1,
430,
0
);
};
guides = (
{
angle = 90;
pos = (280,423);
showMeasurement = 1;
}
);
layerId = "3B49EFFC-7D78-41E5-898D-E79C955F08AD";
name = "25 Nov 22, 13:45";
shapes = (
{
closed = 1;
nodes = (
(560,0,l),
(560,180,l),
(475,165,l),
(400,120,l),
(209,120,l),
(185,160,l),
(185,640,l),
(209,680,l),
(370,680,l),
(445,635,l),
(530,620,l),
(530,800,l),
(35,800,l),
(50,715,l),
(95,640,l),
(95,160,l),
(50,85,l),
(35,0,l)
);
},
{
closed = 1;
nodes = (
(185,380,l),
(393,380,ls),
(429,380,o),
(449,375,o),
(482,357,c),
(510,487,l),
(478,470,o),
(447,460,o),
(413,460,cs),
(185,460,l)
);
},
{
closed = 1;
nodes = (
(140,642,l),
(170,612,l),
(170,656,l),
(110,656,l),
(110,612,l)
);
},
{
closed = 1;
nodes = (
(538,60,l),
(508,30,l),
(540,30,l),
(540,90,l),
(508,90,l)
);
},
{
closed = 1;
nodes = (
(508,740,l),
(478,710,l),
(510,710,l),
(510,770,l),
(478,770,l)
);
},
{
closed = 1;
nodes = (
(472,60,l),
(500,88,l),
(528,60,l),
(500,32,l)
);
},
{
closed = 1;
nodes = (
(352,60,l),
(380,88,l),
(408,60,l),
(380,32,l)
);
},
{
closed = 1;
nodes = (
(232,60,l),
(260,88,l),
(288,60,l),
(260,32,l)
);
},
{
closed = 1;
nodes = (
(112,60,l),
(140,88,l),
(168,60,l),
(140,32,l)
);
},
{
closed = 1;
nodes = (
(112,196,l),
(140,224,l),
(168,196,l),
(140,168,l)
);
},
{
closed = 1;
nodes = (
(112,332,l),
(140,360,l),
(168,332,l),
(140,304,l)
);
},
{
closed = 1;
nodes = (
(112,468,l),
(140,496,l),
(168,468,l),
(140,440,l)
);
},
{
closed = 1;
nodes = (
(112,604,l),
(140,632,l),
(168,604,l),
(140,576,l)
);
},
{
closed = 1;
nodes = (
(112,740,l),
(140,768,l),
(168,740,l),
(140,712,l)
);
},
{
closed = 1;
nodes = (
(222,740,l),
(250,768,l),
(278,740,l),
(250,712,l)
);
},
{
closed = 1;
nodes = (
(332,740,l),
(360,768,l),
(388,740,l),
(360,712,l)
);
},
{
closed = 1;
nodes = (
(442,740,l),
(470,768,l),
(498,740,l),
(470,712,l)
);
}
);
width = 585;
}
);
unicode = 69;
},
{
glyphname = Schwa;
kernRight = O;
lastChange = "2025-01-15 12:12:36 +0000";
layers = (
{
anchors = (
{
name = bottom;
pos = (362,0);
},
{
name = top;
pos = (362,800);
}
);
layerId = m01;
shapes = (
{
closed = 1;
nodes = (
(156,412,l),
(38,290,l),
(38,81,o),
(161,-8,o),
(416,-8,c),
(536,111,ls),
(626,201,o),
(685,367,o),
(685,529,cs),
(685,696,o),
(554,808,o),
(358,808,cs),
(300,808,o),
(250,804,o),
(231,797,c),
(81,633,l),
(101,644,o),
(155,658,o),
(218,658,cs),
(464,658,o),
(581,575,o),
(581,421,cs),
(581,328,o),
(551,226,o),
(471,146,c),
(285,146,o),
(169,183,o),
(169,346,c),
(632,346,l),
(632,412,l)
);
}
);
width = 723;
},
{
anchors = (
{
name = bottom;
pos = (362,0);
},
{
name = top;
pos = (362,800);
}
);
layerId = m003;
shapes = (
{
closed = 1;
nodes = (
(156,412,l),
(38,290,l),
(38,81,o),
(161,-8,o),
(416,-8,c),
(536,111,ls),
(626,201,o),
(685,367,o),
(685,529,cs),
(685,696,o),
(554,808,o),
(358,808,cs),
(300,808,o),
(250,804,o),
(231,797,c),
(81,633,l),
(101,644,o),
(155,658,o),
(218,658,cs),
(464,658,o),
(581,575,o),
(581,421,cs),
(581,328,o),
(551,226,o),
(471,146,c),
(285,146,o),
(169,183,o),
(169,346,c),
(632,346,l),
(632,412,l)
);
}
);
width = 723;
},
{
anchors = (
{
name = bottom;
pos = (362,0);
},
{
name = top;
pos = (362,800);
}
);
layerId = m005;
shapes = (
{
closed = 1;
nodes = (
(156,412,l),
(38,290,l),
(38,81,o),
(161,-8,o),
(416,-8,c),
(536,111,ls),
(626,201,o),
(685,367,o),
(685,529,cs),
(685,696,o),
(554,808,o),
(358,808,cs),
(300,808,o),
(250,804,o),
(231,797,c),
(81,633,l),
(101,644,o),
(155,658,o),
(218,658,cs),
(464,658,o),
(581,575,o),
(581,421,cs),
(581,328,o),
(551,226,o),
(471,146,c),
(285,146,o),
(169,183,o),
(169,346,c),
(632,346,l),
(632,412,l)
);
}
);
width = 723;
},
{
anchors = (
{
name = bottom;
pos = (334,0);
},
{
name = top;
pos = (334,800);
}
);
layerId = m004;
shapes = (
{
closed = 1;
nodes = (
(128,412,l),
(10,290,l),
(10,81,o),
(133,-8,o),
(388,-8,c),
(508,111,ls),
(598,201,o),
(657,367,o),
(657,529,cs),
(657,696,o),
(526,808,o),
(330,808,cs),
(272,808,o),
(222,804,o),
(203,797,c),
(53,633,l),
(73,644,o),
(127,658,o),
(190,658,cs),
(436,658,o),
(553,575,o),
(553,421,cs),
(553,328,o),
(523,226,o),
(443,146,c),
(257,146,o),
(141,183,o),
(141,346,c),
(604,346,l),
(604,412,l)
);
}
);
width = 667;
}
);
metricLeft = "=O";
metricRight = "=O";
unicode = 399;
},
{
glyphname = Ezh;
kernLeft = Ezh;
kernRight = Ezh;
lastChange = "2023-10-30 09:42:35 +0000";
layers = (
{
anchors = (
{
name = bottom;
pos = (279,0);
},
{
name = top;
pos = (279,800);
}
);
background = {
shapes = (
{
closed = 1;
nodes = (
(293,376,l),
(484,660,l),
(404,660,l),
(213,376,l)
);
},
{
closed = 1;
nodes = (
(12,660,l),
(484,660,l),
(514,800,l),
(42,800,l)
);
},
{
closed = 1;
nodes = (
(72,800,l),
(12,800,l),
(12,595,l),
(97,610,l),
(172,660,l)
);
},
{
closed = 1;
nodes = (
(12,221,l),
(12,211,l),
(12,78,o),
(140,-8,o),
(316,-8,c),
(388,63,ls),
(471,145,o),
(517,236,o),
(517,323,cs),
(517,416,o),
(425,503,o),
(302,503,c),
(213,376,l),
(346,376,o),
(444,323,o),
(444,245,cs),
(444,211,o),
(427,174,o),
(387,134,cs),
(370,117,l),
(208,117,o),
(103,162,o),
(103,244,c)
);
},
{
closed = 1;
nodes = (
(97,115,l),
(177,244,l),
(12,244,l),
(12,211,l),
(56,115,l)
);
}
);
};
guides = (
{
pos = (83,274);
}
);
layerId = m01;
shapes = (
{
closed = 1;
nodes = (
(293,376,l),
(484,660,l),
(404,660,l),
(213,376,l)
);
},
{
closed = 1;
nodes = (
(42,660,l),
(484,660,l),
(514,800,l),
(72,800,l)
);
},
{
closed = 1;
nodes = (
(102,800,l),
(42,800,l),
(42,595,l),
(127,610,l),
(202,660,l)
);
},
{
closed = 1;
nodes = (
(388,63,ls),
(471,145,o),
(517,236,o),
(517,323,cs),
(517,416,o),
(425,503,o),
(302,503,c),
(213,376,l),
(346,376,o),
(444,323,o),
(444,245,cs),
(444,214,o),
(432,179,o),
(397,144,cs),
(380,127,l),
(261,127,o),
(171,155,o),
(103,195,c),
(57,311,l),
(25,311,l),
(25,81,l),
(97,18,o),
(213,-8,o),
(316,-8,c)
);
}
);
width = 557;
},
{
anchors = (
{
name = bottom;
pos = (279,0);
},
{
name = top;
pos = (279,800);
}
);
layerId = m003;
shapes = (
{
closed = 1;
nodes = (
(293,376,l),
(484,660,l),
(404,660,l),
(213,376,l)
);
},
{
closed = 1;
nodes = (
(42,660,l),
(484,660,l),
(514,800,l),
(72,800,l)
);
},
{
closed = 1;
nodes = (
(102,800,l),
(42,800,l),
(42,595,l),
(127,610,l),
(202,660,l)
);
},
{
closed = 1;
nodes = (
(388,63,ls),
(471,145,o),
(517,236,o),
(517,323,cs),
(517,416,o),
(425,503,o),
(302,503,c),
(213,376,l),
(346,376,o),
(444,323,o),
(444,245,cs),
(444,214,o),
(432,179,o),
(397,144,cs),
(380,127,l),
(261,127,o),
(171,155,o),
(103,195,c),
(57,311,l),
(25,311,l),
(25,81,l),
(97,18,o),
(213,-8,o),
(316,-8,c)
);
}
);
width = 557;
},
{
anchors = (
{
name = bottom;
pos = (279,0);
},
{
name = top;
pos = (279,800);
}
);
layerId = m005;
shapes = (
{
closed = 1;
nodes = (
(293,376,l),
(484,660,l),
(404,660,l),
(213,376,l)
);
},
{
closed = 1;
nodes = (
(42,660,l),
(484,660,l),
(514,800,l),
(72,800,l)
);
},
{
closed = 1;
nodes = (
(102,800,l),
(42,800,l),
(42,595,l),
(127,610,l),
(202,660,l)
);
},
{
closed = 1;
nodes = (
(388,63,ls),
(471,145,o),
(517,236,o),
(517,323,cs),
(517,416,o),
(425,503,o),
(302,503,c),
(213,376,l),
(346,376,o),
(444,323,o),
(444,245,cs),
(444,214,o),
(432,179,o),
(397,144,cs),
(380,127,l),
(261,127,o),
(171,155,o),
(103,195,c),
(57,311,l),
(25,311,l),
(25,81,l),
(97,18,o),
(213,-8,o),
(316,-8,c)
);
}
);
width = 557;
},
{
anchors = (
{
name = bottom;
pos = (264,0);
},
{
name = top;
pos = (264,800);
}
);
guides = (
{
pos = (51,274);
}
);
layerId = m004;
shapes = (
{
closed = 1;
nodes = (
(278,376,l),
(469,660,l),
(389,660,l),
(198,376,l)
);
},
{
closed = 1;
nodes = (
(27,660,l),
(469,660,l),
(499,800,l),
(57,800,l)
);
},
{
closed = 1;
nodes = (
(87,800,l),
(27,800,l),
(27,595,l),
(112,610,l),
(187,660,l)
);
},
{
closed = 1;
nodes = (
(373,63,ls),
(456,145,o),
(502,236,o),
(502,323,cs),
(502,416,o),
(410,503,o),
(287,503,c),
(198,376,l),
(331,376,o),
(429,323,o),
(429,245,cs),
(429,214,o),
(417,179,o),
(382,144,cs),
(365,127,l),
(246,127,o),
(156,155,o),
(88,195,c),
(42,311,l),
(10,311,l),
(10,81,l),
(82,18,o),
(198,-8,o),
(301,-8,c)
);
}
);
width = 513;
}
);
metricLeft = "=|E";
metricRight = "=S";
unicode = 439;
},
{
glyphname = F;
kernLeft = H;
kernRight = F;
lastChange = "2023-10-30 09:43:01 +0000";
layers = (
{
anchors = (
{
name = bottom;
pos = (273,0);
},
{
name = top;
pos = (273,800);
}
);
guides = (
{
angle = 77.8451;
pos = (466,392);
}
);
layerId = m01;
shapes = (
{
closed = 1;
nodes = (
(250,0,l),
(235,85,l),
(185,160,l),
(185,640,l),
(230,715,l),
(245,800,l),
(35,800,l),
(50,715,l),
(95,640,l),
(95,160,l),
(50,85,l),
(35,0,l)
);
},
{
closed = 1;
nodes = (
(185,680,l),
(475,680,l),
(475,800,l),
(185,800,l)
);
},
{
closed = 1;
nodes = (
(150,350,l),
(353,350,ls),
(389,350,o),
(409,345,o),
(442,327,c),
(470,457,l),
(438,440,o),
(407,430,o),
(373,430,cs),
(150,430,l)
);
},
{
closed = 1;
nodes = (
(425,635,l),
(510,620,l),
(510,800,l),
(350,800,l),
(350,680,l)
);
}
);
width = 545;
},
{
anchors = (
{
name = bottom;
pos = (273,0);
},
{
name = top;
pos = (273,800);
}
);
layerId = m003;
shapes = (
{
closed = 1;
nodes = (
(250,0,l),
(235,85,l),
(185,160,l),
(185,640,l),
(230,715,l),
(245,800,l),
(35,800,l),
(50,715,l),
(95,640,l),
(95,160,l),
(50,85,l),
(35,0,l)
);
},
{
closed = 1;
nodes = (
(185,680,l),
(475,680,l),
(475,800,l),
(185,800,l)
);
},
{
closed = 1;
nodes = (
(150,350,l),
(353,350,ls),
(389,350,o),
(409,345,o),
(442,327,c),
(470,457,l),
(438,440,o),
(407,430,o),
(373,430,cs),
(150,430,l)
);
},
{
closed = 1;
nodes = (
(425,635,l),
(510,620,l),
(510,800,l),
(350,800,l),
(350,680,l)
);
}
);
width = 545;
},
{
anchors = (
{
name = bottom;
pos = (273,0);
},
{
name = top;
pos = (273,800);
}
);
layerId = m005;
shapes = (
{
closed = 1;
nodes = (
(250,0,l),
(235,85,l),
(185,160,l),
(185,640,l),
(230,715,l),
(245,800,l),
(35,800,l),
(50,715,l),
(95,640,l),
(95,160,l),
(50,85,l),
(35,0,l)
);
},
{
closed = 1;
nodes = (
(185,680,l),
(475,680,l),
(475,800,l),
(185,800,l)
);
},
{
closed = 1;
nodes = (
(150,350,l),
(353,350,ls),
(389,350,o),
(409,345,o),
(442,327,c),
(470,457,l),
(438,440,o),
(407,430,o),
(373,430,cs),
(150,430,l)
);
},
{
closed = 1;
nodes = (
(425,635,l),
(510,620,l),
(510,800,l),
(350,800,l),
(350,680,l)
);
}
);
width = 545;
},
{
anchors = (
{
name = bottom;
pos = (258,0);
},
{
name = top;
pos = (258,800);
}
);
layerId = m004;
shapes = (
{
closed = 1;
nodes = (
(235,0,l),
(220,85,l),
(170,160,l),
(170,640,l),
(215,715,l),
(230,800,l),
(20,800,l),
(35,715,l),
(80,640,l),
(80,160,l),
(35,85,l),
(20,0,l)
);
},
{
closed = 1;
nodes = (
(170,680,l),
(460,680,l),
(460,800,l),
(170,800,l)
);
},
{
closed = 1;
nodes = (
(135,350,l),
(348,350,ls),
(384,350,o),
(404,345,o),
(437,327,c),
(465,457,l),
(433,440,o),
(402,430,o),
(368,430,cs),
(135,430,l)
);
},
{
closed = 1;
nodes = (
(410,635,l),
(495,620,l),
(495,800,l),
(335,800,l),
(335,680,l)
);
}
);
width = 530;
}
);
metricLeft = "=E";
unicode = 70;
},
{
glyphname = G;
kernLeft = O;
kernRight = G;
lastChange = "2023-11-08 11:42:07 +0000";
layers = (
{
anchors = (
{
name = bottom;
pos = (352,0);
},
{
name = top;
pos = (352,800);
}
);
layerId = m01;
shapes = (
{
closed = 1;
nodes = (
(575,73,l),
(563,138,l),
(215,138,o),
(124,212,o),
(124,386,cs),
(124,481,o),
(154,582,o),
(221,649,cs),
(234,662,l),
(356,662,o),
(441,649,o),
(526,629,c),
(566,777,l),
(513,796,o),
(429,808,o),
(304,808,c),
(189,693,ls),
(96,600,o),
(38,436,o),
(38,278,cs),
(38,78,o),
(134,-8,o),
(520,-8,c)
);
},
{
closed = 1;
nodes = (
(575,430,l),
(501,430,o),
(472,433,o),
(454,437,c),
(414,289,l),
(433,282,o),
(457,276,o),
(485,271,c),
(485,112,l),
(575,73,l)
);
}
);
width = 605;
},
{
anchors = (
{
name = bottom;
pos = (352,0);
},
{
name = top;
pos = (352,800);
}
);
layerId = m003;
shapes = (
{
closed = 1;
nodes = (
(575,73,l),
(563,138,l),
(215,138,o),
(124,212,o),
(124,386,cs),
(124,481,o),
(154,582,o),
(221,649,cs),
(234,662,l),
(356,662,o),
(441,649,o),
(526,629,c),
(566,777,l),
(513,796,o),
(429,808,o),
(304,808,c),
(189,693,ls),
(96,600,o),
(38,436,o),
(38,278,cs),
(38,78,o),
(134,-8,o),
(520,-8,c)
);
},
{
closed = 1;
nodes = (
(575,430,l),
(501,430,o),
(472,433,o),
(454,437,c),
(414,289,l),
(433,282,o),
(457,276,o),
(485,271,c),
(485,112,l),
(575,73,l)
);
}
);
width = 613;
},
{
anchors = (
{
name = bottom;
pos = (352,0);
},
{
name = top;
pos = (352,800);
}
);
layerId = m005;
shapes = (
{
closed = 1;
nodes = (
(575,73,l),
(563,138,l),
(215,138,o),
(124,212,o),
(124,386,cs),
(124,481,o),
(154,582,o),
(221,649,cs),
(234,662,l),
(356,662,o),
(441,649,o),
(526,629,c),
(566,777,l),
(513,796,o),
(429,808,o),
(304,808,c),
(189,693,ls),
(96,600,o),
(38,436,o),
(38,278,cs),
(38,78,o),
(134,-8,o),
(520,-8,c)
);
},
{
closed = 1;
nodes = (
(575,430,l),
(501,430,o),
(472,433,o),
(454,437,c),
(414,289,l),
(433,282,o),
(457,276,o),
(485,271,c),
(485,112,l),
(575,73,l)
);
}
);
width = 613;
},
{
anchors = (
{
name = bottom;
pos = (296,0);
},
{
name = top;
pos = (296,800);
}
);
layerId = m004;
shapes = (
{
closed = 1;
nodes = (
(547,73,l),
(535,138,l),
(187,138,o),
(96,212,o),
(96,386,cs),
(96,481,o),
(126,582,o),
(193,649,cs),
(206,662,l),
(328,662,o),
(413,649,o),
(498,629,c),
(538,777,l),
(485,796,o),
(401,808,o),
(276,808,c),
(161,693,ls),
(68,600,o),
(10,436,o),
(10,278,cs),
(10,78,o),
(106,-8,o),
(492,-8,c)
);
},
{
closed = 1;
nodes = (
(547,430,l),
(473,430,o),
(444,433,o),
(426,437,c),
(386,289,l),
(405,282,o),
(429,276,o),
(457,271,c),
(457,112,l),
(547,73,l)
);
}
);
width = 557;
}
);
metricLeft = "=O";
unicode = 71;
},
{
color = 4;
glyphname = H;
kernLeft = H;
kernRight = H;
lastChange = "2023-10-31 14:44:01 +0000";
layers = (
{
anchors = (
{
name = bottom;
pos = (350,0);
},
{
name = bottom_cedilla;
pos = (150,0);
},
{
name = center;
pos = (350,416);
},
{
name = top;
pos = (350,800);
},
{
name = topleft;
pos = (20,800);
}
);
layerId = m01;
shapes = (
{
closed = 1;
nodes = (
(655,0,l),
(640,85,l),
(595,160,l),
(595,640,l),
(640,715,l),
(655,800,l),
(445,800,l),
(460,715,l),
(505,640,l),
(505,160,l),
(460,85,l),
(445,0,l)
);
},
{
closed = 1;
nodes = (
(255,0,l),
(240,85,l),
(195,160,l),
(195,640,l),
(240,715,l),
(255,800,l),
(45,800,l),
(60,715,l),
(105,640,l),
(105,160,l),
(60,85,l),
(45,0,l)
);
},
{
closed = 1;
nodes = (
(150,384,l),
(550,384,l),
(550,448,l),
(150,448,l)
);
}
);
width = 700;
},
{
anchors = (
{
name = bottom;
pos = (350,0);
},
{
name = bottom_cedilla;
pos = (150,0);
},
{
name = center;
pos = (350,400);
},
{
name = top;
pos = (350,800);
},
{
name = topleft;
pos = (20,800);
}
);
layerId = m003;
shapes = (
{
closed = 1;
nodes = (
(655,0,l),
(640,85,l),
(595,160,l),
(595,640,l),
(640,715,l),
(655,800,l),
(445,800,l),
(460,715,l),
(505,640,l),
(505,160,l),
(460,85,l),
(445,0,l)
);
},
{
closed = 1;
nodes = (
(255,0,l),
(240,85,l),
(195,160,l),
(195,640,l),
(240,715,l),
(255,800,l),
(45,800,l),
(60,715,l),
(105,640,l),
(105,160,l),
(60,85,l),
(45,0,l)
);
},
{
closed = 1;
nodes = (
(150,384,l),
(550,384,l),
(550,448,l),
(150,448,l)
);
}
);
width = 700;
},
{
anchors = (
{
name = bottom;
pos = (350,0);
},
{
name = bottom_cedilla;
pos = (150,0);
},
{
name = center;
pos = (350,400);
},
{
name = top;
pos = (350,800);
},
{
name = topleft;
pos = (20,800);
}
);
layerId = m005;
shapes = (
{
closed = 1;
nodes = (
(655,0,l),
(640,85,l),
(595,160,l),
(595,640,l),
(640,715,l),
(655,800,l),
(445,800,l),
(460,715,l),
(505,640,l),
(505,160,l),
(460,85,l),
(445,0,l)
);
},
{
closed = 1;
nodes = (
(255,0,l),
(240,85,l),
(195,160,l),
(195,640,l),
(240,715,l),
(255,800,l),
(45,800,l),
(60,715,l),
(105,640,l),
(105,160,l),
(60,85,l),
(45,0,l)
);
},
{
closed = 1;
nodes = (
(150,384,l),
(550,384,l),
(550,448,l),
(150,448,l)
);
}
);
width = 700;
},
{
anchors = (
{
name = bottom;
pos = (378,0);
},
{
name = bottom_cedilla;
pos = (177,0);
},
{
name = center;
pos = (377,420);
},
{
name = top;
pos = (377,800);
},
{
name = topleft;
pos = (47,800);
}
);
layerId = m004;
shapes = (
{
closed = 1;
nodes = (
(735,0,l),
(706,159,l),
(622,300,l),
(622,500,l),
(706,641,l),
(735,800,l),
(420,800,l),
(448,641,l),
(532,500,l),
(532,300,l),
(448,159,l),
(420,0,l)
);
},
{
closed = 1;
nodes = (
(335,0,l),
(306,159,l),
(222,300,l),
(222,500,l),
(306,641,l),
(335,800,l),
(20,800,l),
(48,641,l),
(132,500,l),
(132,300,l),
(48,159,l),
(20,0,l)
);
},
{
closed = 1;
nodes = (
(177,350,l),
(577,350,l),
(577,490,l),
(177,490,l)
);
}
);
width = 755;
}
);
unicode = 72;
},
{
glyphname = I;
kernLeft = H;
kernRight = H;
lastChange = "2023-10-30 09:44:45 +0000";
layers = (
{
anchors = (
{
name = bottom;
pos = (150,0);
},
{
name = ogonek;
pos = (255,0);
},
{
name = top;
pos = (150,800);
},
{
name = topleft;
pos = (20,800);
}
);
layerId = m01;
shapes = (
{
closed = 1;
nodes = (
(255,0,l),
(240,85,l),
(195,160,l),
(195,640,l),
(240,715,l),
(255,800,l),
(45,800,l),
(60,715,l),
(105,640,l),
(105,160,l),
(60,85,l),
(45,0,l)
);
}
);
width = 300;
},
{
anchors = (
{
name = bottom;
pos = (150,0);
},
{
name = ogonek;
pos = (255,0);
},
{
name = top;
pos = (150,800);
},
{
name = topleft;
pos = (20,800);
}
);
layerId = m003;
shapes = (
{
closed = 1;
nodes = (
(255,0,l),
(240,85,l),
(195,160,l),
(195,640,l),
(240,715,l),
(255,800,l),
(45,800,l),
(60,715,l),
(105,640,l),
(105,160,l),
(60,85,l),
(45,0,l)
);
}
);
width = 300;
},
{
anchors = (
{
name = bottom;
pos = (150,0);
},
{
name = ogonek;
pos = (255,0);
},
{
name = top;
pos = (150,800);
},
{
name = topleft;
pos = (20,800);
}
);
layerId = m005;
shapes = (
{
closed = 1;
nodes = (
(255,0,l),
(240,85,l),
(195,160,l),
(195,640,l),
(240,715,l),
(255,800,l),
(45,800,l),
(60,715,l),
(105,640,l),
(105,160,l),
(60,85,l),
(45,0,l)
);
}
);
width = 300;
},
{
anchors = (
{
name = bottom;
pos = (177,0);
},
{
name = ogonek;
pos = (335,0);
},
{
name = top;
pos = (177,800);
},
{
name = topleft;
pos = (47,800);
}
);
layerId = m004;
shapes = (
{
closed = 1;
nodes = (
(335,0,l),
(306,159,l),
(222,300,l),
(222,500,l),
(306,641,l),
(335,800,l),
(20,800,l),
(48,641,l),
(132,500,l),
(132,300,l),
(48,159,l),
(20,0,l)
);
}
);
width = 355;
}
);
metricLeft = "=H";
metricRight = "=H";
unicode = 73;
},
{
glyphname = J;
kernLeft = J;
kernRight = J;
lastChange = "2025-01-07 11:11:38 +0000";
layers = (
{
anchors = (
{
name = bottom;
pos = (162,0);
},
{
name = top;
pos = (162,800);
}
);
layerId = m01;
shapes = (
{
closed = 1;
nodes = (
(207,66,l),
(207,640,l),
(252,715,l),
(267,800,l),
(45,800,l),
(68,715,l),
(117,640,l),
(117,46,l)
);
},
{
closed = 1;
nodes = (
(117,46,l),
(117,-21,o),
(99,-68,o),
(57,-122,c),
(24,-122,o),
(-5,-119,o),
(-33,-114,c),
(-33,-260,l),
(-14,-265,o),
(6,-268,o),
(27,-268,c),
(83,-212,ls),
(164,-131,o),
(207,-34,o),
(207,66,c)
);
}
);
width = 312;
},
{
anchors = (
{
name = bottom;
pos = (162,0);
},
{
name = top;
pos = (162,800);
}
);
layerId = m003;
shapes = (
{
closed = 1;
nodes = (
(207,66,l),
(207,640,l),
(252,715,l),
(267,800,l),
(45,800,l),
(68,715,l),
(117,640,l),
(117,46,l)
);
},
{
closed = 1;
nodes = (
(117,46,l),
(117,-21,o),
(99,-68,o),
(57,-122,c),
(24,-122,o),
(-5,-119,o),
(-33,-114,c),
(-33,-260,l),
(-14,-265,o),
(6,-268,o),
(27,-268,c),
(83,-212,ls),
(164,-131,o),
(207,-14,o),
(207,66,c)
);
}
);
width = 312;
},
{
anchors = (
{
name = bottom;
pos = (162,0);
},
{
name = top;
pos = (162,800);
}
);
layerId = m005;
shapes = (
{
closed = 1;
nodes = (
(207,66,l),
(207,640,l),
(252,715,l),
(267,800,l),
(45,800,l),
(68,715,l),
(117,640,l),
(117,46,l)
);
},
{
closed = 1;
nodes = (
(117,46,l),
(117,-21,o),
(99,-68,o),
(57,-122,c),
(24,-122,o),
(-5,-119,o),
(-33,-114,c),
(-33,-260,l),
(-14,-265,o),
(6,-268,o),
(27,-268,c),
(83,-212,ls),
(164,-131,o),
(207,-14,o),
(207,66,c)
);
}
);
width = 312;
},
{
anchors = (
{
name = bottom;
pos = (137,0);
},
{
name = top;
pos = (137,800);
}
);
layerId = m004;
shapes = (
{
closed = 1;
nodes = (
(182,66,l),
(182,640,l),
(227,715,l),
(242,800,l),
(20,800,l),
(43,715,l),
(92,640,l),
(92,46,l)
);
},
{
closed = 1;
nodes = (
(92,46,l),
(92,-21,o),
(74,-68,o),
(32,-122,c),
(-1,-122,o),
(-30,-119,o),
(-58,-114,c),
(-58,-260,l),
(-39,-265,o),
(-19,-268,o),
(2,-268,c),
(58,-212,ls),
(139,-131,o),
(182,-34,o),
(182,66,c)
);
}
);
width = 262;
}
);
metricLeft = "=H@799";
metricRight = "=U";
unicode = 74;
},
{
color = 4;
glyphname = K;
kernLeft = H;
kernRight = K;
lastChange = "2025-01-08 14:19:52 +0000";
layers = (
{
anchors = (
{
name = bottom;
pos = (345,0);
},
{
name = top;
pos = (345,800);
}
);
guides = (
{
angle = 225;
pos = (184,358);
}
);
layerId = m01;
shapes = (
{
closed = 1;
nodes = (
(255,0,l),
(240,85,l),
(195,160,l),
(195,640,l),
(240,715,l),
(255,800,l),
(45,800,l),
(60,715,l),
(105,640,l),
(105,160,l),
(60,85,l),
(45,0,l)
);
},
{
closed = 1;
nodes = (
(240,444,l),
(321,258,o),
(436,76,o),
(518,0,c),
(710,0,l),
(586,95,o),
(419,350,o),
(334,551,c)
);
},
{
closed = 1;
nodes = (
(550,800,l),
(164,414,l),
(184,358,l),
(627,800,l)
);
},
{
closed = 1;
nodes = (
(486,671,l),
(550,800,l),
(385,800,l),
(400,715,l),
(429,671,l)
);
}
);
width = 690;
},
{
anchors = (
{
name = bottom;
pos = (345,0);
},
{
name = top;
pos = (345,800);
}
);
guides = (
{
angle = 225;
pos = (184,358);
}
);
layerId = m003;
shapes = (
{
closed = 1;
nodes = (
(255,0,l),
(240,85,l),
(195,160,l),
(195,640,l),
(240,715,l),
(255,800,l),
(45,800,l),
(60,715,l),
(105,640,l),
(105,160,l),
(60,85,l),
(45,0,l)
);
},
{
closed = 1;
nodes = (
(240,444,l),
(321,258,o),
(436,76,o),
(518,0,c),
(710,0,l),
(586,95,o),
(419,350,o),
(334,551,c)
);
},
{
closed = 1;
nodes = (
(550,800,l),
(164,414,l),
(184,358,l),
(627,800,l)
);
},
{
closed = 1;
nodes = (
(486,671,l),
(550,800,l),
(385,800,l),
(400,715,l),
(429,671,l)
);
}
);
width = 690;
},
{
anchors = (
{
name = bottom;
pos = (345,0);
},
{
name = top;
pos = (345,800);
}
);
guides = (
{
angle = 225;
pos = (184,358);
}
);
layerId = m005;
shapes = (
{
closed = 1;
nodes = (
(255,0,l),
(240,85,l),
(195,160,l),
(195,640,l),
(240,715,l),
(255,800,l),
(45,800,l),
(60,715,l),
(105,640,l),
(105,160,l),
(60,85,l),
(45,0,l)
);
},
{
closed = 1;
nodes = (
(240,444,l),
(321,258,o),
(436,76,o),
(518,0,c),
(710,0,l),
(586,95,o),
(419,350,o),
(334,551,c)
);
},
{
closed = 1;
nodes = (
(550,800,l),
(164,414,l),
(184,358,l),
(627,800,l)
);
},
{
closed = 1;
nodes = (
(486,671,l),
(550,800,l),
(385,800,l),
(400,715,l),
(429,671,l)
);
}
);
width = 690;
},
{
anchors = (
{
name = bottom;
pos = (320,0);
},
{
name = top;
pos = (320,800);
}
);
guides = (
{
angle = 225;
pos = (159,358);
}
);
layerId = m004;
shapes = (
{
closed = 1;
nodes = (
(230,0,l),
(215,85,l),
(170,160,l),
(170,640,l),
(215,715,l),
(230,800,l),
(20,800,l),
(35,715,l),
(80,640,l),
(80,160,l),
(35,85,l),
(20,0,l)
);
},
{
closed = 1;
nodes = (
(215,444,l),
(296,258,o),
(411,76,o),
(493,0,c),
(685,0,l),
(561,95,o),
(394,350,o),
(309,551,c)
);
},
{
closed = 1;
nodes = (
(525,800,l),
(139,414,l),
(159,358,l),
(602,800,l)
);
},
{
closed = 1;
nodes = (
(461,671,l),
(525,800,l),
(360,800,l),
(375,715,l),
(404,671,l)
);
}
);
width = 665;
}
);
metricLeft = "=H";
unicode = 75;
},
{
glyphname = L;
kernLeft = H;
kernRight = L;
lastChange = "2023-10-30 09:46:31 +0000";
layers = (
{
anchors = (
{
name = bottom;
pos = (275,0);
},
{
name = center;
pos = (160,410);
},
{
name = top;
pos = (140,800);
},
{
name = topright;
pos = (308,800);
}
);
layerId = m01;
shapes = (
{
closed = 1;
nodes = (
(245,0,l),
(230,85,l),
(185,160,l),
(185,640,l),
(230,715,l),
(245,800,l),
(35,800,l),
(50,715,l),
(95,640,l),
(95,160,l),
(50,85,l),
(35,0,l)
);
},
{
closed = 1;
nodes = (
(185,0,l),
(485,0,l),
(485,120,l),
(185,120,l)
);
},
{
closed = 1;
nodes = (
(360,0,l),
(520,0,l),
(520,180,l),
(435,165,l),
(360,120,l)
);
}
);
width = 550;
},
{
anchors = (
{
name = bottom;
pos = (275,0);
},
{
name = center;
pos = (160,410);
},
{
name = top;
pos = (140,800);
},
{
name = topright;
pos = (308,800);
}
);
layerId = m003;
shapes = (
{
closed = 1;
nodes = (
(245,0,l),
(230,85,l),
(185,160,l),
(185,640,l),
(230,715,l),
(245,800,l),
(35,800,l),
(50,715,l),
(95,640,l),
(95,160,l),
(50,85,l),
(35,0,l)
);
},
{
closed = 1;
nodes = (
(185,0,l),
(485,0,l),
(485,120,l),
(185,120,l)
);
},
{
closed = 1;
nodes = (
(360,0,l),
(520,0,l),
(520,180,l),
(435,165,l),
(360,120,l)
);
}
);
width = 550;
},
{
anchors = (
{
name = bottom;
pos = (275,0);
},
{
name = center;
pos = (160,410);
},
{
name = top;
pos = (140,800);
},
{
name = topright;
pos = (308,800);
}
);
layerId = m005;
shapes = (
{
closed = 1;
nodes = (
(245,0,l),
(230,85,l),
(185,160,l),
(185,640,l),
(230,715,l),
(245,800,l),
(35,800,l),
(50,715,l),
(95,640,l),
(95,160,l),
(50,85,l),
(35,0,l)
);
},
{
closed = 1;
nodes = (
(185,0,l),
(485,0,l),
(485,120,l),
(185,120,l)
);
},
{
closed = 1;
nodes = (
(360,0,l),
(520,0,l),
(520,180,l),
(435,165,l),
(360,120,l)
);
}
);
width = 550;
},
{
anchors = (
{
name = bottom;
pos = (260,0);
},
{
name = center;
pos = (145,410);
},
{
name = top;
pos = (125,800);
},
{
name = topright;
pos = (293,800);
}
);
layerId = m004;
shapes = (
{
closed = 1;
nodes = (
(230,0,l),
(215,85,l),
(170,160,l),
(170,640,l),
(215,715,l),
(230,800,l),
(20,800,l),
(35,715,l),
(80,640,l),
(80,160,l),
(35,85,l),
(20,0,l)
);
},
{
closed = 1;
nodes = (
(170,0,l),
(470,0,l),
(470,120,l),
(170,120,l)
);
},
{
closed = 1;
nodes = (
(345,0,l),
(505,0,l),
(505,180,l),
(420,165,l),
(345,120,l)
);
}
);
width = 535;
}
);
metricLeft = "=E";
unicode = 76;
},
{
glyphname = M;
kernLeft = H;
kernRight = H;
lastChange = "2023-10-30 09:47:16 +0000";
layers = (
{
anchors = (
{
name = bottom;
pos = (420,0);
},
{
name = top;
pos = (420,800);
}
);
guides = (
{
angle = -49.9271;
pos = (226,599);
}
);
layerId = m01;
shapes = (
{
closed = 1;
nodes = (
(440,402,l),
(737,756,l),
(675,800,l),
(420,485,l),
(165,800,l),
(103,756,l),
(400,402,l)
);
},
{
ref = _Mleg;
}
);
width = 840;
},
{
anchors = (
{
name = bottom;
pos = (420,0);
},
{
name = top;
pos = (420,800);
}
);
guides = (
{
angle = -49.9271;
pos = (226,599);
}
);
layerId = m003;
shapes = (
{
closed = 1;
nodes = (
(440,402,l),
(737,756,l),
(675,800,l),
(420,485,l),
(165,800,l),
(103,756,l),
(400,402,l)
);
},
{
ref = _Mleg;
}
);
width = 840;
},
{
anchors = (
{
name = bottom;
pos = (420,0);
},
{
name = top;
pos = (420,800);
}
);
guides = (
{
angle = -49.9271;
pos = (226,599);
}
);
layerId = m005;
shapes = (
{
closed = 1;
nodes = (
(440,402,l),
(737,756,l),
(675,800,l),
(420,485,l),
(165,800,l),
(103,756,l),
(400,402,l)
);
},
{
ref = _Mleg;
}
);
width = 840;
},
{
anchors = (
{
name = bottom;
pos = (448,0);
},
{
name = top;
pos = (448,800);
}
);
guides = (
{
angle = -49.9271;
pos = (226,599);
}
);
layerId = m004;
shapes = (
{
closed = 1;
nodes = (
(467,302,l),
(764,656,l),
(702,800,l),
(447,485,l),
(192,800,l),
(130,656,l),
(427,302,l)
);
},
{
pos = (27,0);
ref = _Mleg;
}
);
width = 895;
}
);
metricLeft = "=H";
metricRight = "=H";
unicode = 77;
},
{
glyphname = N;
kernLeft = H;
kernRight = H;
lastChange = "2023-10-30 09:48:11 +0000";
layers = (
{
anchors = (
{
name = bottom;
pos = (386,0);
},
{
name = top;
pos = (386,800);
}
);
background = {
shapes = (
{
closed = 1;
nodes = (
(550,112,ls),
(637,199,o),
(722,364,o),
(722,512,cs),
(722,670,o),
(625,808,o),
(330,808,c),
(210,688,ls),
(123,601,o),
(38,436,o),
(38,288,cs),
(38,130,o),
(135,-8,o),
(430,-8,c)
);
},
{
closed = 1;
nodes = (
(216,138,o),
(124,265,o),
(124,396,cs),
(124,487,o),
(174,576,o),
(230,632,cs),
(260,662,l),
(544,662,o),
(636,535,o),
(636,404,cs),
(636,313,o),
(586,224,o),
(530,168,cs),
(500,138,l)
);
}
);
};
guides = (
{
angle = -50.0039;
pos = (252,579);
}
);
layerId = m01;
shapes = (
{
closed = 1;
nodes = (
(175,800,l),
(45,800,l),
(60,715,l),
(105,640,l),
(105,160,l),
(60,85,l),
(45,0,l),
(255,0,l),
(240,85,l),
(195,160,l),
(195,640,l),
(195,715,l)
);
},
{
closed = 1;
nodes = (
(725,0,l),
(710,85,l),
(665,160,l),
(665,640,l),
(710,715,l),
(725,800,l),
(615,800,l),
(515,800,l),
(530,715,l),
(575,640,l),
(575,100,l),
(605,0,l)
);
},
{
closed = 1;
nodes = (
(156,714,l),
(605,0,l),
(635,0,l),
(635,83,l),
(185,800,l),
(156,800,l)
);
}
);
width = 770;
},
{
anchors = (
{
name = bottom;
pos = (386,0);
},
{
name = top;
pos = (386,800);
}
);
background = {
shapes = (
{
closed = 1;
nodes = (
(550,112,ls),
(637,199,o),
(722,364,o),
(722,512,cs),
(722,670,o),
(625,808,o),
(330,808,c),
(210,688,ls),
(123,601,o),
(38,436,o),
(38,288,cs),
(38,130,o),
(135,-8,o),
(430,-8,c)
);
},
{
closed = 1;
nodes = (
(216,138,o),
(124,265,o),
(124,396,cs),
(124,487,o),
(174,576,o),
(230,632,cs),
(260,662,l),
(544,662,o),
(636,535,o),
(636,404,cs),
(636,313,o),
(586,224,o),
(530,168,cs),
(500,138,l)
);
}
);
};
guides = (
{
angle = -50.0039;
pos = (252,579);
}
);
layerId = m003;
shapes = (
{
closed = 1;
nodes = (
(175,800,l),
(45,800,l),
(60,715,l),
(105,640,l),
(105,160,l),
(60,85,l),
(45,0,l),
(255,0,l),
(240,85,l),
(195,160,l),
(195,640,l),
(195,715,l)
);
},
{
closed = 1;
nodes = (
(725,0,l),
(710,85,l),
(665,160,l),
(665,640,l),
(710,715,l),
(725,800,l),
(615,800,l),
(515,800,l),
(530,715,l),
(575,640,l),
(575,100,l),
(605,0,l)
);
},
{
closed = 1;
nodes = (
(156,714,l),
(605,0,l),
(635,0,l),
(635,83,l),
(185,800,l),
(156,800,l)
);
}
);
width = 770;
},
{
anchors = (
{
name = bottom;
pos = (386,0);
},
{
name = top;
pos = (386,800);
}
);
background = {
shapes = (
{
closed = 1;
nodes = (
(550,112,ls),
(637,199,o),
(722,364,o),
(722,512,cs),
(722,670,o),
(625,808,o),
(330,808,c),
(210,688,ls),
(123,601,o),
(38,436,o),
(38,288,cs),
(38,130,o),
(135,-8,o),
(430,-8,c)
);
},
{
closed = 1;
nodes = (
(216,138,o),
(124,265,o),
(124,396,cs),
(124,487,o),
(174,576,o),
(230,632,cs),
(260,662,l),
(544,662,o),
(636,535,o),
(636,404,cs),
(636,313,o),
(586,224,o),
(530,168,cs),
(500,138,l)
);
}
);
};
guides = (
{
angle = -50.0039;
pos = (252,579);
}
);
layerId = m005;
shapes = (
{
closed = 1;
nodes = (
(175,800,l),
(45,800,l),
(60,715,l),
(105,640,l),
(105,160,l),
(60,85,l),
(45,0,l),
(255,0,l),
(240,85,l),
(195,160,l),
(195,640,l),
(195,715,l)
);
},
{
closed = 1;
nodes = (
(725,0,l),
(710,85,l),
(665,160,l),
(665,640,l),
(710,715,l),
(725,800,l),
(615,800,l),
(515,800,l),
(530,715,l),
(575,640,l),
(575,100,l),
(605,0,l)
);
},
{
closed = 1;
nodes = (
(156,714,l),
(605,0,l),
(635,0,l),
(635,83,l),
(185,800,l),
(156,800,l)
);
}
);
width = 770;
},
{
anchors = (
{
name = bottom;
pos = (413,0);
},
{
name = top;
pos = (413,800);
}
);
background = {
shapes = (
{
closed = 1;
nodes = (
(550,112,ls),
(637,199,o),
(722,364,o),
(722,512,cs),
(722,670,o),
(625,808,o),
(330,808,c),
(210,688,ls),
(123,601,o),
(38,436,o),
(38,288,cs),
(38,130,o),
(135,-8,o),
(430,-8,c)
);
},
{
closed = 1;
nodes = (
(216,138,o),
(124,265,o),
(124,396,cs),
(124,487,o),
(174,576,o),
(230,632,cs),
(260,662,l),
(544,662,o),
(636,535,o),
(636,404,cs),
(636,313,o),
(586,224,o),
(530,168,cs),
(500,138,l)
);
}
);
};
guides = (
{
angle = -50.0039;
pos = (252,579);
}
);
layerId = m004;
shapes = (
{
closed = 1;
nodes = (
(222,800,l),
(20,800,l),
(48,641,l),
(132,500,l),
(132,300,l),
(48,159,l),
(20,0,l),
(345,0,l),
(316,159,l),
(232,300,l),
(232,640,l),
(232,715,l)
);
},
{
closed = 1;
nodes = (
(805,0,l),
(776,159,l),
(692,300,l),
(692,500,l),
(776,641,l),
(805,800,l),
(642,800,l),
(480,800,l),
(508,641,l),
(592,500,l),
(592,100,l),
(622,0,l)
);
},
{
closed = 1;
nodes = (
(183,614,l),
(622,0,l),
(662,0,l),
(662,183,l),
(222,800,l),
(183,800,l)
);
}
);
width = 825;
}
);
metricLeft = "=M";
metricRight = "=M";
unicode = 78;
},
{
glyphname = Nhookleft;
kernLeft = H;
kernRight = H;
lastChange = "2023-10-30 09:48:11 +0000";
layers = (
{
anchors = (
{
name = bottom;
pos = (385,0);
},
{
name = top;
pos = (385,800);
}
);
layerId = m01;
shapes = (
{
closed = 1;
nodes = (
(175,800,l),
(45,800,l),
(60,715,l),
(105,640,l),
(105,26,l),
(195,37,l),
(195,640,l),
(195,715,l)
);
},
{
closed = 1;
nodes = (
(725,0,l),
(710,85,l),
(665,160,l),
(665,640,l),
(710,715,l),
(725,800,l),
(615,800,l),
(515,800,l),
(530,715,l),
(575,640,l),
(575,100,l),
(605,0,l)
);
},
{
closed = 1;
nodes = (
(156,714,l),
(605,0,l),
(635,0,l),
(635,83,l),
(185,800,l),
(156,800,l)
);
},
{
closed = 1;
nodes = (
(105,26,l),
(105,-55,o),
(101,-100,o),
(89,-142,c),
(35,-142,o),
(-16,-125,o),
(-70,-84,c),
(-70,-206,l),
(-29,-240,o),
(25,-260,o),
(70,-260,c),
(125,-205,ls),
(171,-159,o),
(195,-75,o),
(195,37,c)
);
}
);
width = 770;
},
{
anchors = (
{
name = bottom;
pos = (385,0);
},
{
name = top;
pos = (385,800);
}
);
layerId = m003;
shapes = (
{
closed = 1;
nodes = (
(175,800,l),
(45,800,l),
(60,715,l),
(105,640,l),
(105,26,l),
(195,37,l),
(195,640,l),
(195,715,l)
);
},
{
closed = 1;
nodes = (
(725,0,l),
(710,85,l),
(665,160,l),
(665,640,l),
(710,715,l),
(725,800,l),
(615,800,l),
(515,800,l),
(530,715,l),
(575,640,l),
(575,100,l),
(605,0,l)
);
},
{
closed = 1;
nodes = (
(156,714,l),
(605,0,l),
(635,0,l),
(635,83,l),
(185,800,l),
(156,800,l)
);
},
{
closed = 1;
nodes = (
(105,26,l),
(105,-55,o),
(101,-100,o),
(89,-142,c),
(35,-142,o),
(-16,-125,o),
(-70,-84,c),
(-70,-206,l),
(-29,-240,o),
(25,-260,o),
(70,-260,c),
(125,-205,ls),
(171,-159,o),
(195,-75,o),
(195,37,c)
);
}
);
width = 770;
},
{
anchors = (
{
name = bottom;
pos = (385,0);
},
{
name = top;
pos = (385,800);
}
);
layerId = m005;
shapes = (
{
closed = 1;
nodes = (
(175,800,l),
(45,800,l),
(60,715,l),
(105,640,l),
(105,26,l),
(195,37,l),
(195,640,l),
(195,715,l)
);
},
{
closed = 1;
nodes = (
(725,0,l),
(710,85,l),
(665,160,l),
(665,640,l),
(710,715,l),
(725,800,l),
(615,800,l),
(515,800,l),
(530,715,l),
(575,640,l),
(575,100,l),
(605,0,l)
);
},
{
closed = 1;
nodes = (
(156,714,l),
(605,0,l),
(635,0,l),
(635,83,l),
(185,800,l),
(156,800,l)
);
},
{
closed = 1;
nodes = (
(105,26,l),
(105,-55,o),
(101,-100,o),
(89,-142,c),
(35,-142,o),
(-16,-125,o),
(-70,-84,c),
(-70,-206,l),
(-29,-240,o),
(25,-260,o),
(70,-260,c),
(125,-205,ls),
(171,-159,o),
(195,-75,o),
(195,37,c)
);
}
);
width = 770;
},
{
anchors = (
{
name = bottom;
pos = (412,0);
},
{
name = top;
pos = (412,800);
}
);
layerId = m004;
shapes = (
{
closed = 1;
nodes = (
(202,800,l),
(72,800,l),
(87,715,l),
(132,640,l),
(132,26,l),
(222,37,l),
(222,640,l),
(222,715,l)
);
},
{
closed = 1;
nodes = (
(752,0,l),
(737,85,l),
(692,160,l),
(692,640,l),
(737,715,l),
(752,800,l),
(642,800,l),
(542,800,l),
(557,715,l),
(602,640,l),
(602,100,l),
(632,0,l)
);
},
{
closed = 1;
nodes = (
(183,714,l),
(632,0,l),
(662,0,l),
(662,83,l),
(212,800,l),
(183,800,l)
);
},
{
closed = 1;
nodes = (
(132,26,l),
(132,-55,o),
(128,-100,o),
(116,-142,c),
(62,-142,o),
(11,-125,o),
(-43,-84,c),
(-43,-206,l),
(-2,-240,o),
(52,-260,o),
(97,-260,c),
(152,-205,ls),
(198,-159,o),
(222,-75,o),
(222,37,c)
);
}
);
width = 772;
}
);
metricLeft = "=N@400";
metricRight = "=N";
unicode = 413;
},
{
glyphname = Eng;
kernLeft = H;
kernRight = Eng;
lastChange = "2025-01-15 11:58:12 +0000";
layers = (
{
anchors = (
{
name = bottom;
pos = (354,0);
},
{
name = top;
pos = (354,800);
}
);
background = {
shapes = (
{
closed = 1;
nodes = (
(655,0,l),
(640,85,l),
(595,160,l),
(595,640,l),
(640,715,l),
(655,800,l),
(445,800,l),
(460,715,l),
(505,640,l),
(505,160,l),
(460,85,l),
(445,0,l)
);
},
{
closed = 1;
nodes = (
(255,0,l),
(240,85,l),
(195,160,l),
(195,640,l),
(240,715,l),
(255,800,l),
(45,800,l),
(60,715,l),
(105,640,l),
(105,160,l),
(60,85,l),
(45,0,l)
);
},
{
closed = 1;
nodes = (
(150,384,l),
(550,384,l),
(550,448,l),
(150,448,l)
);
}
);
};
layerId = m01;
shapes = (
{
closed = 1;
nodes = (
(255,0,l),
(240,85,l),
(195,160,l),
(195,800,l),
(45,800,l),
(60,715,l),
(105,640,l),
(105,160,l),
(60,85,l),
(45,0,l)
);
},
{
closed = 1;
nodes = (
(583,283,o),
(567,198,o),
(522,153,cs),
(507,138,l),
(456,138,o),
(404,142,o),
(355,150,c),
(355,0,l),
(382,-5,o),
(409,-8,o),
(437,-8,c),
(547,102,ls),
(634,189,o),
(670,332,o),
(670,512,cs),
(670,565,ls),
(670,761,o),
(531,808,o),
(388,808,c),
(163,582,l),
(124,464,l),
(323,663,l),
(432,663,o),
(583,640,o),
(583,411,cs)
);
},
{
closed = 1;
nodes = (
(433,141,l),
(387,257,l),
(355,257,l),
(355,27,l)
);
}
);
width = 708;
},
{
anchors = (
{
name = bottom;
pos = (354,0);
},
{
name = top;
pos = (354,800);
}
);
layerId = m003;
shapes = (
{
closed = 1;
nodes = (
(255,0,l),
(240,85,l),
(195,160,l),
(195,800,l),
(45,800,l),
(60,715,l),
(105,640,l),
(105,160,l),
(60,85,l),
(45,0,l)
);
},
{
closed = 1;
nodes = (
(583,283,o),
(567,198,o),
(522,153,cs),
(507,138,l),
(456,138,o),
(404,142,o),
(355,150,c),
(355,0,l),
(382,-5,o),
(409,-8,o),
(437,-8,c),
(547,102,ls),
(634,189,o),
(670,332,o),
(670,512,cs),
(670,565,ls),
(670,761,o),
(531,808,o),
(388,808,c),
(163,582,l),
(124,464,l),
(323,663,l),
(432,663,o),
(583,640,o),
(583,411,cs)
);
},
{
closed = 1;
nodes = (
(433,141,l),
(387,257,l),
(355,257,l),
(355,27,l)
);
}
);
width = 708;
},
{
anchors = (
{
name = bottom;
pos = (354,0);
},
{
name = top;
pos = (354,800);
}
);
layerId = m005;
shapes = (
{
closed = 1;
nodes = (
(255,0,l),
(240,85,l),
(195,160,l),
(195,800,l),
(45,800,l),
(60,715,l),
(105,640,l),
(105,160,l),
(60,85,l),
(45,0,l)
);
},
{
closed = 1;
nodes = (
(583,283,o),
(567,198,o),
(522,153,cs),
(507,138,l),
(456,138,o),
(404,142,o),
(355,150,c),
(355,0,l),
(382,-5,o),
(409,-8,o),
(437,-8,c),
(547,102,ls),
(634,189,o),
(670,332,o),
(670,512,cs),
(670,565,ls),
(670,761,o),
(531,808,o),
(388,808,c),
(163,582,l),
(124,464,l),
(323,663,l),
(432,663,o),
(583,640,o),
(583,411,cs)
);
},
{
closed = 1;
nodes = (
(433,141,l),
(387,257,l),
(355,257,l),
(355,27,l)
);
}
);
width = 708;
},
{
anchors = (
{
name = bottom;
pos = (329,0);
},
{
name = top;
pos = (329,800);
}
);
background = {
shapes = (
{
closed = 1;
nodes = (
(630,0,l),
(615,85,l),
(570,160,l),
(570,640,l),
(615,715,l),
(630,800,l),
(420,800,l),
(435,715,l),
(480,640,l),
(480,160,l),
(435,85,l),
(420,0,l)
);
},
{
closed = 1;
nodes = (
(230,0,l),
(215,85,l),
(170,160,l),
(170,640,l),
(215,715,l),
(230,800,l),
(20,800,l),
(35,715,l),
(80,640,l),
(80,160,l),
(35,85,l),
(20,0,l)
);
},
{
closed = 1;
nodes = (
(125,384,l),
(525,384,l),
(525,448,l),
(125,448,l)
);
}
);
};
layerId = m004;
shapes = (
{
closed = 1;
nodes = (
(230,0,l),
(215,85,l),
(170,160,l),
(170,800,l),
(20,800,l),
(35,715,l),
(80,640,l),
(80,160,l),
(35,85,l),
(20,0,l)
);
},
{
closed = 1;
nodes = (
(558,283,o),
(542,198,o),
(497,153,cs),
(482,138,l),
(431,138,o),
(379,142,o),
(330,150,c),
(330,0,l),
(357,-5,o),
(384,-8,o),
(412,-8,c),
(522,102,ls),
(609,189,o),
(645,332,o),
(645,512,cs),
(645,565,ls),
(645,761,o),
(506,808,o),
(363,808,c),
(138,582,l),
(99,464,l),
(298,663,l),
(407,663,o),
(558,640,o),
(558,411,cs)
);
},
{
closed = 1;
nodes = (
(408,141,l),
(362,257,l),
(330,257,l),
(330,27,l)
);
}
);
width = 655;
}
);
metricLeft = "=H";
metricRight = "=O";
unicode = 330;
},
{
color = 4;
glyphname = O;
kernLeft = O;
kernRight = O;
lastChange = "2023-11-09 14:34:21 +0000";
layers = (
{
anchors = (
{
name = bottom;
pos = (380,0);
},
{
name = center;
pos = (380,400);
},
{
name = ogonek;
pos = (430,-8);
},
{
name = top;
pos = (380,800);
},
{
name = topleft;
pos = (20,800);
},
{
name = topright;
pos = (740,800);
}
);
guides = (
{
angle = 45;
pos = (269,625);
}
);
layerId = m01;
shapes = (
{
closed = 1;
nodes = (
(550,112,ls),
(637,199,o),
(722,364,o),
(722,512,cs),
(722,670,o),
(625,808,o),
(330,808,c),
(210,688,ls),
(123,601,o),
(38,436,o),
(38,288,cs),
(38,130,o),
(135,-8,o),
(430,-8,c)
);
},
{
closed = 1;
nodes = (
(216,138,o),
(124,265,o),
(124,396,cs),
(124,487,o),
(174,576,o),
(230,632,cs),
(260,662,l),
(544,662,o),
(636,535,o),
(636,404,cs),
(636,313,o),
(586,224,o),
(530,168,cs),
(500,138,l)
);
}
);
width = 760;
},
{
anchors = (
{
name = bottom;
pos = (380,0);
},
{
name = center;
pos = (380,400);
},
{
name = ogonek;
pos = (438,0);
},
{
name = top;
pos = (380,800);
},
{
name = topleft;
pos = (20,800);
},
{
name = topright;
pos = (740,800);
}
);
guides = (
{
angle = 45;
pos = (269,625);
}
);
layerId = m003;
shapes = (
{
closed = 1;
nodes = (
(550,112,ls),
(637,199,o),
(722,364,o),
(722,512,cs),
(722,670,o),
(625,808,o),
(330,808,c),
(210,688,ls),
(123,601,o),
(38,436,o),
(38,288,cs),
(38,130,o),
(135,-8,o),
(430,-8,c)
);
},
{
closed = 1;
nodes = (
(216,138,o),
(124,265,o),
(124,396,cs),
(124,487,o),
(174,576,o),
(230,632,cs),
(260,662,l),
(544,662,o),
(636,535,o),
(636,404,cs),
(636,313,o),
(586,224,o),
(530,168,cs),
(500,138,l)
);
}
);
width = 760;
},
{
anchors = (
{
name = bottom;
pos = (380,0);
},
{
name = center;
pos = (380,400);
},
{
name = ogonek;
pos = (438,0);
},
{
name = top;
pos = (380,800);
},
{
name = topleft;
pos = (20,800);
},
{
name = topright;
pos = (740,800);
}
);
guides = (
{
angle = 45;
pos = (269,625);
}
);
layerId = m005;
shapes = (
{
closed = 1;
nodes = (
(550,112,ls),
(637,199,o),
(722,364,o),
(722,512,cs),
(722,670,o),
(625,808,o),
(330,808,c),
(210,688,ls),
(123,601,o),
(38,436,o),
(38,288,cs),
(38,130,o),
(135,-8,o),
(430,-8,c)
);
},
{
closed = 1;
nodes = (
(216,138,o),
(124,265,o),
(124,396,cs),
(124,487,o),
(174,576,o),
(230,632,cs),
(260,662,l),
(544,662,o),
(636,535,o),
(636,404,cs),
(636,313,o),
(586,224,o),
(530,168,cs),
(500,138,l)
);
}
);
width = 760;
},
{
anchors = (
{
name = bottom;
pos = (352,0);
},
{
name = center;
pos = (352,400);
},
{
name = ogonek;
pos = (410,0);
},
{
name = top;
pos = (352,800);
},
{
name = topleft;
pos = (-8,800);
},
{
name = topright;
pos = (712,800);
}
);
guides = (
{
angle = 45;
pos = (269,625);
}
);
layerId = m004;
shapes = (
{
closed = 1;
nodes = (
(517,107,ls),
(609,199,o),
(694,364,o),
(694,512,cs),
(694,670,o),
(597,808,o),
(302,808,c),
(187,693,ls),
(95,601,o),
(10,436,o),
(10,288,cs),
(10,130,o),
(107,-8,o),
(402,-8,c)
);
},
{
closed = 1;
nodes = (
(254,276,o),
(142,336,o),
(142,398,cs),
(142,439,o),
(159,478,o),
(190,509,cs),
(206,525,l),
(450,525,o),
(562,464,o),
(562,402,cs),
(562,362,o),
(545,323,o),
(514,292,cs),
(498,276,l)
);
}
);
width = 704;
}
);
unicode = 79;
},
{
glyphname = OE;
kernLeft = O;
kernRight = E;
lastChange = "2023-10-30 09:50:36 +0000";
layers = (
{
anchors = (
{
name = bottom;
pos = (563,0);
},
{
name = top;
pos = (563,800);
}
);
layerId = m01;
shapes = (
{
closed = 1;
nodes = (
(550,112,ls),
(637,199,o),
(722,364,o),
(722,512,c),
(684,612,l),
(632,698,o),
(524,808,o),
(330,808,c),
(210,688,ls),
(123,601,o),
(38,436,o),
(38,288,cs),
(38,130,o),
(135,-8,o),
(430,-8,c)
);
},
{
closed = 1;
nodes = (
(216,138,o),
(124,265,o),
(124,396,cs),
(124,487,o),
(174,576,o),
(230,632,cs),
(260,662,l),
(544,662,o),
(636,535,o),
(636,404,cs),
(636,313,o),
(586,224,o),
(530,168,cs),
(500,138,l)
);
},
{
closed = 1;
nodes = (
(1100,0,l),
(1100,180,l),
(1015,165,l),
(940,120,l),
(749,120,l),
(725,160,l),
(725,640,l),
(749,680,l),
(910,680,l),
(985,635,l),
(1070,620,l),
(1070,800,l),
(635,800,l),
(635,715,l),
(635,640,l),
(635,160,l),
(585,0,l)
);
},
{
closed = 1;
nodes = (
(725,380,l),
(933,380,ls),
(969,380,o),
(989,375,o),
(1022,357,c),
(1050,487,l),
(1018,470,o),
(987,460,o),
(953,460,cs),
(725,460,l)
);
}
);
width = 1125;
},
{
anchors = (
{
name = bottom;
pos = (563,0);
},
{
name = top;
pos = (563,800);
}
);
layerId = m003;
shapes = (
{
closed = 1;
nodes = (
(550,112,ls),
(637,199,o),
(722,364,o),
(722,512,c),
(684,612,l),
(632,698,o),
(524,808,o),
(330,808,c),
(210,688,ls),
(123,601,o),
(38,436,o),
(38,288,cs),
(38,130,o),
(135,-8,o),
(430,-8,c)
);
},
{
closed = 1;
nodes = (
(216,138,o),
(124,265,o),
(124,396,cs),
(124,487,o),
(174,576,o),
(230,632,cs),
(260,662,l),
(544,662,o),
(636,535,o),
(636,404,cs),
(636,313,o),
(586,224,o),
(530,168,cs),
(500,138,l)
);
},
{
closed = 1;
nodes = (
(1100,0,l),
(1100,180,l),
(1015,165,l),
(940,120,l),
(749,120,l),
(725,160,l),
(725,640,l),
(749,680,l),
(910,680,l),
(985,635,l),
(1070,620,l),
(1070,800,l),
(635,800,l),
(635,715,l),
(635,640,l),
(635,160,l),
(585,0,l)
);
},
{
closed = 1;
nodes = (
(725,380,l),
(933,380,ls),
(969,380,o),
(989,375,o),
(1022,357,c),
(1050,487,l),
(1018,470,o),
(987,460,o),
(953,460,cs),
(725,460,l)
);
}
);
width = 1125;
},
{
anchors = (
{
name = bottom;
pos = (563,0);
},
{
name = top;
pos = (563,800);
}
);
layerId = m005;
shapes = (
{
closed = 1;
nodes = (
(550,112,ls),
(637,199,o),
(722,364,o),
(722,512,c),
(684,612,l),
(632,698,o),
(524,808,o),
(330,808,c),
(210,688,ls),
(123,601,o),
(38,436,o),
(38,288,cs),
(38,130,o),
(135,-8,o),
(430,-8,c)
);
},
{
closed = 1;
nodes = (
(216,138,o),
(124,265,o),
(124,396,cs),
(124,487,o),
(174,576,o),
(230,632,cs),
(260,662,l),
(544,662,o),
(636,535,o),
(636,404,cs),
(636,313,o),
(586,224,o),
(530,168,cs),
(500,138,l)
);
},
{
closed = 1;
nodes = (
(1100,0,l),
(1100,180,l),
(1015,165,l),
(940,120,l),
(749,120,l),
(725,160,l),
(725,640,l),
(749,680,l),
(910,680,l),
(985,635,l),
(1070,620,l),
(1070,800,l),
(635,800,l),
(635,715,l),
(635,640,l),
(635,160,l),
(585,0,l)
);
},
{
closed = 1;
nodes = (
(725,380,l),
(933,380,ls),
(969,380,o),
(989,375,o),
(1022,357,c),
(1050,487,l),
(1018,470,o),
(987,460,o),
(953,460,cs),
(725,460,l)
);
}
);
width = 1125;
},
{
anchors = (
{
name = bottom;
pos = (535,0);
},
{
name = top;
pos = (535,800);
}
);
layerId = m004;
shapes = (
{
closed = 1;
nodes = (
(522,112,ls),
(609,199,o),
(694,364,o),
(694,512,c),
(656,612,l),
(604,698,o),
(496,808,o),
(302,808,c),
(182,688,ls),
(95,601,o),
(10,436,o),
(10,288,cs),
(10,130,o),
(107,-8,o),
(402,-8,c)
);
},
{
closed = 1;
nodes = (
(188,138,o),
(96,265,o),
(96,396,cs),
(96,487,o),
(146,576,o),
(202,632,cs),
(232,662,l),
(516,662,o),
(608,535,o),
(608,404,cs),
(608,313,o),
(558,224,o),
(502,168,cs),
(472,138,l)
);
},
{
closed = 1;
nodes = (
(1072,0,l),
(1072,180,l),
(987,165,l),
(912,120,l),
(721,120,l),
(697,160,l),
(697,640,l),
(721,680,l),
(882,680,l),
(957,635,l),
(1042,620,l),
(1042,800,l),
(607,800,l),
(607,715,l),
(607,640,l),
(607,160,l),
(557,0,l)
);
},
{
closed = 1;
nodes = (
(697,380,l),
(905,380,ls),
(941,380,o),
(961,375,o),
(994,357,c),
(1022,487,l),
(990,470,o),
(959,460,o),
(925,460,cs),
(697,460,l)
);
}
);
width = 1082;
}
);
metricLeft = "=O";
metricRight = "=E";
unicode = 338;
},
{
glyphname = P;
kernLeft = H;
kernRight = P;
lastChange = "2023-10-30 09:51:07 +0000";
layers = (
{
anchors = (
{
name = bottom;
pos = (290,0);
},
{
name = top;
pos = (290,800);
}
);
background = {
shapes = (
{
closed = 1;
nodes = (
(440,511,o),
(407,460,o),
(250,372,c),
(344,365,l),
(486,459,o),
(545,539,o),
(545,602,cs),
(545,736,o),
(431,808,o),
(225,808,cs),
(134,808,o),
(85,806,o),
(35,800,c),
(50,715,l),
(95,640,l),
(95,160,l),
(50,85,l),
(35,0,l),
(245,0,l),
(230,85,l),
(185,160,l),
(185,673,l),
(351,673,o),
(440,629,o),
(440,546,cs)
);
}
);
};
guides = (
{
angle = 12.8477;
pos = (257,324);
}
);
layerId = m01;
shapes = (
{
closed = 1;
nodes = (
(440,432,o),
(364,370,o),
(250,352,c),
(263,295,l),
(449,340,o),
(547,466,o),
(547,582,cs),
(547,700,o),
(444,808,o),
(225,808,cs),
(134,808,o),
(85,806,o),
(35,800,c),
(50,715,l),
(95,640,l),
(95,160,l),
(50,85,l),
(35,0,l),
(245,0,l),
(230,85,l),
(185,160,l),
(185,673,l),
(392,666,o),
(440,597,o),
(440,506,cs)
);
}
);
width = 580;
},
{
anchors = (
{
name = bottom;
pos = (290,0);
},
{
name = top;
pos = (290,800);
}
);
background = {
shapes = (
{
closed = 1;
nodes = (
(440,511,o),
(407,460,o),
(250,372,c),
(344,365,l),
(486,459,o),
(545,539,o),
(545,602,cs),
(545,736,o),
(431,808,o),
(225,808,cs),
(134,808,o),
(85,806,o),
(35,800,c),
(50,715,l),
(95,640,l),
(95,160,l),
(50,85,l),
(35,0,l),
(245,0,l),
(230,85,l),
(185,160,l),
(185,673,l),
(351,673,o),
(440,629,o),
(440,546,cs)
);
}
);
};
layerId = m003;
shapes = (
{
closed = 1;
nodes = (
(440,432,o),
(364,370,o),
(250,352,c),
(263,295,l),
(449,340,o),
(547,466,o),
(547,582,cs),
(547,700,o),
(444,808,o),
(225,808,cs),
(134,808,o),
(85,806,o),
(35,800,c),
(50,715,l),
(95,640,l),
(95,160,l),
(50,85,l),
(35,0,l),
(245,0,l),
(230,85,l),
(185,160,l),
(185,673,l),
(392,666,o),
(440,597,o),
(440,506,cs)
);
}
);
width = 580;
},
{
anchors = (
{
name = bottom;
pos = (290,0);
},
{
name = top;
pos = (290,800);
}
);
background = {
shapes = (
{
closed = 1;
nodes = (
(440,511,o),
(407,460,o),
(250,372,c),
(344,365,l),
(486,459,o),
(545,539,o),
(545,602,cs),
(545,736,o),
(431,808,o),
(225,808,cs),
(134,808,o),
(85,806,o),
(35,800,c),
(50,715,l),
(95,640,l),
(95,160,l),
(50,85,l),
(35,0,l),
(245,0,l),
(230,85,l),
(185,160,l),
(185,673,l),
(351,673,o),
(440,629,o),
(440,546,cs)
);
}
);
};
layerId = m005;
shapes = (
{
closed = 1;
nodes = (
(440,432,o),
(364,370,o),
(250,352,c),
(263,295,l),
(449,340,o),
(547,466,o),
(547,582,cs),
(547,700,o),
(444,808,o),
(225,808,cs),
(134,808,o),
(85,806,o),
(35,800,c),
(50,715,l),
(95,640,l),
(95,160,l),
(50,85,l),
(35,0,l),
(245,0,l),
(230,85,l),
(185,160,l),
(185,673,l),
(392,666,o),
(440,597,o),
(440,506,cs)
);
}
);
width = 580;
},
{
anchors = (
{
name = bottom;
pos = (275,0);
},
{
name = top;
pos = (275,800);
}
);
background = {
shapes = (
{
closed = 1;
nodes = (
(410,511,o),
(377,460,o),
(220,372,c),
(314,365,l),
(456,459,o),
(515,539,o),
(515,602,cs),
(515,736,o),
(401,808,o),
(195,808,cs),
(104,808,o),
(55,806,o),
(5,800,c),
(20,715,l),
(65,640,l),
(65,160,l),
(20,85,l),
(5,0,l),
(215,0,l),
(200,85,l),
(155,160,l),
(155,673,l),
(321,673,o),
(410,629,o),
(410,546,cs)
);
}
);
};
layerId = m004;
shapes = (
{
closed = 1;
nodes = (
(425,432,o),
(349,370,o),
(235,352,c),
(248,295,l),
(434,340,o),
(532,466,o),
(532,582,cs),
(532,700,o),
(429,808,o),
(210,808,cs),
(119,808,o),
(70,806,o),
(20,800,c),
(35,715,l),
(80,640,l),
(80,160,l),
(35,85,l),
(20,0,l),
(230,0,l),
(215,85,l),
(170,160,l),
(170,673,l),
(377,666,o),
(425,597,o),
(425,506,cs)
);
}
);
width = 522;
}
);
metricLeft = "=E";
unicode = 80;
},
{
glyphname = Thorn;
kernLeft = H;
kernRight = Thorn;
lastChange = "2023-10-30 09:51:16 +0000";
layers = (
{
anchors = (
{
name = bottom;
pos = (150,0);
},
{
name = top;
pos = (150,800);
}
);
guides = (
{
angle = 270;
pos = (105,400);
}
);
layerId = m01;
shapes = (
{
closed = 1;
nodes = (
(284,173,l),
(470,242,o),
(545,342,o),
(545,412,cs),
(545,537,o),
(444,618,o),
(235,618,cs),
(179,618,o),
(139,617,o),
(105,615,c),
(105,483,l),
(195,483,l),
(394,477,o),
(440,421,o),
(440,366,cs),
(440,332,o),
(409,273,o),
(264,237,c)
);
},
{
closed = 1;
nodes = (
(195,640,l),
(240,715,l),
(255,800,l),
(45,800,l),
(60,715,l),
(105,640,l),
(105,160,l),
(60,85,l),
(45,0,l),
(255,0,l),
(240,85,l),
(195,160,l)
);
}
);
width = 583;
},
{
anchors = (
{
name = bottom;
pos = (150,0);
},
{
name = top;
pos = (150,800);
}
);
layerId = m003;
shapes = (
{
closed = 1;
nodes = (
(284,173,l),
(470,242,o),
(545,342,o),
(545,412,cs),
(545,537,o),
(444,618,o),
(235,618,cs),
(179,618,o),
(139,617,o),
(105,615,c),
(105,483,l),
(195,483,l),
(394,477,o),
(440,421,o),
(440,366,cs),
(440,332,o),
(409,273,o),
(264,237,c)
);
},
{
closed = 1;
nodes = (
(195,640,l),
(240,715,l),
(255,800,l),
(45,800,l),
(60,715,l),
(105,640,l),
(105,160,l),
(60,85,l),
(45,0,l),
(255,0,l),
(240,85,l),
(195,160,l)
);
}
);
width = 583;
},
{
anchors = (
{
name = bottom;
pos = (150,0);
},
{
name = top;
pos = (150,800);
}
);
layerId = m005;
shapes = (
{
closed = 1;
nodes = (
(284,173,l),
(470,242,o),
(545,342,o),
(545,412,cs),
(545,537,o),
(444,618,o),
(235,618,cs),
(179,618,o),
(139,617,o),
(105,615,c),
(105,483,l),
(195,483,l),
(394,477,o),
(440,421,o),
(440,366,cs),
(440,332,o),
(409,273,o),
(264,237,c)
);
},
{
closed = 1;
nodes = (
(195,640,l),
(240,715,l),
(255,800,l),
(45,800,l),
(60,715,l),
(105,640,l),
(105,160,l),
(60,85,l),
(45,0,l),
(255,0,l),
(240,85,l),
(195,160,l)
);
}
);
width = 583;
},
{
anchors = (
{
name = bottom;
pos = (125,0);
},
{
name = top;
pos = (125,800);
}
);
guides = (
{
angle = 270;
pos = (80,400);
}
);
layerId = m004;
shapes = (
{
closed = 1;
nodes = (
(259,173,l),
(445,242,o),
(520,342,o),
(520,412,cs),
(520,537,o),
(419,618,o),
(210,618,cs),
(154,618,o),
(114,617,o),
(80,615,c),
(80,483,l),
(170,483,l),
(369,477,o),
(415,421,o),
(415,366,cs),
(415,332,o),
(384,273,o),
(239,237,c)
);
},
{
closed = 1;
nodes = (
(170,640,l),
(215,715,l),
(230,800,l),
(20,800,l),
(35,715,l),
(80,640,l),
(80,160,l),
(35,85,l),
(20,0,l),
(230,0,l),
(215,85,l),
(170,160,l)
);
}
);
width = 530;
}
);
metricLeft = "=H";
metricRight = "=O";
unicode = 222;
},
{
glyphname = Q;
kernLeft = O;
kernRight = O;
lastChange = "2023-11-08 11:38:09 +0000";
layers = (
{
anchors = (
{
name = bottom;
pos = (380,0);
},
{
name = top;
pos = (380,800);
}
);
guides = (
{
angle = 45;
pos = (530,168);
}
);
layerId = m01;
shapes = (
{
closed = 1;
nodes = (
(550,112,ls),
(637,199,o),
(722,364,o),
(722,512,cs),
(722,670,o),
(625,808,o),
(330,808,c),
(210,688,ls),
(123,601,o),
(38,436,o),
(38,288,cs),
(38,130,o),
(135,-8,o),
(430,-8,c)
);
},
{
closed = 1;
nodes = (
(216,138,o),
(124,265,o),
(124,396,cs),
(124,487,o),
(174,576,o),
(230,632,cs),
(260,662,l),
(544,662,o),
(636,535,o),
(636,404,cs),
(636,313,o),
(586,224,o),
(530,168,cs),
(500,138,l)
);
},
{
closed = 1;
nodes = (
(263,-254,o),
(348,-239,o),
(425,-239,cs),
(474,-239,o),
(519,-245,o),
(556,-260,c),
(671,-98,l),
(607,-78,o),
(532,-71,o),
(464,-71,cs),
(438,-71,o),
(400,-72,o),
(362,-76,c),
(440,2,l),
(427,65,l),
(141,-221,l),
(194,-272,l)
);
}
);
width = 760;
},
{
anchors = (
{
name = bottom;
pos = (380,0);
},
{
name = top;
pos = (380,800);
}
);
layerId = m003;
shapes = (
{
closed = 1;
nodes = (
(550,112,ls),
(637,199,o),
(722,364,o),
(722,512,cs),
(722,670,o),
(625,808,o),
(330,808,c),
(210,688,ls),
(123,601,o),
(38,436,o),
(38,288,cs),
(38,130,o),
(135,-8,o),
(430,-8,c)
);
},
{
closed = 1;
nodes = (
(216,138,o),
(124,265,o),
(124,396,cs),
(124,487,o),
(174,576,o),
(230,632,cs),
(260,662,l),
(544,662,o),
(636,535,o),
(636,404,cs),
(636,313,o),
(586,224,o),
(530,168,cs),
(500,138,l)
);
},
{
closed = 1;
nodes = (
(263,-254,o),
(348,-239,o),
(425,-239,cs),
(474,-239,o),
(519,-245,o),
(556,-260,c),
(671,-98,l),
(607,-78,o),
(532,-71,o),
(464,-71,cs),
(438,-71,o),
(400,-72,o),
(362,-76,c),
(440,2,l),
(427,65,l),
(141,-221,l),
(194,-272,l)
);
}
);
width = 760;
},
{
anchors = (
{
name = bottom;
pos = (380,0);
},
{
name = top;
pos = (380,800);
}
);
layerId = m005;
shapes = (
{
closed = 1;
nodes = (
(550,112,ls),
(637,199,o),
(722,364,o),
(722,512,cs),
(722,670,o),
(625,808,o),
(330,808,c),
(210,688,ls),
(123,601,o),
(38,436,o),
(38,288,cs),
(38,130,o),
(135,-8,o),
(430,-8,c)
);
},
{
closed = 1;
nodes = (
(216,138,o),
(124,265,o),
(124,396,cs),
(124,487,o),
(174,576,o),
(230,632,cs),
(260,662,l),
(544,662,o),
(636,535,o),
(636,404,cs),
(636,313,o),
(586,224,o),
(530,168,cs),
(500,138,l)
);
},
{
closed = 1;
nodes = (
(263,-254,o),
(348,-239,o),
(425,-239,cs),
(474,-239,o),
(519,-245,o),
(556,-260,c),
(671,-98,l),
(607,-78,o),
(532,-71,o),
(464,-71,cs),
(438,-71,o),
(400,-72,o),
(362,-76,c),
(440,2,l),
(427,65,l),
(141,-221,l),
(194,-272,l)
);
}
);
width = 760;
},
{
anchors = (
{
name = bottom;
pos = (352,0);
},
{
name = top;
pos = (352,800);
}
);
guides = (
{
angle = 45;
pos = (502,168);
}
);
layerId = m004;
shapes = (
{
closed = 1;
nodes = (
(522,112,ls),
(609,199,o),
(694,364,o),
(694,512,cs),
(694,670,o),
(597,808,o),
(302,808,c),
(182,688,ls),
(95,601,o),
(10,436,o),
(10,288,cs),
(10,130,o),
(107,-8,o),
(402,-8,c)
);
},
{
closed = 1;
nodes = (
(188,138,o),
(96,265,o),
(96,396,cs),
(96,487,o),
(146,576,o),
(202,632,cs),
(232,662,l),
(516,662,o),
(608,535,o),
(608,404,cs),
(608,313,o),
(558,224,o),
(502,168,cs),
(472,138,l)
);
},
{
closed = 1;
nodes = (
(235,-254,o),
(320,-239,o),
(397,-239,cs),
(446,-239,o),
(491,-245,o),
(528,-260,c),
(643,-98,l),
(579,-78,o),
(504,-71,o),
(436,-71,cs),
(410,-71,o),
(372,-72,o),
(334,-76,c),
(412,2,l),
(399,65,l),
(113,-221,l),
(166,-272,l)
);
}
);
width = 704;
}
);
metricLeft = "=O";
metricRight = "=O";
unicode = 81;
},
{
color = 4;
glyphname = R;
kernLeft = H;
kernRight = R;
lastChange = "2023-10-30 09:52:10 +0000";
layers = (
{
anchors = (
{
name = bottom;
pos = (345,0);
},
{
name = top;
pos = (315,800);
}
);
background = {
shapes = (
{
closed = 1;
nodes = (
(450,511,o),
(418,461,o),
(253,368,c),
(275,315,l),
(285,321,l),
(353,186,o),
(449,55,o),
(518,0,c),
(710,0,l),
(602,72,o),
(456,266,o),
(381,419,c),
(354,365,l),
(496,459,o),
(555,539,o),
(555,602,cs),
(555,736,o),
(441,808,o),
(235,808,cs),
(144,808,o),
(95,806,o),
(45,800,c),
(60,715,l),
(105,640,l),
(105,160,l),
(60,85,l),
(45,0,l),
(255,0,l),
(240,85,l),
(195,160,l),
(195,673,l),
(361,673,o),
(450,629,o),
(450,546,cs)
);
}
);
};
layerId = m01;
shapes = (
{
closed = 1;
nodes = (
(450,511,o),
(407,454,o),
(250,366,c),
(295,260,o),
(394,81,o),
(481,0,c),
(650,0,l),
(555,72,o),
(424,260,o),
(371,413,c),
(354,365,l),
(496,459,o),
(555,539,o),
(555,602,cs),
(555,736,o),
(441,808,o),
(235,808,cs),
(144,808,o),
(95,806,o),
(45,800,c),
(60,715,l),
(105,640,l),
(105,160,l),
(60,85,l),
(45,0,l),
(255,0,l),
(240,85,l),
(195,160,l),
(195,673,l),
(361,673,o),
(450,629,o),
(450,546,cs)
);
}
);
width = 630;
},
{
anchors = (
{
name = bottom;
pos = (345,0);
},
{
name = top;
pos = (315,800);
}
);
background = {
shapes = (
{
closed = 1;
nodes = (
(450,511,o),
(418,461,o),
(253,368,c),
(275,315,l),
(285,321,l),
(353,186,o),
(449,55,o),
(518,0,c),
(710,0,l),
(602,72,o),
(456,266,o),
(381,419,c),
(354,365,l),
(496,459,o),
(555,539,o),
(555,602,cs),
(555,736,o),
(441,808,o),
(235,808,cs),
(144,808,o),
(95,806,o),
(45,800,c),
(60,715,l),
(105,640,l),
(105,160,l),
(60,85,l),
(45,0,l),
(255,0,l),
(240,85,l),
(195,160,l),
(195,673,l),
(361,673,o),
(450,629,o),
(450,546,cs)
);
}
);
};
layerId = m003;
shapes = (
{
closed = 1;
nodes = (
(450,511,o),
(407,454,o),
(250,366,c),
(295,260,o),
(394,81,o),
(481,0,c),
(650,0,l),
(555,72,o),
(424,260,o),
(371,413,c),
(354,365,l),
(496,459,o),
(555,539,o),
(555,602,cs),
(555,736,o),
(441,808,o),
(235,808,cs),
(144,808,o),
(95,806,o),
(45,800,c),
(60,715,l),
(105,640,l),
(105,160,l),
(60,85,l),
(45,0,l),
(255,0,l),
(240,85,l),
(195,160,l),
(195,673,l),
(361,673,o),
(450,629,o),
(450,546,cs)
);
}
);
width = 630;
},
{
anchors = (
{
name = bottom;
pos = (345,0);
},
{
name = top;
pos = (315,800);
}
);
background = {
shapes = (
{
closed = 1;
nodes = (
(450,511,o),
(418,461,o),
(253,368,c),
(275,315,l),
(285,321,l),
(353,186,o),
(449,55,o),
(518,0,c),
(710,0,l),
(602,72,o),
(456,266,o),
(381,419,c),
(354,365,l),
(496,459,o),
(555,539,o),
(555,602,cs),
(555,736,o),
(441,808,o),
(235,808,cs),
(144,808,o),
(95,806,o),
(45,800,c),
(60,715,l),
(105,640,l),
(105,160,l),
(60,85,l),
(45,0,l),
(255,0,l),
(240,85,l),
(195,160,l),
(195,673,l),
(361,673,o),
(450,629,o),
(450,546,cs)
);
}
);
};
layerId = m005;
shapes = (
{
closed = 1;
nodes = (
(450,511,o),
(407,454,o),
(250,366,c),
(295,260,o),
(394,81,o),
(481,0,c),
(650,0,l),
(555,72,o),
(424,260,o),
(371,413,c),
(354,365,l),
(496,459,o),
(555,539,o),
(555,602,cs),
(555,736,o),
(441,808,o),
(235,808,cs),
(144,808,o),
(95,806,o),
(45,800,c),
(60,715,l),
(105,640,l),
(105,160,l),
(60,85,l),
(45,0,l),
(255,0,l),
(240,85,l),
(195,160,l),
(195,673,l),
(361,673,o),
(450,629,o),
(450,546,cs)
);
}
);
width = 630;
},
{
anchors = (
{
name = bottom;
pos = (372,0);
},
{
name = top;
pos = (342,800);
}
);
background = {
shapes = (
{
closed = 1;
nodes = (
(450,511,o),
(418,461,o),
(253,368,c),
(275,315,l),
(285,321,l),
(353,186,o),
(449,55,o),
(518,0,c),
(710,0,l),
(602,72,o),
(456,266,o),
(381,419,c),
(354,365,l),
(496,459,o),
(555,539,o),
(555,602,cs),
(555,736,o),
(441,808,o),
(235,808,cs),
(144,808,o),
(95,806,o),
(45,800,c),
(60,715,l),
(105,640,l),
(105,160,l),
(60,85,l),
(45,0,l),
(255,0,l),
(240,85,l),
(195,160,l),
(195,673,l),
(361,673,o),
(450,629,o),
(450,546,cs)
);
}
);
};
layerId = m004;
shapes = (
{
closed = 1;
nodes = (
(407,444,o),
(355,406,o),
(277,383,c),
(308,274,o),
(377,83,o),
(438,0,c),
(677,0,l),
(604,75,o),
(503,272,o),
(463,433,c),
(381,325,l),
(523,402,o),
(582,485,o),
(582,572,cs),
(582,769,o),
(389,812,o),
(208,812,cs),
(140,812,o),
(74,807,o),
(20,800,c),
(48,641,l),
(132,500,l),
(132,300,l),
(48,159,l),
(20,0,l),
(335,0,l),
(306,159,l),
(222,300,l),
(222,543,l),
(333,543,o),
(407,517,o),
(407,479,cs)
);
}
);
width = 657;
}
);
metricLeft = "=H";
unicode = 82;
},
{
glyphname = S;
kernLeft = S;
kernRight = S;
lastChange = "2023-11-09 09:52:58 +0000";
layers = (
{
anchors = (
{
name = bottom;
pos = (295,0);
},
{
name = top;
pos = (295,800);
}
);
background = {
shapes = (
{
closed = 1;
nodes = (
(560,487,o),
(159,417,o),
(152,611,c),
(161,620,o),
(170,629,o),
(180,638,c),
(348,638,o),
(458,615,o),
(520,563,c),
(520,746,l),
(450,789,o),
(365,808,o),
(265,808,c),
(217,760,o),
(168,713,o),
(120,665,cs),
(106,650,o),
(79,620,o),
(65,600,c),
(65,343,o),
(469,411,o),
(469,262,cs),
(469,238,o),
(455,219,o),
(426,192,cs),
(416,181,o),
(404,172,o),
(393,162,c),
(272,162,o),
(181,185,o),
(112,207,c),
(95,248,o),
(79,290,o),
(62,331,c),
(30,331,l),
(30,89,l),
(104,20,o),
(223,-8,o),
(324,-8,c),
(381,49,o),
(439,105,o),
(496,162,cs),
(527,192,o),
(560,220,o),
(560,266,cs)
);
}
);
};
layerId = m01;
shapes = (
{
closed = 1;
nodes = (
(550,497,o),
(149,409,o),
(142,613,c),
(180,650,l),
(348,650,o),
(458,633,o),
(520,595,c),
(520,766,l),
(450,795,o),
(365,808,o),
(265,808,c),
(120,665,l),
(106,650,o),
(79,620,o),
(65,600,c),
(65,343,o),
(481,431,o),
(481,272,cs),
(481,248,o),
(464,207,o),
(435,180,c),
(392,140,l),
(273,140,o),
(184,163,o),
(116,195,c),
(70,311,l),
(38,311,l),
(38,81,l),
(110,18,o),
(226,-8,o),
(324,-8,c),
(471,137,ls),
(527,192,o),
(550,230,o),
(550,286,cs)
);
}
);
width = 590;
},
{
anchors = (
{
name = bottom;
pos = (295,0);
},
{
name = top;
pos = (295,800);
}
);
layerId = m003;
shapes = (
{
closed = 1;
nodes = (
(550,497,o),
(149,409,o),
(142,613,c),
(180,650,l),
(348,650,o),
(458,633,o),
(520,595,c),
(520,766,l),
(450,795,o),
(365,808,o),
(265,808,c),
(120,665,l),
(106,650,o),
(79,620,o),
(65,600,c),
(65,343,o),
(481,431,o),
(481,272,cs),
(481,248,o),
(464,207,o),
(435,180,c),
(392,140,l),
(273,140,o),
(184,163,o),
(116,195,c),
(70,311,l),
(38,311,l),
(38,81,l),
(110,18,o),
(226,-8,o),
(324,-8,c),
(471,137,ls),
(527,192,o),
(550,230,o),
(550,286,cs)
);
}
);
width = 590;
},
{
anchors = (
{
name = bottom;
pos = (295,0);
},
{
name = top;
pos = (295,800);
}
);
layerId = m005;
shapes = (
{
closed = 1;
nodes = (
(550,497,o),
(149,409,o),
(142,613,c),
(180,650,l),
(348,650,o),
(458,633,o),
(520,595,c),
(520,766,l),
(450,795,o),
(365,808,o),
(265,808,c),
(120,665,l),
(106,650,o),
(79,620,o),
(65,600,c),
(65,343,o),
(481,431,o),
(481,272,cs),
(481,248,o),
(464,207,o),
(435,180,c),
(392,140,l),
(273,140,o),
(184,163,o),
(116,195,c),
(70,311,l),
(38,311,l),
(38,81,l),
(110,18,o),
(226,-8,o),
(324,-8,c),
(471,137,ls),
(527,192,o),
(550,230,o),
(550,286,cs)
);
}
);
width = 590;
},
{
anchors = (
{
name = bottom;
pos = (267,0);
},
{
name = top;
pos = (267,800);
}
);
background = {
shapes = (
{
closed = 1;
nodes = (
(560,487,o),
(159,417,o),
(152,611,c),
(161,620,o),
(170,629,o),
(180,638,c),
(348,638,o),
(458,615,o),
(520,563,c),
(520,746,l),
(450,789,o),
(365,808,o),
(265,808,c),
(217,760,o),
(168,713,o),
(120,665,cs),
(106,650,o),
(79,620,o),
(65,600,c),
(65,343,o),
(469,411,o),
(469,262,cs),
(469,238,o),
(455,219,o),
(426,192,cs),
(416,181,o),
(404,172,o),
(393,162,c),
(272,162,o),
(181,185,o),
(112,207,c),
(95,248,o),
(79,290,o),
(62,331,c),
(30,331,l),
(30,89,l),
(104,20,o),
(223,-8,o),
(324,-8,c),
(381,49,o),
(439,105,o),
(496,162,cs),
(527,192,o),
(560,220,o),
(560,266,cs)
);
}
);
};
layerId = m004;
shapes = (
{
closed = 1;
nodes = (
(522,507,o),
(153,360,o),
(146,514,c),
(162,530,l),
(330,530,o),
(430,513,o),
(492,475,c),
(492,766,l),
(422,795,o),
(337,808,o),
(237,808,c),
(92,665,l),
(78,650,o),
(51,620,o),
(37,600,c),
(37,249,o),
(403,408,o),
(403,312,cs),
(403,304,o),
(393,289,o),
(374,270,cs),
(364,260,l),
(225,260,o),
(124,283,o),
(56,315,c),
(42,325,l),
(10,325,l),
(10,81,l),
(82,18,o),
(198,-8,o),
(296,-8,c),
(428,122,ls),
(499,192,o),
(522,230,o),
(522,286,cs)
);
}
);
width = 533;
}
);
metricLeft = "=O";
metricRight = "=O*1.05";
unicode = 83;
},
{
glyphname = Saltillo;
lastChange = "2022-12-16 12:17:19 +0000";
layers = (
{
layerId = m01;
shapes = (
{
closed = 1;
nodes = (
(38,808,l),
(45,476,l),
(68,389,l),
(114,389,l),
(137,476,l),
(144,808,l)
);
}
);
width = 182;
},
{
layerId = m003;
shapes = (
{
closed = 1;
nodes = (
(38,808,l),
(45,476,l),
(68,389,l),
(114,389,l),
(137,476,l),
(144,808,l)
);
}
);
width = 182;
},
{
layerId = m005;
shapes = (
{
closed = 1;
nodes = (
(38,808,l),
(45,476,l),
(68,389,l),
(114,389,l),
(137,476,l),
(144,808,l)
);
}
);
width = 182;
},
{
layerId = m004;
shapes = (
{
closed = 1;
nodes = (
(10,808,l),
(17,476,l),
(40,389,l),
(86,389,l),
(109,476,l),
(116,808,l)
);
}
);
width = 126;
}
);
metricLeft = "=O";
metricRight = "=O";
unicode = 42891;
},
{
glyphname = Germandbls;
lastChange = "2025-01-06 17:19:12 +0000";
layers = (
{
anchors = (
{
name = bottom;
pos = (392,0);
},
{
name = top;
pos = (392,800);
}
);
background = {
shapes = (
{
closed = 1;
nodes = (
(110,610,l),
(110,160,l),
(60,85,l),
(45,0,l),
(200,0,l),
(200,670,l)
);
},
{
closed = 1;
nodes = (
(45,460,l),
(145,460,l),
(175,600,l),
(75,600,l)
);
},
{
closed = 1;
nodes = (
(274,868,l),
(184,778,ls),
(121,715,o),
(110,681,o),
(110,610,c),
(200,670,l),
(200,681,o),
(205,693,o),
(217,706,cs),
(253,743,l)
);
},
{
closed = 1;
nodes = (
(666,748,l),
(666,800,l),
(558,847,o),
(428,868,o),
(274,868,c),
(189,710,l),
(344,710,o),
(463,699,o),
(551,676,c)
);
},
{
closed = 1;
nodes = (
(329,434,l),
(537,434,o),
(692,381,o),
(692,292,cs),
(692,256,o),
(679,215,o),
(630,169,cs),
(599,140,l),
(480,140,o),
(381,163,o),
(307,195,c),
(307,39,l),
(370,6,o),
(458,-8,o),
(531,-8,c),
(655,114,ls),
(728,186,o),
(757,266,o),
(757,340,cs),
(757,486,o),
(648,571,o),
(430,571,c),
(390,472,l),
(666,748,l),
(631,781,l),
(320,470,l)
);
}
);
};
layerId = m01;
shapes = (
{
closed = 1;
nodes = (
(110,530,l),
(110,160,l),
(60,85,l),
(45,0,l),
(200,0,l),
(200,610,l)
);
},
{
closed = 1;
nodes = (
(274,808,l),
(184,718,ls),
(117,651,o),
(110,609,o),
(110,530,c),
(200,610,l),
(200,621,o),
(205,633,o),
(217,646,cs),
(253,683,l)
);
},
{
closed = 1;
nodes = (
(676,688,l),
(676,735,l),
(568,782,o),
(428,808,o),
(274,808,c),
(189,650,l),
(344,650,o),
(463,639,o),
(551,616,c)
);
},
{
closed = 1;
nodes = (
(339,384,l),
(533,384,o),
(652,317,o),
(652,232,cs),
(652,211,o),
(635,182,o),
(610,159,cs),
(589,140,l),
(470,140,o),
(370,163,o),
(296,195,c),
(296,39,l),
(359,6,o),
(448,-8,o),
(521,-8,c),
(635,104,ls),
(695,163,o),
(727,235,o),
(727,310,cs),
(727,431,o),
(618,521,o),
(440,521,c),
(410,422,l),
(676,688,l),
(631,721,l),
(330,420,l)
);
}
);
width = 767;
},
{
anchors = (
{
name = bottom;
pos = (392,0);
},
{
name = top;
pos = (392,800);
}
);
layerId = m003;
shapes = (
{
closed = 1;
nodes = (
(110,550,l),
(110,160,l),
(60,85,l),
(45,0,l),
(200,0,l),
(200,610,l)
);
},
{
closed = 1;
nodes = (
(274,808,l),
(184,718,ls),
(121,655,o),
(110,621,o),
(110,550,c),
(200,610,l),
(200,621,o),
(205,633,o),
(217,646,cs),
(253,683,l)
);
},
{
closed = 1;
nodes = (
(676,688,l),
(676,735,l),
(568,782,o),
(428,808,o),
(274,808,c),
(189,650,l),
(344,650,o),
(463,639,o),
(551,616,c)
);
},
{
closed = 1;
nodes = (
(339,384,l),
(533,384,o),
(652,317,o),
(652,232,cs),
(652,211,o),
(635,182,o),
(610,159,cs),
(589,140,l),
(470,140,o),
(370,163,o),
(296,195,c),
(296,39,l),
(359,6,o),
(448,-8,o),
(521,-8,c),
(635,104,ls),
(695,163,o),
(727,235,o),
(727,310,cs),
(727,431,o),
(618,521,o),
(440,521,c),
(410,422,l),
(676,688,l),
(631,721,l),
(330,420,l)
);
}
);
width = 767;
},
{
anchors = (
{
name = bottom;
pos = (392,0);
},
{
name = top;
pos = (392,800);
}
);
layerId = m005;
shapes = (
{
closed = 1;
nodes = (
(110,550,l),
(110,160,l),
(60,85,l),
(45,0,l),
(200,0,l),
(200,610,l)
);
},
{
closed = 1;
nodes = (
(274,808,l),
(184,718,ls),
(121,655,o),
(110,621,o),
(110,550,c),
(200,610,l),
(200,621,o),
(205,633,o),
(217,646,cs),
(253,683,l)
);
},
{
closed = 1;
nodes = (
(676,688,l),
(676,735,l),
(568,782,o),
(428,808,o),
(274,808,c),
(189,650,l),
(344,650,o),
(463,639,o),
(551,616,c)
);
},
{
closed = 1;
nodes = (
(339,384,l),
(533,384,o),
(652,317,o),
(652,232,cs),
(652,211,o),
(635,182,o),
(610,159,cs),
(589,140,l),
(470,140,o),
(370,163,o),
(296,195,c),
(296,39,l),
(359,6,o),
(448,-8,o),
(521,-8,c),
(635,104,ls),
(695,163,o),
(727,235,o),
(727,310,cs),
(727,431,o),
(618,521,o),
(440,521,c),
(410,422,l),
(676,688,l),
(631,721,l),
(330,420,l)
);
}
);
width = 767;
},
{
anchors = (
{
name = bottom;
pos = (367,0);
},
{
name = top;
pos = (367,800);
}
);
background = {
shapes = (
{
closed = 1;
nodes = (
(85,610,l),
(85,160,l),
(35,85,l),
(20,0,l),
(175,0,l),
(175,670,l)
);
},
{
closed = 1;
nodes = (
(20,460,l),
(120,460,l),
(150,600,l),
(50,600,l)
);
},
{
closed = 1;
nodes = (
(249,868,l),
(159,778,ls),
(96,715,o),
(85,681,o),
(85,610,c),
(175,670,l),
(175,681,o),
(180,693,o),
(192,706,cs),
(228,743,l)
);
},
{
closed = 1;
nodes = (
(641,748,l),
(641,800,l),
(533,847,o),
(403,868,o),
(249,868,c),
(164,710,l),
(319,710,o),
(438,699,o),
(526,676,c)
);
},
{
closed = 1;
nodes = (
(304,434,l),
(512,434,o),
(667,381,o),
(667,292,cs),
(667,256,o),
(654,215,o),
(605,169,cs),
(574,140,l),
(455,140,o),
(356,163,o),
(282,195,c),
(282,39,l),
(345,6,o),
(433,-8,o),
(506,-8,c),
(630,114,ls),
(703,186,o),
(732,266,o),
(732,340,cs),
(732,486,o),
(623,571,o),
(405,571,c),
(365,472,l),
(641,748,l),
(606,781,l),
(295,470,l)
);
}
);
};
layerId = m004;
shapes = (
{
closed = 1;
nodes = (
(85,530,l),
(85,160,l),
(35,85,l),
(20,0,l),
(175,0,l),
(175,610,l)
);
},
{
closed = 1;
nodes = (
(249,808,l),
(159,718,ls),
(92,651,o),
(85,609,o),
(85,530,c),
(175,610,l),
(175,621,o),
(180,633,o),
(192,646,cs),
(228,683,l)
);
},
{
closed = 1;
nodes = (
(651,688,l),
(651,735,l),
(543,782,o),
(403,808,o),
(249,808,c),
(164,650,l),
(319,650,o),
(438,639,o),
(526,616,c)
);
},
{
closed = 1;
nodes = (
(314,384,l),
(508,384,o),
(627,317,o),
(627,232,cs),
(627,211,o),
(610,182,o),
(585,159,cs),
(564,140,l),
(445,140,o),
(345,163,o),
(271,195,c),
(271,39,l),
(334,6,o),
(423,-8,o),
(496,-8,c),
(610,104,ls),
(670,163,o),
(702,235,o),
(702,310,cs),
(702,431,o),
(593,521,o),
(415,521,c),
(385,422,l),
(651,688,l),
(606,721,l),
(305,420,l)
);
}
);
width = 713;
}
);
metricLeft = "=H";
metricRight = "=S";
unicode = 7838;
},
{
glyphname = T;
kernLeft = T;
kernRight = T;
lastChange = "2024-06-21 13:20:10 +0000";
layers = (
{
anchors = (
{
name = bottom;
pos = (320,0);
},
{
name = center;
pos = (320,400);
},
{
name = top;
pos = (320,800);
}
);
layerId = m01;
shapes = (
{
closed = 1;
nodes = (
(230,715,l),
(275,640,l),
(275,160,l),
(230,85,l),
(215,0,l),
(425,0,l),
(410,85,l),
(365,160,l),
(365,640,l),
(410,715,l),
(425,800,l),
(215,800,l)
);
},
{
closed = 1;
nodes = (
(575,680,l),
(575,800,l),
(65,800,l),
(65,680,l)
);
},
{
closed = 1;
nodes = (
(525,635,l),
(610,620,l),
(610,800,l),
(450,800,l),
(450,680,l)
);
},
{
closed = 1;
nodes = (
(190,800,l),
(30,800,l),
(30,620,l),
(115,635,l),
(190,680,l)
);
}
);
width = 640;
},
{
anchors = (
{
name = bottom;
pos = (320,0);
},
{
name = center;
pos = (320,400);
},
{
name = top;
pos = (320,800);
}
);
layerId = m003;
shapes = (
{
closed = 1;
nodes = (
(230,715,l),
(275,640,l),
(275,160,l),
(230,85,l),
(215,0,l),
(425,0,l),
(410,85,l),
(365,160,l),
(365,640,l),
(410,715,l),
(425,800,l),
(215,800,l)
);
},
{
closed = 1;
nodes = (
(575,680,l),
(575,800,l),
(65,800,l),
(65,680,l)
);
},
{
closed = 1;
nodes = (
(525,635,l),
(610,620,l),
(610,800,l),
(450,800,l),
(450,680,l)
);
},
{
closed = 1;
nodes = (
(190,800,l),
(30,800,l),
(30,620,l),
(115,635,l),
(190,680,l)
);
}
);
width = 640;
},
{
anchors = (
{
name = bottom;
pos = (320,0);
},
{
name = center;
pos = (320,400);
},
{
name = top;
pos = (320,800);
}
);
layerId = m005;
shapes = (
{
closed = 1;
nodes = (
(230,715,l),
(275,640,l),
(275,160,l),
(230,85,l),
(215,0,l),
(425,0,l),
(410,85,l),
(365,160,l),
(365,640,l),
(410,715,l),
(425,800,l),
(215,800,l)
);
},
{
closed = 1;
nodes = (
(575,680,l),
(575,800,l),
(65,800,l),
(65,680,l)
);
},
{
closed = 1;
nodes = (
(525,635,l),
(610,620,l),
(610,800,l),
(450,800,l),
(450,680,l)
);
},
{
closed = 1;
nodes = (
(190,800,l),
(30,800,l),
(30,620,l),
(115,635,l),
(190,680,l)
);
}
);
width = 640;
},
{
anchors = (
{
name = bottom;
pos = (320,0);
},
{
name = center;
pos = (320,400);
},
{
name = top;
pos = (320,800);
}
);
layerId = m004;
shapes = (
{
closed = 1;
nodes = (
(181,641,l),
(265,500,l),
(265,300,l),
(181,159,l),
(153,0,l),
(488,0,l),
(459,159,l),
(375,300,l),
(375,500,l),
(459,641,l),
(488,800,l),
(153,800,l)
);
},
{
closed = 1;
nodes = (
(575,564,l),
(575,800,l),
(65,800,l),
(65,564,l)
);
},
{
closed = 1;
nodes = (
(451,556,l),
(610,528,l),
(610,800,l),
(450,800,l),
(310,640,l)
);
},
{
closed = 1;
nodes = (
(190,800,l),
(30,800,l),
(30,528,l),
(189,556,l),
(330,640,l)
);
}
);
width = 640;
}
);
metricLeft = "=|L";
metricRight = L;
unicode = 84;
},
{
glyphname = U;
kernLeft = U;
kernRight = U;
lastChange = "2024-06-19 16:00:34 +0000";
layers = (
{
anchors = (
{
name = bottom;
pos = (360,0);
},
{
name = ogonek;
pos = (495,-8);
},
{
name = top;
pos = (360,800);
},
{
name = topright;
pos = (700,800);
}
);
background = {
shapes = (
{
closed = 1;
nodes = (
(655,0,l),
(640,85,l),
(595,160,l),
(595,640,l),
(640,715,l),
(655,800,l),
(445,800,l),
(460,715,l),
(505,640,l),
(505,160,l),
(460,85,l),
(445,0,l)
);
},
{
closed = 1;
nodes = (
(255,0,l),
(240,85,l),
(195,160,l),
(195,640,l),
(240,715,l),
(255,800,l),
(45,800,l),
(60,715,l),
(105,640,l),
(105,160,l),
(60,85,l),
(45,0,l)
);
}
);
};
layerId = m01;
shapes = (
{
closed = 1;
nodes = (
(105,288,l),
(105,91,o),
(160,-8,o),
(495,-8,c),
(615,112,l),
(595,168,l),
(565,138,l),
(243,138,o),
(195,207,o),
(195,396,c)
);
},
{
closed = 1;
nodes = (
(195,288,l),
(195,640,l),
(240,715,l),
(255,800,l),
(45,800,l),
(60,715,l),
(105,640,l),
(105,288,l)
);
},
{
closed = 1;
nodes = (
(615,112,l),
(615,640,l),
(660,715,l),
(675,800,l),
(465,800,l),
(480,715,l),
(525,640,l),
(525,112,l)
);
}
);
width = 720;
},
{
anchors = (
{
name = bottom;
pos = (360,0);
},
{
name = ogonek;
pos = (495,-8);
},
{
name = top;
pos = (360,800);
},
{
name = topright;
pos = (700,800);
}
);
layerId = m003;
shapes = (
{
closed = 1;
nodes = (
(105,288,l),
(105,91,o),
(160,-8,o),
(495,-8,c),
(615,112,l),
(595,168,l),
(565,138,l),
(243,138,o),
(195,207,o),
(195,396,c)
);
},
{
closed = 1;
nodes = (
(195,288,l),
(195,640,l),
(240,715,l),
(255,800,l),
(45,800,l),
(60,715,l),
(105,640,l),
(105,288,l)
);
},
{
closed = 1;
nodes = (
(615,112,l),
(615,640,l),
(660,715,l),
(675,800,l),
(465,800,l),
(480,715,l),
(525,640,l),
(525,112,l)
);
}
);
width = 720;
},
{
anchors = (
{
name = bottom;
pos = (360,0);
},
{
name = ogonek;
pos = (495,-8);
},
{
name = top;
pos = (360,800);
},
{
name = topright;
pos = (700,800);
}
);
layerId = m005;
shapes = (
{
closed = 1;
nodes = (
(105,288,l),
(105,91,o),
(160,-8,o),
(495,-8,c),
(615,112,l),
(595,168,l),
(565,138,l),
(243,138,o),
(195,207,o),
(195,396,c)
);
},
{
closed = 1;
nodes = (
(195,288,l),
(195,640,l),
(240,715,l),
(255,800,l),
(45,800,l),
(60,715,l),
(105,640,l),
(105,288,l)
);
},
{
closed = 1;
nodes = (
(615,112,l),
(615,640,l),
(660,715,l),
(675,800,l),
(465,800,l),
(480,715,l),
(525,640,l),
(525,112,l)
);
}
);
width = 720;
},
{
anchors = (
{
name = bottom;
pos = (335,0);
},
{
name = ogonek;
pos = (470,-8);
},
{
name = top;
pos = (335,800);
},
{
name = topright;
pos = (675,800);
}
);
background = {
shapes = (
{
closed = 1;
nodes = (
(630,0,l),
(615,85,l),
(570,160,l),
(570,640,l),
(615,715,l),
(630,800,l),
(420,800,l),
(435,715,l),
(480,640,l),
(480,160,l),
(435,85,l),
(420,0,l)
);
},
{
closed = 1;
nodes = (
(230,0,l),
(215,85,l),
(170,160,l),
(170,640,l),
(215,715,l),
(230,800,l),
(20,800,l),
(35,715,l),
(80,640,l),
(80,160,l),
(35,85,l),
(20,0,l)
);
}
);
};
layerId = m004;
shapes = (
{
closed = 1;
nodes = (
(80,288,l),
(80,130,o),
(175,-8,o),
(470,-8,c),
(590,112,l),
(570,168,l),
(540,138,l),
(256,138,o),
(170,265,o),
(170,396,c)
);
},
{
closed = 1;
nodes = (
(170,288,l),
(170,640,l),
(215,715,l),
(230,800,l),
(20,800,l),
(35,715,l),
(80,640,l),
(80,288,l)
);
},
{
closed = 1;
nodes = (
(590,112,l),
(590,640,l),
(635,715,l),
(650,800,l),
(440,800,l),
(455,715,l),
(500,640,l),
(500,112,l)
);
}
);
width = 670;
}
);
metricLeft = "=H";
metricRight = "=H";
unicode = 85;
},
{
glyphname = V;
kernLeft = V;
kernRight = V;
lastChange = "2025-01-15 12:10:35 +0000";
layers = (
{
anchors = (
{
name = bottom;
pos = (360,0);
},
{
name = top;
pos = (380,800);
}
);
background = {
shapes = (
{
closed = 1;
nodes = (
(35,810,l),
(310,0,l),
(420,0,l),
(420,76,o),
(597,540,o),
(695,810,c),
(625,810,l),
(362,103,l),
(388,103,l),
(145,810,l)
);
},
{
closed = 1;
nodes = (
(590,575,l),
(695,810,l),
(515,810,l),
(530,725,l)
);
},
{
closed = 1;
nodes = (
(180,575,l),
(240,725,l),
(255,810,l),
(75,810,l)
);
}
);
};
layerId = m01;
shapes = (
{
closed = 1;
nodes = (
(35,800,l),
(310,0,l),
(420,0,l),
(420,76,o),
(597,530,o),
(695,800,c),
(625,800,l),
(362,103,l),
(388,103,l),
(145,800,l)
);
},
{
closed = 1;
nodes = (
(590,565,l),
(695,800,l),
(515,800,l),
(530,715,l)
);
},
{
closed = 1;
nodes = (
(180,565,l),
(240,715,l),
(255,800,l),
(75,800,l)
);
}
);
width = 720;
},
{
anchors = (
{
name = bottom;
pos = (360,0);
},
{
name = top;
pos = (380,800);
}
);
layerId = m003;
shapes = (
{
closed = 1;
nodes = (
(35,800,l),
(310,0,l),
(420,0,l),
(420,76,o),
(597,530,o),
(695,800,c),
(625,800,l),
(362,103,l),
(388,103,l),
(145,800,l)
);
},
{
closed = 1;
nodes = (
(590,565,l),
(695,800,l),
(515,800,l),
(530,715,l)
);
},
{
closed = 1;
nodes = (
(180,565,l),
(240,715,l),
(255,800,l),
(75,800,l)
);
}
);
width = 720;
},
{
anchors = (
{
name = bottom;
pos = (360,0);
},
{
name = top;
pos = (380,800);
}
);
layerId = m005;
shapes = (
{
closed = 1;
nodes = (
(35,800,l),
(310,0,l),
(420,0,l),
(420,76,o),
(597,530,o),
(695,800,c),
(625,800,l),
(362,103,l),
(388,103,l),
(145,800,l)
);
},
{
closed = 1;
nodes = (
(590,565,l),
(695,800,l),
(515,800,l),
(530,715,l)
);
},
{
closed = 1;
nodes = (
(180,565,l),
(240,715,l),
(255,800,l),
(75,800,l)
);
}
);
width = 720;
},
{
anchors = (
{
name = bottom;
pos = (345,0);
},
{
name = top;
pos = (365,800);
}
);
background = {
shapes = (
{
closed = 1;
nodes = (
(20,810,l),
(295,0,l),
(405,0,l),
(405,76,o),
(582,540,o),
(680,810,c),
(610,810,l),
(347,103,l),
(373,103,l),
(130,810,l)
);
},
{
closed = 1;
nodes = (
(575,575,l),
(680,810,l),
(500,810,l),
(515,725,l)
);
},
{
closed = 1;
nodes = (
(165,575,l),
(225,725,l),
(240,810,l),
(60,810,l)
);
}
);
};
layerId = m004;
shapes = (
{
closed = 1;
nodes = (
(20,800,l),
(295,0,l),
(405,0,l),
(405,76,o),
(582,530,o),
(680,800,c),
(610,800,l),
(347,103,l),
(373,103,l),
(130,800,l)
);
},
{
closed = 1;
nodes = (
(575,565,l),
(680,800,l),
(500,800,l),
(515,715,l)
);
},
{
closed = 1;
nodes = (
(165,565,l),
(225,715,l),
(240,800,l),
(60,800,l)
);
}
);
width = 700;
}
);
metricLeft = "=A";
metricRight = "=A";
unicode = 86;
},
{
glyphname = W;
kernLeft = V;
kernRight = V;
lastChange = "2023-11-09 14:19:26 +0000";
layers = (
{
anchors = (
{
name = bottom;
pos = (550,0);
},
{
name = top;
pos = (550,800);
}
);
guides = (
{
angle = -70.9876;
pos = (618,267);
}
);
layerId = m01;
shapes = (
{
closed = 1;
nodes = (
(35,800,l),
(310,0,l),
(420,0,l),
(420,76,o),
(557,530,o),
(645,800,c),
(575,800,l),
(362,103,l),
(388,103,l),
(145,800,l)
);
},
{
closed = 1;
nodes = (
(180,565,l),
(240,715,l),
(255,800,l),
(75,800,l)
);
},
{
closed = 1;
nodes = (
(970,565,l),
(1075,800,l),
(895,800,l),
(910,715,l)
);
},
{
closed = 1;
nodes = (
(505,640,l),
(690,0,l),
(800,0,l),
(800,76,o),
(969,530,o),
(1075,800,c),
(1000,800,l),
(737,103,l),
(761,103,l),
(595,640,l)
);
},
{
closed = 1;
nodes = (
(595,640,l),
(640,715,l),
(655,800,l),
(445,800,l),
(460,715,l),
(505,640,l)
);
}
);
width = 1100;
},
{
anchors = (
{
name = bottom;
pos = (550,0);
},
{
name = top;
pos = (550,800);
}
);
layerId = m003;
shapes = (
{
closed = 1;
nodes = (
(35,800,l),
(310,0,l),
(420,0,l),
(420,76,o),
(557,530,o),
(645,800,c),
(575,800,l),
(362,103,l),
(388,103,l),
(145,800,l)
);
},
{
closed = 1;
nodes = (
(180,565,l),
(240,715,l),
(255,800,l),
(75,800,l)
);
},
{
closed = 1;
nodes = (
(970,565,l),
(1075,800,l),
(895,800,l),
(910,715,l)
);
},
{
closed = 1;
nodes = (
(505,640,l),
(690,0,l),
(800,0,l),
(800,76,o),
(969,530,o),
(1075,800,c),
(1000,800,l),
(737,103,l),
(761,103,l),
(595,640,l)
);
},
{
closed = 1;
nodes = (
(595,640,l),
(640,715,l),
(655,800,l),
(445,800,l),
(460,715,l),
(505,640,l)
);
}
);
width = 1100;
},
{
anchors = (
{
name = bottom;
pos = (550,0);
},
{
name = top;
pos = (550,800);
}
);
layerId = m005;
shapes = (
{
closed = 1;
nodes = (
(35,800,l),
(310,0,l),
(420,0,l),
(420,76,o),
(557,530,o),
(645,800,c),
(575,800,l),
(362,103,l),
(388,103,l),
(145,800,l)
);
},
{
closed = 1;
nodes = (
(180,565,l),
(240,715,l),
(255,800,l),
(75,800,l)
);
},
{
closed = 1;
nodes = (
(970,565,l),
(1075,800,l),
(895,800,l),
(910,715,l)
);
},
{
closed = 1;
nodes = (
(505,640,l),
(690,0,l),
(800,0,l),
(800,76,o),
(969,530,o),
(1075,800,c),
(1000,800,l),
(737,103,l),
(761,103,l),
(595,640,l)
);
},
{
closed = 1;
nodes = (
(595,640,l),
(640,715,l),
(655,800,l),
(445,800,l),
(460,715,l),
(505,640,l)
);
}
);
width = 1100;
},
{
anchors = (
{
name = bottom;
pos = (535,0);
},
{
name = top;
pos = (535,800);
}
);
guides = (
{
angle = -70.9876;
pos = (603,267);
}
);
layerId = m004;
shapes = (
{
closed = 1;
nodes = (
(20,800,l),
(295,0,l),
(405,0,l),
(405,76,o),
(542,530,o),
(630,800,c),
(560,800,l),
(347,103,l),
(373,103,l),
(130,800,l)
);
},
{
closed = 1;
nodes = (
(165,565,l),
(225,715,l),
(240,800,l),
(60,800,l)
);
},
{
closed = 1;
nodes = (
(955,565,l),
(1060,800,l),
(880,800,l),
(895,715,l)
);
},
{
closed = 1;
nodes = (
(490,640,l),
(675,0,l),
(785,0,l),
(785,76,o),
(954,530,o),
(1060,800,c),
(985,800,l),
(722,103,l),
(746,103,l),
(580,640,l)
);
},
{
closed = 1;
nodes = (
(580,640,l),
(625,715,l),
(640,800,l),
(430,800,l),
(445,715,l),
(490,640,l)
);
}
);
width = 1080;
}
);
metricLeft = "=V";
metricRight = "=V";
unicode = 87;
},
{
glyphname = X;
kernLeft = X;
kernRight = X;
lastChange = "2025-01-07 10:53:51 +0000";
layers = (
{
anchors = (
{
name = bottom;
pos = (315,0);
},
{
name = top;
pos = (315,800);
}
);
guides = (
{
pos = (322,400);
}
);
layerId = m01;
shapes = (
{
closed = 1;
nodes = (
(575,715,l),
(590,800,l),
(480,800,l),
(380,800,l),
(395,715,l),
(440,640,l)
);
},
{
closed = 1;
nodes = (
(254,400,l),
(55,85,l),
(55,2,l),
(94,2,l),
(337,400,l)
);
},
{
closed = 1;
nodes = (
(55,85,l),
(40,0,l),
(250,0,l),
(235,85,l),
(190,160,l)
);
},
{
closed = 1;
nodes = (
(200,640,l),
(245,715,l),
(260,800,l),
(120,800,l),
(120,640,l)
);
},
{
closed = 1;
nodes = (
(439,160,l),
(394,85,l),
(379,0,l),
(519,0,l),
(519,160,l)
);
},
{
closed = 1;
nodes = (
(510,756,l),
(296,400,l),
(379,400,l),
(575,715,l),
(575,756,l)
);
},
{
closed = 1;
nodes = (
(600,0,l),
(560,326,o),
(210,486,o),
(170,800,c),
(40,800,l),
(80,474,o),
(430,314,o),
(470,0,c)
);
}
);
width = 640;
},
{
anchors = (
{
name = bottom;
pos = (310,0);
},
{
name = top;
pos = (310,800);
}
);
layerId = m003;
shapes = (
{
closed = 1;
nodes = (
(570,715,l),
(585,800,l),
(475,800,l),
(375,800,l),
(390,715,l),
(435,640,l)
);
},
{
closed = 1;
nodes = (
(249,400,l),
(50,85,l),
(50,2,l),
(89,2,l),
(332,400,l)
);
},
{
closed = 1;
nodes = (
(50,85,l),
(35,0,l),
(245,0,l),
(230,85,l),
(185,160,l)
);
},
{
closed = 1;
nodes = (
(195,640,l),
(240,715,l),
(255,800,l),
(115,800,l),
(115,640,l)
);
},
{
closed = 1;
nodes = (
(434,160,l),
(389,85,l),
(374,0,l),
(514,0,l),
(514,160,l)
);
},
{
closed = 1;
nodes = (
(505,756,l),
(291,400,l),
(374,400,l),
(570,715,l),
(570,756,l)
);
},
{
closed = 1;
nodes = (
(595,0,l),
(555,326,o),
(205,486,o),
(165,800,c),
(35,800,l),
(75,474,o),
(425,314,o),
(465,0,c)
);
}
);
width = 620;
},
{
anchors = (
{
name = bottom;
pos = (310,0);
},
{
name = top;
pos = (310,800);
}
);
layerId = m005;
shapes = (
{
closed = 1;
nodes = (
(570,715,l),
(585,800,l),
(475,800,l),
(375,800,l),
(390,715,l),
(435,640,l)
);
},
{
closed = 1;
nodes = (
(249,400,l),
(50,85,l),
(50,2,l),
(89,2,l),
(332,400,l)
);
},
{
closed = 1;
nodes = (
(50,85,l),
(35,0,l),
(245,0,l),
(230,85,l),
(185,160,l)
);
},
{
closed = 1;
nodes = (
(195,640,l),
(240,715,l),
(255,800,l),
(115,800,l),
(115,640,l)
);
},
{
closed = 1;
nodes = (
(434,160,l),
(389,85,l),
(374,0,l),
(514,0,l),
(514,160,l)
);
},
{
closed = 1;
nodes = (
(505,756,l),
(291,400,l),
(374,400,l),
(570,715,l),
(570,756,l)
);
},
{
closed = 1;
nodes = (
(595,0,l),
(555,326,o),
(205,486,o),
(165,800,c),
(35,800,l),
(75,474,o),
(425,314,o),
(465,0,c)
);
}
);
width = 620;
},
{
anchors = (
{
name = bottom;
pos = (295,0);
},
{
name = top;
pos = (295,800);
}
);
guides = (
{
pos = (302,400);
}
);
layerId = m004;
shapes = (
{
closed = 1;
nodes = (
(555,715,l),
(570,800,l),
(460,800,l),
(360,800,l),
(375,715,l),
(420,640,l)
);
},
{
closed = 1;
nodes = (
(234,400,l),
(35,85,l),
(35,2,l),
(74,2,l),
(317,400,l)
);
},
{
closed = 1;
nodes = (
(35,85,l),
(20,0,l),
(230,0,l),
(215,85,l),
(170,160,l)
);
},
{
closed = 1;
nodes = (
(180,640,l),
(225,715,l),
(240,800,l),
(100,800,l),
(100,640,l)
);
},
{
closed = 1;
nodes = (
(419,160,l),
(374,85,l),
(359,0,l),
(499,0,l),
(499,160,l)
);
},
{
closed = 1;
nodes = (
(490,756,l),
(276,400,l),
(359,400,l),
(555,715,l),
(555,756,l)
);
},
{
closed = 1;
nodes = (
(580,0,l),
(540,326,o),
(190,486,o),
(150,800,c),
(20,800,l),
(60,474,o),
(410,314,o),
(450,0,c)
);
}
);
width = 600;
}
);
unicode = 88;
},
{
glyphname = Y;
kernLeft = Y;
kernRight = Y;
lastChange = "2024-06-21 13:48:31 +0000";
layers = (
{
anchors = (
{
name = bottom;
pos = (350,0);
},
{
name = top;
pos = (370,800);
},
{
name = topleft;
pos = (20,800);
}
);
guides = (
{
angle = -59.8863;
pos = (254,600);
}
);
layerId = m01;
shapes = (
{
closed = 1;
nodes = (
(35,800,l),
(310,300,l),
(400,290,l),
(400,376,o),
(557,631,o),
(675,800,c),
(585,800,l),
(335,370,l),
(382,370,l),
(155,800,l)
);
},
{
closed = 1;
nodes = (
(527,648,l),
(618,800,l),
(485,800,l),
(500,715,l)
);
},
{
closed = 1;
nodes = (
(180,565,l),
(240,715,l),
(255,800,l),
(75,800,l)
);
},
{
closed = 1;
nodes = (
(310,350,l),
(310,160,l),
(265,85,l),
(250,0,l),
(460,0,l),
(445,85,l),
(400,160,l),
(400,350,l)
);
}
);
width = 700;
},
{
anchors = (
{
name = bottom;
pos = (350,0);
},
{
name = top;
pos = (370,800);
},
{
name = topleft;
pos = (5,800);
}
);
layerId = m003;
shapes = (
{
closed = 1;
nodes = (
(35,800,l),
(310,300,l),
(400,290,l),
(400,376,o),
(557,631,o),
(675,800,c),
(585,800,l),
(335,370,l),
(382,370,l),
(155,800,l)
);
},
{
closed = 1;
nodes = (
(527,648,l),
(618,800,l),
(485,800,l),
(500,715,l)
);
},
{
closed = 1;
nodes = (
(180,565,l),
(240,715,l),
(255,800,l),
(75,800,l)
);
},
{
closed = 1;
nodes = (
(310,350,l),
(310,160,l),
(265,85,l),
(250,0,l),
(460,0,l),
(445,85,l),
(400,160,l),
(400,350,l)
);
}
);
width = 700;
},
{
anchors = (
{
name = bottom;
pos = (350,0);
},
{
name = top;
pos = (370,800);
},
{
name = topleft;
pos = (5,800);
}
);
layerId = m005;
shapes = (
{
closed = 1;
nodes = (
(35,800,l),
(310,300,l),
(400,290,l),
(400,376,o),
(557,631,o),
(675,800,c),
(585,800,l),
(335,370,l),
(382,370,l),
(155,800,l)
);
},
{
closed = 1;
nodes = (
(527,648,l),
(618,800,l),
(485,800,l),
(500,715,l)
);
},
{
closed = 1;
nodes = (
(180,565,l),
(240,715,l),
(255,800,l),
(75,800,l)
);
},
{
closed = 1;
nodes = (
(310,350,l),
(310,160,l),
(265,85,l),
(250,0,l),
(460,0,l),
(445,85,l),
(400,160,l),
(400,350,l)
);
}
);
width = 700;
},
{
anchors = (
{
name = bottom;
pos = (350,0);
},
{
name = top;
pos = (370,800);
},
{
name = topleft;
pos = (5,800);
}
);
guides = (
{
angle = -59.8863;
pos = (254,600);
}
);
layerId = m004;
shapes = (
{
closed = 1;
nodes = (
(20,800,l),
(310,300,l),
(400,290,l),
(400,376,o),
(572,631,o),
(690,800,c),
(600,800,l),
(335,370,l),
(382,370,l),
(140,800,l)
);
},
{
closed = 1;
nodes = (
(542,648,l),
(633,800,l),
(500,800,l),
(515,715,l)
);
},
{
closed = 1;
nodes = (
(165,565,l),
(225,715,l),
(240,800,l),
(60,800,l)
);
},
{
closed = 1;
nodes = (
(310,350,l),
(310,160,l),
(265,85,l),
(250,0,l),
(460,0,l),
(445,85,l),
(400,160,l),
(400,350,l)
);
}
);
width = 710;
}
);
metricLeft = "=V";
metricRight = "=V";
unicode = 89;
},
{
glyphname = Z;
kernLeft = Z;
kernRight = Z;
lastChange = "2023-11-09 10:19:16 +0000";
layers = (
{
anchors = (
{
name = bottom;
pos = (280,0);
},
{
name = center;
pos = (280,400);
},
{
name = top;
pos = (280,800);
}
);
background = {
shapes = (
{
closed = 1;
nodes = (
(540,0,l),
(540,180,l),
(455,165,l),
(380,120,l),
(189,120,l),
(165,160,l),
(165,640,l),
(189,680,l),
(350,680,l),
(425,635,l),
(510,620,l),
(510,800,l),
(15,800,l),
(30,715,l),
(75,640,l),
(75,160,l),
(30,85,l),
(15,0,l)
);
},
{
closed = 1;
nodes = (
(165,380,l),
(373,380,ls),
(409,380,o),
(429,375,o),
(462,357,c),
(490,487,l),
(458,470,o),
(427,460,o),
(393,460,cs),
(165,460,l)
);
}
);
};
layerId = m01;
shapes = (
{
closed = 1;
nodes = (
(480,0,l),
(510,140,l),
(217,140,l),
(188,140,o),
(164,146,o),
(147,171,c),
(134,120,l),
(500,660,l),
(420,660,l),
(110,200,ls),
(62,129,o),
(33,68,o),
(10,0,c)
);
},
{
closed = 1;
nodes = (
(28,660,l),
(500,660,l),
(530,800,l),
(58,800,l)
);
},
{
closed = 1;
nodes = (
(480,0,l),
(540,0,l),
(540,205,l),
(455,190,l),
(380,140,l)
);
}
);
width = 560;
},
{
anchors = (
{
name = bottom;
pos = (280,0);
},
{
name = center;
pos = (280,400);
},
{
name = top;
pos = (280,800);
}
);
layerId = m003;
shapes = (
{
closed = 1;
nodes = (
(480,0,l),
(510,140,l),
(217,140,l),
(188,140,o),
(164,146,o),
(147,171,c),
(134,120,l),
(500,660,l),
(420,660,l),
(110,200,ls),
(62,129,o),
(33,68,o),
(10,0,c)
);
},
{
closed = 1;
nodes = (
(28,660,l),
(500,660,l),
(530,800,l),
(58,800,l)
);
},
{
closed = 1;
nodes = (
(480,0,l),
(540,0,l),
(540,205,l),
(455,190,l),
(380,140,l)
);
}
);
width = 560;
},
{
anchors = (
{
name = bottom;
pos = (280,0);
},
{
name = center;
pos = (280,400);
},
{
name = top;
pos = (280,800);
}
);
layerId = m005;
shapes = (
{
closed = 1;
nodes = (
(480,0,l),
(510,140,l),
(217,140,l),
(188,140,o),
(164,146,o),
(147,171,c),
(134,120,l),
(500,660,l),
(420,660,l),
(110,200,ls),
(62,129,o),
(33,68,o),
(10,0,c)
);
},
{
closed = 1;
nodes = (
(28,660,l),
(500,660,l),
(530,800,l),
(58,800,l)
);
},
{
closed = 1;
nodes = (
(480,0,l),
(540,0,l),
(540,205,l),
(455,190,l),
(380,140,l)
);
}
);
width = 560;
},
{
anchors = (
{
name = bottom;
pos = (280,0);
},
{
name = center;
pos = (280,400);
},
{
name = top;
pos = (280,800);
}
);
background = {
shapes = (
{
closed = 1;
nodes = (
(540,0,l),
(540,180,l),
(455,165,l),
(380,120,l),
(189,120,l),
(165,160,l),
(165,640,l),
(189,680,l),
(350,680,l),
(425,635,l),
(510,620,l),
(510,800,l),
(15,800,l),
(30,715,l),
(75,640,l),
(75,160,l),
(30,85,l),
(15,0,l)
);
},
{
closed = 1;
nodes = (
(165,380,l),
(373,380,ls),
(409,380,o),
(429,375,o),
(462,357,c),
(490,487,l),
(458,470,o),
(427,460,o),
(393,460,cs),
(165,460,l)
);
}
);
};
layerId = m004;
shapes = (
{
closed = 1;
nodes = (
(480,0,l),
(510,140,l),
(217,140,l),
(188,140,o),
(164,146,o),
(147,171,c),
(134,120,l),
(500,660,l),
(420,660,l),
(110,200,ls),
(62,129,o),
(33,68,o),
(10,0,c)
);
},
{
closed = 1;
nodes = (
(28,660,l),
(500,660,l),
(530,800,l),
(58,800,l)
);
},
{
closed = 1;
nodes = (
(480,0,l),
(540,0,l),
(540,205,l),
(455,190,l),
(380,140,l)
);
}
);
width = 560;
}
);
unicode = 90;
},
{
glyphname = A.ss10;
kernLeft = A;
kernRight = A;
lastChange = "2023-10-30 10:13:10 +0000";
layers = (
{
anchors = (
{
name = bottom;
pos = (375,0);
},
{
name = ogonek;
pos = (715,0);
},
{
name = top;
pos = (365,800);
}
);
background = {
shapes = (
{
closed = 1;
nodes = (
(715,0,l),
(420,802,l),
(310,810,l),
(310,730,o),
(133,270,o),
(35,0,c),
(105,0,l),
(368,707,l),
(342,707,l),
(605,0,l)
);
},
{
closed = 1;
nodes = (
(140,235,l),
(35,0,l),
(215,0,l),
(200,85,l)
);
},
{
closed = 1;
nodes = (
(570,235,l),
(510,85,l),
(495,0,l),
(675,0,l)
);
},
{
closed = 1;
nodes = (
(155,245,l),
(555,245,l),
(555,311,l),
(155,311,l)
);
}
);
};
guides = (
{
angle = 69.9885;
pos = (35,0);
}
);
layerId = m01;
shapes = (
{
closed = 1;
nodes = (
(715,0,l),
(420,802,l),
(310,810,l),
(310,730,o),
(133,270,o),
(35,0,c),
(105,0,l),
(368,707,l),
(342,707,l),
(605,0,l)
);
},
{
closed = 1;
nodes = (
(140,235,l),
(35,0,l),
(215,0,l),
(200,85,l)
);
},
{
closed = 1;
nodes = (
(570,235,l),
(510,85,l),
(495,0,l),
(675,0,l)
);
},
{
closed = 1;
nodes = (
(411,150,o),
(455,194,o),
(455,250,cs),
(455,306,o),
(411,350,o),
(355,350,cs),
(299,350,o),
(255,306,o),
(255,250,cs),
(255,194,o),
(299,150,o),
(355,150,cs)
);
},
{
closed = 1;
nodes = (
(338,220,o),
(325,233,o),
(325,250,cs),
(325,267,o),
(338,280,o),
(355,280,cs),
(372,280,o),
(385,267,o),
(385,250,cs),
(385,233,o),
(372,220,o),
(355,220,cs)
);
},
{
closed = 1;
nodes = (
(183,299,l),
(299,245,l),
(325,299,l),
(183,365,l)
);
},
{
closed = 1;
nodes = (
(385,299,l),
(411,245,l),
(527,299,l),
(527,365,l)
);
}
);
width = 750;
},
{
anchors = (
{
name = bottom;
pos = (375,0);
},
{
name = ogonek;
pos = (715,0);
},
{
name = top;
pos = (365,800);
}
);
background = {
shapes = (
{
closed = 1;
nodes = (
(715,0,l),
(420,802,l),
(310,810,l),
(310,730,o),
(133,270,o),
(35,0,c),
(105,0,l),
(368,707,l),
(342,707,l),
(605,0,l)
);
},
{
closed = 1;
nodes = (
(140,235,l),
(35,0,l),
(215,0,l),
(200,85,l)
);
},
{
closed = 1;
nodes = (
(570,235,l),
(510,85,l),
(495,0,l),
(675,0,l)
);
},
{
closed = 1;
nodes = (
(155,245,l),
(555,245,l),
(555,311,l),
(155,311,l)
);
}
);
};
guides = (
{
angle = 69.9885;
pos = (35,0);
}
);
layerId = m003;
shapes = (
{
closed = 1;
nodes = (
(715,0,l),
(420,802,l),
(310,810,l),
(310,730,o),
(133,270,o),
(35,0,c),
(105,0,l),
(368,707,l),
(342,707,l),
(605,0,l)
);
},
{
closed = 1;
nodes = (
(140,235,l),
(35,0,l),
(215,0,l),
(200,85,l)
);
},
{
closed = 1;
nodes = (
(570,235,l),
(510,85,l),
(495,0,l),
(675,0,l)
);
},
{
closed = 1;
nodes = (
(411,150,o),
(455,194,o),
(455,250,cs),
(455,306,o),
(411,350,o),
(355,350,cs),
(299,350,o),
(255,306,o),
(255,250,cs),
(255,194,o),
(299,150,o),
(355,150,cs)
);
},
{
closed = 1;
nodes = (
(338,220,o),
(325,233,o),
(325,250,cs),
(325,267,o),
(338,280,o),
(355,280,cs),
(372,280,o),
(385,267,o),
(385,250,cs),
(385,233,o),
(372,220,o),
(355,220,cs)
);
},
{
closed = 1;
nodes = (
(183,299,l),
(299,245,l),
(325,299,l),
(183,365,l)
);
},
{
closed = 1;
nodes = (
(385,299,l),
(411,245,l),
(527,299,l),
(527,365,l)
);
}
);
width = 750;
},
{
anchors = (
{
name = bottom;
pos = (375,0);
},
{
name = ogonek;
pos = (715,0);
},
{
name = top;
pos = (365,800);
}
);
background = {
shapes = (
{
closed = 1;
nodes = (
(715,0,l),
(420,802,l),
(310,810,l),
(310,730,o),
(133,270,o),
(35,0,c),
(105,0,l),
(368,707,l),
(342,707,l),
(605,0,l)
);
},
{
closed = 1;
nodes = (
(140,235,l),
(35,0,l),
(215,0,l),
(200,85,l)
);
},
{
closed = 1;
nodes = (
(570,235,l),
(510,85,l),
(495,0,l),
(675,0,l)
);
},
{
closed = 1;
nodes = (
(155,245,l),
(555,245,l),
(555,311,l),
(155,311,l)
);
}
);
};
guides = (
{
angle = 69.9885;
pos = (35,0);
}
);
layerId = m005;
shapes = (
{
closed = 1;
nodes = (
(715,0,l),
(420,802,l),
(310,810,l),
(310,730,o),
(133,270,o),
(35,0,c),
(105,0,l),
(368,707,l),
(342,707,l),
(605,0,l)
);
},
{
closed = 1;
nodes = (
(140,235,l),
(35,0,l),
(215,0,l),
(200,85,l)
);
},
{
closed = 1;
nodes = (
(570,235,l),
(510,85,l),
(495,0,l),
(675,0,l)
);
},
{
closed = 1;
nodes = (
(411,150,o),
(455,194,o),
(455,250,cs),
(455,306,o),
(411,350,o),
(355,350,cs),
(299,350,o),
(255,306,o),
(255,250,cs),
(255,194,o),
(299,150,o),
(355,150,cs)
);
},
{
closed = 1;
nodes = (
(338,220,o),
(325,233,o),
(325,250,cs),
(325,267,o),
(338,280,o),
(355,280,cs),
(372,280,o),
(385,267,o),
(385,250,cs),
(385,233,o),
(372,220,o),
(355,220,cs)
);
},
{
closed = 1;
nodes = (
(183,299,l),
(299,245,l),
(325,299,l),
(183,365,l)
);
},
{
closed = 1;
nodes = (
(385,299,l),
(411,245,l),
(527,299,l),
(527,365,l)
);
}
);
width = 750;
},
{
anchors = (
{
name = bottom;
pos = (375,0);
},
{
name = ogonek;
pos = (715,0);
},
{
name = top;
pos = (365,800);
}
);
background = {
shapes = (
{
closed = 1;
nodes = (
(715,0,l),
(420,802,l),
(310,810,l),
(310,730,o),
(133,270,o),
(35,0,c),
(105,0,l),
(368,707,l),
(342,707,l),
(605,0,l)
);
},
{
closed = 1;
nodes = (
(140,235,l),
(35,0,l),
(215,0,l),
(200,85,l)
);
},
{
closed = 1;
nodes = (
(570,235,l),
(510,85,l),
(495,0,l),
(675,0,l)
);
},
{
closed = 1;
nodes = (
(155,245,l),
(555,245,l),
(555,311,l),
(155,311,l)
);
}
);
};
guides = (
{
angle = 69.9885;
pos = (35,0);
}
);
layerId = m004;
shapes = (
{
closed = 1;
nodes = (
(715,0,l),
(420,802,l),
(310,810,l),
(310,730,o),
(133,270,o),
(35,0,c),
(105,0,l),
(368,707,l),
(342,707,l),
(605,0,l)
);
},
{
closed = 1;
nodes = (
(140,235,l),
(35,0,l),
(215,0,l),
(200,85,l)
);
},
{
closed = 1;
nodes = (
(570,235,l),
(510,85,l),
(495,0,l),
(675,0,l)
);
},
{
closed = 1;
nodes = (
(411,150,o),
(455,194,o),
(455,250,cs),
(455,306,o),
(411,350,o),
(355,350,cs),
(299,350,o),
(255,306,o),
(255,250,cs),
(255,194,o),
(299,150,o),
(355,150,cs)
);
},
{
closed = 1;
nodes = (
(338,220,o),
(325,233,o),
(325,250,cs),
(325,267,o),
(338,280,o),
(355,280,cs),
(372,280,o),
(385,267,o),
(385,250,cs),
(385,233,o),
(372,220,o),
(355,220,cs)
);
},
{
closed = 1;
nodes = (
(183,299,l),
(299,245,l),
(325,299,l),
(183,365,l)
);
},
{
closed = 1;
nodes = (
(385,299,l),
(411,245,l),
(527,299,l),
(527,365,l)
);
}
);
width = 750;
}
);
},
{
glyphname = B.ss10;
kernLeft = H;
kernRight = B;
lastChange = "2023-10-30 10:13:15 +0000";
layers = (
{
anchors = (
{
name = bottom;
pos = (320,0);
},
{
name = center;
pos = (320,400);
},
{
name = top;
pos = (320,800);
}
);
layerId = m01;
shapes = (
{
closed = 1;
nodes = (
(328,500,l),
(272,500,o),
(228,456,o),
(228,400,cs),
(228,344,o),
(272,300,o),
(328,300,cs),
(384,300,o),
(428,344,o),
(428,400,cs),
(428,456,o),
(384,500,o),
(328,500,c),
(328,430,l),
(345,430,o),
(358,417,o),
(358,400,cs),
(358,383,o),
(345,370,o),
(328,370,cs),
(311,370,o),
(298,383,o),
(298,400,cs),
(298,417,o),
(311,430,o),
(328,430,c)
);
},
{
closed = 1;
nodes = (
(380,349,l),
(493,334,o),
(539,282,o),
(539,240,cs),
(539,209,o),
(532,188,o),
(482,138,c),
(116,138,l),
(116,0,l),
(428,0,l),
(493,69,ls),
(568,148,o),
(600,228,o),
(600,295,cs),
(600,396,o),
(524,469,o),
(403,469,c),
(380,440,l)
);
},
{
closed = 1;
nodes = (
(374,386,l),
(520,494,o),
(555,553,o),
(555,602,cs),
(555,736,o),
(441,808,o),
(235,808,cs),
(144,808,o),
(95,806,o),
(45,800,c),
(60,715,l),
(105,640,l),
(105,160,l),
(60,85,l),
(45,0,l),
(255,0,l),
(240,85,l),
(195,160,l),
(195,673,l),
(361,673,o),
(450,629,o),
(450,546,cs),
(450,523,o),
(431,490,o),
(374,446,c)
);
}
);
width = 638;
},
{
anchors = (
{
name = bottom;
pos = (320,0);
},
{
name = center;
pos = (320,400);
},
{
name = top;
pos = (320,800);
}
);
layerId = m003;
shapes = (
{
closed = 1;
nodes = (
(328,500,l),
(272,500,o),
(228,456,o),
(228,400,cs),
(228,344,o),
(272,300,o),
(328,300,cs),
(384,300,o),
(428,344,o),
(428,400,cs),
(428,456,o),
(384,500,o),
(328,500,c),
(328,430,l),
(345,430,o),
(358,417,o),
(358,400,cs),
(358,383,o),
(345,370,o),
(328,370,cs),
(311,370,o),
(298,383,o),
(298,400,cs),
(298,417,o),
(311,430,o),
(328,430,c)
);
},
{
closed = 1;
nodes = (
(380,349,l),
(493,334,o),
(539,282,o),
(539,240,cs),
(539,209,o),
(532,188,o),
(482,138,c),
(116,138,l),
(116,0,l),
(428,0,l),
(493,69,ls),
(568,148,o),
(600,228,o),
(600,295,cs),
(600,396,o),
(524,469,o),
(403,469,c),
(380,440,l)
);
},
{
closed = 1;
nodes = (
(374,386,l),
(520,494,o),
(555,553,o),
(555,602,cs),
(555,736,o),
(441,808,o),
(235,808,cs),
(144,808,o),
(95,806,o),
(45,800,c),
(60,715,l),
(105,640,l),
(105,160,l),
(60,85,l),
(45,0,l),
(255,0,l),
(240,85,l),
(195,160,l),
(195,673,l),
(361,673,o),
(450,629,o),
(450,546,cs),
(450,523,o),
(431,490,o),
(374,446,c)
);
}
);
width = 638;
},
{
anchors = (
{
name = bottom;
pos = (320,0);
},
{
name = center;
pos = (320,400);
},
{
name = top;
pos = (320,800);
}
);
layerId = m005;
shapes = (
{
closed = 1;
nodes = (
(328,500,l),
(272,500,o),
(228,456,o),
(228,400,cs),
(228,344,o),
(272,300,o),
(328,300,cs),
(384,300,o),
(428,344,o),
(428,400,cs),
(428,456,o),
(384,500,o),
(328,500,c),
(328,430,l),
(345,430,o),
(358,417,o),
(358,400,cs),
(358,383,o),
(345,370,o),
(328,370,cs),
(311,370,o),
(298,383,o),
(298,400,cs),
(298,417,o),
(311,430,o),
(328,430,c)
);
},
{
closed = 1;
nodes = (
(380,349,l),
(493,334,o),
(539,282,o),
(539,240,cs),
(539,209,o),
(532,188,o),
(482,138,c),
(116,138,l),
(116,0,l),
(428,0,l),
(493,69,ls),
(568,148,o),
(600,228,o),
(600,295,cs),
(600,396,o),
(524,469,o),
(403,469,c),
(380,440,l)
);
},
{
closed = 1;
nodes = (
(374,386,l),
(520,494,o),
(555,553,o),
(555,602,cs),
(555,736,o),
(441,808,o),
(235,808,cs),
(144,808,o),
(95,806,o),
(45,800,c),
(60,715,l),
(105,640,l),
(105,160,l),
(60,85,l),
(45,0,l),
(255,0,l),
(240,85,l),
(195,160,l),
(195,673,l),
(361,673,o),
(450,629,o),
(450,546,cs),
(450,523,o),
(431,490,o),
(374,446,c)
);
}
);
width = 638;
},
{
anchors = (
{
name = bottom;
pos = (295,0);
},
{
name = center;
pos = (295,400);
},
{
name = top;
pos = (295,800);
}
);
layerId = m004;
shapes = (
{
closed = 1;
nodes = (
(303,500,l),
(247,500,o),
(203,456,o),
(203,400,cs),
(203,344,o),
(247,300,o),
(303,300,cs),
(359,300,o),
(403,344,o),
(403,400,cs),
(403,456,o),
(359,500,o),
(303,500,c),
(303,430,l),
(320,430,o),
(333,417,o),
(333,400,cs),
(333,383,o),
(320,370,o),
(303,370,cs),
(286,370,o),
(273,383,o),
(273,400,cs),
(273,417,o),
(286,430,o),
(303,430,c)
);
},
{
closed = 1;
nodes = (
(355,349,l),
(468,334,o),
(514,282,o),
(514,240,cs),
(514,209,o),
(507,188,o),
(457,138,c),
(91,138,l),
(91,0,l),
(403,0,l),
(468,69,ls),
(543,148,o),
(575,228,o),
(575,295,cs),
(575,396,o),
(499,469,o),
(378,469,c),
(355,440,l)
);
},
{
closed = 1;
nodes = (
(349,386,l),
(495,494,o),
(530,553,o),
(530,602,cs),
(530,736,o),
(416,808,o),
(210,808,cs),
(119,808,o),
(70,806,o),
(20,800,c),
(35,715,l),
(80,640,l),
(80,160,l),
(35,85,l),
(20,0,l),
(230,0,l),
(215,85,l),
(170,160,l),
(170,673,l),
(336,673,o),
(425,629,o),
(425,546,cs),
(425,523,o),
(406,490,o),
(349,446,c)
);
}
);
width = 585;
}
);
metricLeft = "=H";
metricRight = "=O";
},
{
glyphname = F.ss10;
kernLeft = H;
kernRight = F;
lastChange = "2023-10-30 10:13:23 +0000";
layers = (
{
anchors = (
{
name = bottom;
pos = (273,0);
},
{
name = top;
pos = (273,800);
}
);
layerId = m01;
shapes = (
{
closed = 1;
nodes = (
(250,0,l),
(235,85,l),
(185,160,l),
(185,640,l),
(230,715,l),
(245,800,l),
(35,800,l),
(50,715,l),
(95,640,l),
(95,160,l),
(50,85,l),
(35,0,l)
);
},
{
closed = 1;
nodes = (
(185,680,l),
(475,680,l),
(475,800,l),
(185,800,l)
);
},
{
closed = 1;
nodes = (
(314,430,l),
(150,430,l),
(150,350,l),
(314,350,l)
);
},
{
closed = 1;
nodes = (
(425,635,l),
(510,620,l),
(510,800,l),
(350,800,l),
(350,680,l)
);
},
{
closed = 1;
nodes = (
(470,396,l),
(470,452,o),
(426,496,o),
(370,496,cs),
(314,496,o),
(270,452,o),
(270,396,cs),
(270,340,o),
(314,296,o),
(370,296,cs),
(426,296,o),
(470,340,o),
(470,396,c),
(400,396,l),
(400,379,o),
(387,366,o),
(370,366,cs),
(353,366,o),
(340,379,o),
(340,396,cs),
(340,413,o),
(353,426,o),
(370,426,cs),
(387,426,o),
(400,413,o),
(400,396,c)
);
}
);
width = 545;
},
{
anchors = (
{
name = bottom;
pos = (273,0);
},
{
name = top;
pos = (273,800);
}
);
layerId = m003;
shapes = (
{
closed = 1;
nodes = (
(250,0,l),
(235,85,l),
(185,160,l),
(185,640,l),
(230,715,l),
(245,800,l),
(35,800,l),
(50,715,l),
(95,640,l),
(95,160,l),
(50,85,l),
(35,0,l)
);
},
{
closed = 1;
nodes = (
(185,680,l),
(475,680,l),
(475,800,l),
(185,800,l)
);
},
{
closed = 1;
nodes = (
(314,430,l),
(150,430,l),
(150,350,l),
(314,350,l)
);
},
{
closed = 1;
nodes = (
(425,635,l),
(510,620,l),
(510,800,l),
(350,800,l),
(350,680,l)
);
},
{
closed = 1;
nodes = (
(470,396,l),
(470,452,o),
(426,496,o),
(370,496,cs),
(314,496,o),
(270,452,o),
(270,396,cs),
(270,340,o),
(314,296,o),
(370,296,cs),
(426,296,o),
(470,340,o),
(470,396,c),
(400,396,l),
(400,379,o),
(387,366,o),
(370,366,cs),
(353,366,o),
(340,379,o),
(340,396,cs),
(340,413,o),
(353,426,o),
(370,426,cs),
(387,426,o),
(400,413,o),
(400,396,c)
);
}
);
width = 545;
},
{
anchors = (
{
name = bottom;
pos = (273,0);
},
{
name = top;
pos = (273,800);
}
);
layerId = m005;
shapes = (
{
closed = 1;
nodes = (
(250,0,l),
(235,85,l),
(185,160,l),
(185,640,l),
(230,715,l),
(245,800,l),
(35,800,l),
(50,715,l),
(95,640,l),
(95,160,l),
(50,85,l),
(35,0,l)
);
},
{
closed = 1;
nodes = (
(185,680,l),
(475,680,l),
(475,800,l),
(185,800,l)
);
},
{
closed = 1;
nodes = (
(314,430,l),
(150,430,l),
(150,350,l),
(314,350,l)
);
},
{
closed = 1;
nodes = (
(425,635,l),
(510,620,l),
(510,800,l),
(350,800,l),
(350,680,l)
);
},
{
closed = 1;
nodes = (
(470,396,l),
(470,452,o),
(426,496,o),
(370,496,cs),
(314,496,o),
(270,452,o),
(270,396,cs),
(270,340,o),
(314,296,o),
(370,296,cs),
(426,296,o),
(470,340,o),
(470,396,c),
(400,396,l),
(400,379,o),
(387,366,o),
(370,366,cs),
(353,366,o),
(340,379,o),
(340,396,cs),
(340,413,o),
(353,426,o),
(370,426,cs),
(387,426,o),
(400,413,o),
(400,396,c)
);
}
);
width = 545;
},
{
anchors = (
{
name = bottom;
pos = (258,0);
},
{
name = top;
pos = (258,800);
}
);
layerId = m004;
shapes = (
{
closed = 1;
nodes = (
(235,0,l),
(220,85,l),
(170,160,l),
(170,640,l),
(215,715,l),
(230,800,l),
(20,800,l),
(35,715,l),
(80,640,l),
(80,160,l),
(35,85,l),
(20,0,l)
);
},
{
closed = 1;
nodes = (
(170,680,l),
(460,680,l),
(460,800,l),
(170,800,l)
);
},
{
closed = 1;
nodes = (
(299,430,l),
(135,430,l),
(135,350,l),
(299,350,l)
);
},
{
closed = 1;
nodes = (
(410,635,l),
(495,620,l),
(495,800,l),
(335,800,l),
(335,680,l)
);
},
{
closed = 1;
nodes = (
(455,396,l),
(455,452,o),
(411,496,o),
(355,496,cs),
(299,496,o),
(255,452,o),
(255,396,cs),
(255,340,o),
(299,296,o),
(355,296,cs),
(411,296,o),
(455,340,o),
(455,396,c),
(385,396,l),
(385,379,o),
(372,366,o),
(355,366,cs),
(338,366,o),
(325,379,o),
(325,396,cs),
(325,413,o),
(338,426,o),
(355,426,cs),
(372,426,o),
(385,413,o),
(385,396,c)
);
}
);
width = 530;
}
);
metricLeft = "=E";
},
{
color = 9;
glyphname = H.ss10;
kernLeft = H;
kernRight = H;
lastChange = "2023-10-30 10:13:30 +0000";
layers = (
{
anchors = (
{
name = bottom;
pos = (350,0);
},
{
name = bottom_cedilla;
pos = (150,0);
},
{
name = center;
pos = (350,400);
},
{
name = top;
pos = (350,800);
},
{
name = topleft;
pos = (20,800);
}
);
layerId = m01;
shapes = (
{
closed = 1;
nodes = (
(655,0,l),
(640,85,l),
(595,160,l),
(595,640,l),
(640,715,l),
(655,800,l),
(445,800,l),
(460,715,l),
(505,640,l),
(505,160,l),
(460,85,l),
(445,0,l)
);
},
{
closed = 1;
nodes = (
(255,0,l),
(240,85,l),
(195,160,l),
(195,640,l),
(240,715,l),
(255,800,l),
(45,800,l),
(60,715,l),
(105,640,l),
(105,160,l),
(60,85,l),
(45,0,l)
);
},
{
closed = 1;
nodes = (
(406,300,o),
(450,344,o),
(450,400,cs),
(450,456,o),
(406,500,o),
(350,500,cs),
(294,500,o),
(250,456,o),
(250,400,cs),
(250,344,o),
(294,300,o),
(350,300,cs)
);
},
{
closed = 1;
nodes = (
(333,370,o),
(320,383,o),
(320,400,cs),
(320,417,o),
(333,430,o),
(350,430,cs),
(367,430,o),
(380,417,o),
(380,400,cs),
(380,383,o),
(367,370,o),
(350,370,cs)
);
},
{
closed = 1;
nodes = (
(406,395,l),
(586,479,l),
(561,533,l),
(380,449,l)
);
},
{
closed = 1;
nodes = (
(139,533,l),
(114,479,l),
(294,395,l),
(320,449,l)
);
}
);
width = 700;
},
{
anchors = (
{
name = bottom;
pos = (350,0);
},
{
name = bottom_cedilla;
pos = (150,0);
},
{
name = center;
pos = (350,400);
},
{
name = top;
pos = (350,800);
},
{
name = topleft;
pos = (20,800);
}
);
layerId = m003;
shapes = (
{
closed = 1;
nodes = (
(655,0,l),
(640,85,l),
(595,160,l),
(595,640,l),
(640,715,l),
(655,800,l),
(445,800,l),
(460,715,l),
(505,640,l),
(505,160,l),
(460,85,l),
(445,0,l)
);
},
{
closed = 1;
nodes = (
(255,0,l),
(240,85,l),
(195,160,l),
(195,640,l),
(240,715,l),
(255,800,l),
(45,800,l),
(60,715,l),
(105,640,l),
(105,160,l),
(60,85,l),
(45,0,l)
);
},
{
closed = 1;
nodes = (
(406,300,o),
(450,344,o),
(450,400,cs),
(450,456,o),
(406,500,o),
(350,500,cs),
(294,500,o),
(250,456,o),
(250,400,cs),
(250,344,o),
(294,300,o),
(350,300,cs)
);
},
{
closed = 1;
nodes = (
(333,370,o),
(320,383,o),
(320,400,cs),
(320,417,o),
(333,430,o),
(350,430,cs),
(367,430,o),
(380,417,o),
(380,400,cs),
(380,383,o),
(367,370,o),
(350,370,cs)
);
},
{
closed = 1;
nodes = (
(406,395,l),
(586,479,l),
(561,533,l),
(380,449,l)
);
},
{
closed = 1;
nodes = (
(139,533,l),
(114,479,l),
(294,395,l),
(320,449,l)
);
}
);
width = 700;
},
{
anchors = (
{
name = bottom;
pos = (350,0);
},
{
name = bottom_cedilla;
pos = (150,0);
},
{
name = center;
pos = (350,400);
},
{
name = top;
pos = (350,800);
},
{
name = topleft;
pos = (20,800);
}
);
layerId = m005;
shapes = (
{
closed = 1;
nodes = (
(655,0,l),
(640,85,l),
(595,160,l),
(595,640,l),
(640,715,l),
(655,800,l),
(445,800,l),
(460,715,l),
(505,640,l),
(505,160,l),
(460,85,l),
(445,0,l)
);
},
{
closed = 1;
nodes = (
(255,0,l),
(240,85,l),
(195,160,l),
(195,640,l),
(240,715,l),
(255,800,l),
(45,800,l),
(60,715,l),
(105,640,l),
(105,160,l),
(60,85,l),
(45,0,l)
);
},
{
closed = 1;
nodes = (
(406,300,o),
(450,344,o),
(450,400,cs),
(450,456,o),
(406,500,o),
(350,500,cs),
(294,500,o),
(250,456,o),
(250,400,cs),
(250,344,o),
(294,300,o),
(350,300,cs)
);
},
{
closed = 1;
nodes = (
(333,370,o),
(320,383,o),
(320,400,cs),
(320,417,o),
(333,430,o),
(350,430,cs),
(367,430,o),
(380,417,o),
(380,400,cs),
(380,383,o),
(367,370,o),
(350,370,cs)
);
},
{
closed = 1;
nodes = (
(406,395,l),
(586,479,l),
(561,533,l),
(380,449,l)
);
},
{
closed = 1;
nodes = (
(139,533,l),
(114,479,l),
(294,395,l),
(320,449,l)
);
}
);
width = 700;
},
{
anchors = (
{
name = bottom;
pos = (330,0);
},
{
name = bottom_cedilla;
pos = (130,0);
},
{
name = center;
pos = (325,400);
},
{
name = top;
pos = (325,800);
},
{
name = topleft;
pos = (-5,800);
}
);
layerId = m004;
shapes = (
{
closed = 1;
nodes = (
(630,0,l),
(615,85,l),
(570,160,l),
(570,640,l),
(615,715,l),
(630,800,l),
(420,800,l),
(435,715,l),
(480,640,l),
(480,160,l),
(435,85,l),
(420,0,l)
);
},
{
closed = 1;
nodes = (
(230,0,l),
(215,85,l),
(170,160,l),
(170,640,l),
(215,715,l),
(230,800,l),
(20,800,l),
(35,715,l),
(80,640,l),
(80,160,l),
(35,85,l),
(20,0,l)
);
},
{
closed = 1;
nodes = (
(381,300,o),
(425,344,o),
(425,400,cs),
(425,456,o),
(381,500,o),
(325,500,cs),
(269,500,o),
(225,456,o),
(225,400,cs),
(225,344,o),
(269,300,o),
(325,300,cs)
);
},
{
closed = 1;
nodes = (
(308,370,o),
(295,383,o),
(295,400,cs),
(295,417,o),
(308,430,o),
(325,430,cs),
(342,430,o),
(355,417,o),
(355,400,cs),
(355,383,o),
(342,370,o),
(325,370,cs)
);
},
{
closed = 1;
nodes = (
(381,395,l),
(561,479,l),
(536,533,l),
(355,449,l)
);
},
{
closed = 1;
nodes = (
(114,533,l),
(89,479,l),
(269,395,l),
(295,449,l)
);
}
);
width = 650;
}
);
metricLeft = "=H";
metricRight = "=H";
},
{
glyphname = K.ss10;
kernLeft = H;
kernRight = K;
lastChange = "2023-10-30 10:13:36 +0000";
layers = (
{
anchors = (
{
name = bottom;
pos = (345,0);
},
{
name = top;
pos = (345,800);
}
);
guides = (
{
angle = 225;
pos = (184,358);
}
);
layerId = m01;
shapes = (
{
closed = 1;
nodes = (
(255,0,l),
(240,85,l),
(195,160,l),
(195,640,l),
(240,715,l),
(255,800,l),
(45,800,l),
(60,715,l),
(105,640,l),
(105,160,l),
(60,85,l),
(45,0,l)
);
},
{
closed = 1;
nodes = (
(240,444,l),
(321,258,o),
(436,76,o),
(518,0,c),
(710,0,l),
(586,95,o),
(419,350,o),
(334,551,c)
);
},
{
closed = 1;
nodes = (
(631,741,l),
(631,797,o),
(587,841,o),
(531,841,cs),
(475,841,o),
(431,797,o),
(431,741,cs),
(431,685,o),
(475,641,o),
(531,641,cs),
(587,641,o),
(631,685,o),
(631,741,c),
(561,741,l),
(561,724,o),
(548,711,o),
(531,711,cs),
(514,711,o),
(501,724,o),
(501,741,cs),
(501,758,o),
(514,771,o),
(531,771,cs),
(548,771,o),
(561,758,o),
(561,741,c)
);
},
{
closed = 1;
nodes = (
(470,718,l),
(164,414,l),
(184,358,l),
(509,680,l)
);
}
);
width = 690;
},
{
anchors = (
{
name = bottom;
pos = (345,0);
},
{
name = top;
pos = (345,800);
}
);
guides = (
{
angle = 225;
pos = (184,358);
}
);
layerId = m003;
shapes = (
{
closed = 1;
nodes = (
(255,0,l),
(240,85,l),
(195,160,l),
(195,640,l),
(240,715,l),
(255,800,l),
(45,800,l),
(60,715,l),
(105,640,l),
(105,160,l),
(60,85,l),
(45,0,l)
);
},
{
closed = 1;
nodes = (
(240,444,l),
(321,258,o),
(436,76,o),
(518,0,c),
(710,0,l),
(586,95,o),
(419,350,o),
(334,551,c)
);
},
{
closed = 1;
nodes = (
(631,741,l),
(631,797,o),
(587,841,o),
(531,841,cs),
(475,841,o),
(431,797,o),
(431,741,cs),
(431,685,o),
(475,641,o),
(531,641,cs),
(587,641,o),
(631,685,o),
(631,741,c),
(561,741,l),
(561,724,o),
(548,711,o),
(531,711,cs),
(514,711,o),
(501,724,o),
(501,741,cs),
(501,758,o),
(514,771,o),
(531,771,cs),
(548,771,o),
(561,758,o),
(561,741,c)
);
},
{
closed = 1;
nodes = (
(470,718,l),
(164,414,l),
(184,358,l),
(509,680,l)
);
}
);
width = 690;
},
{
anchors = (
{
name = bottom;
pos = (345,0);
},
{
name = top;
pos = (345,800);
}
);
guides = (
{
angle = 225;
pos = (184,358);
}
);
layerId = m005;
shapes = (
{
closed = 1;
nodes = (
(255,0,l),
(240,85,l),
(195,160,l),
(195,640,l),
(240,715,l),
(255,800,l),
(45,800,l),
(60,715,l),
(105,640,l),
(105,160,l),
(60,85,l),
(45,0,l)
);
},
{
closed = 1;
nodes = (
(240,444,l),
(321,258,o),
(436,76,o),
(518,0,c),
(710,0,l),
(586,95,o),
(419,350,o),
(334,551,c)
);
},
{
closed = 1;
nodes = (
(631,741,l),
(631,797,o),
(587,841,o),
(531,841,cs),
(475,841,o),
(431,797,o),
(431,741,cs),
(431,685,o),
(475,641,o),
(531,641,cs),
(587,641,o),
(631,685,o),
(631,741,c),
(561,741,l),
(561,724,o),
(548,711,o),
(531,711,cs),
(514,711,o),
(501,724,o),
(501,741,cs),
(501,758,o),
(514,771,o),
(531,771,cs),
(548,771,o),
(561,758,o),
(561,741,c)
);
},
{
closed = 1;
nodes = (
(470,718,l),
(164,414,l),
(184,358,l),
(509,680,l)
);
}
);
width = 690;
},
{
anchors = (
{
name = bottom;
pos = (320,0);
},
{
name = top;
pos = (320,800);
}
);
guides = (
{
angle = 225;
pos = (159,358);
}
);
layerId = m004;
shapes = (
{
closed = 1;
nodes = (
(230,0,l),
(215,85,l),
(170,160,l),
(170,640,l),
(215,715,l),
(230,800,l),
(20,800,l),
(35,715,l),
(80,640,l),
(80,160,l),
(35,85,l),
(20,0,l)
);
},
{
closed = 1;
nodes = (
(215,444,l),
(296,258,o),
(411,76,o),
(493,0,c),
(685,0,l),
(561,95,o),
(394,350,o),
(309,551,c)
);
},
{
closed = 1;
nodes = (
(606,741,l),
(606,797,o),
(562,841,o),
(506,841,cs),
(450,841,o),
(406,797,o),
(406,741,cs),
(406,685,o),
(450,641,o),
(506,641,cs),
(562,641,o),
(606,685,o),
(606,741,c),
(536,741,l),
(536,724,o),
(523,711,o),
(506,711,cs),
(489,711,o),
(476,724,o),
(476,741,cs),
(476,758,o),
(489,771,o),
(506,771,cs),
(523,771,o),
(536,758,o),
(536,741,c)
);
},
{
closed = 1;
nodes = (
(445,718,l),
(139,414,l),
(159,358,l),
(484,680,l)
);
}
);
width = 665;
}
);
metricLeft = "=H";
},
{
glyphname = M.ss10;
kernLeft = H;
kernRight = H;
lastChange = "2023-10-30 10:13:52 +0000";
layers = (
{
anchors = (
{
name = bottom;
pos = (420,0);
},
{
name = top;
pos = (420,800);
}
);
layerId = m01;
shapes = (
{
closed = 1;
nodes = (
(520,440,l),
(520,496,o),
(476,540,o),
(420,540,cs),
(364,540,o),
(320,496,o),
(320,440,cs),
(320,384,o),
(364,340,o),
(420,340,cs),
(476,340,o),
(520,384,o),
(520,440,c),
(450,440,l),
(450,423,o),
(437,410,o),
(420,410,cs),
(403,410,o),
(390,423,o),
(390,440,cs),
(390,457,o),
(403,470,o),
(420,470,cs),
(437,470,o),
(450,457,o),
(450,440,c)
);
},
{
closed = 1;
nodes = (
(418,488,l),
(165,800,l),
(103,756,l),
(368,441,l)
);
},
{
closed = 1;
nodes = (
(737,756,l),
(675,800,l),
(422,488,l),
(472,441,l)
);
},
{
ref = _Mleg;
}
);
width = 840;
},
{
anchors = (
{
name = bottom;
pos = (420,0);
},
{
name = top;
pos = (420,800);
}
);
layerId = m003;
shapes = (
{
closed = 1;
nodes = (
(520,440,l),
(520,496,o),
(476,540,o),
(420,540,cs),
(364,540,o),
(320,496,o),
(320,440,cs),
(320,384,o),
(364,340,o),
(420,340,cs),
(476,340,o),
(520,384,o),
(520,440,c),
(450,440,l),
(450,423,o),
(437,410,o),
(420,410,cs),
(403,410,o),
(390,423,o),
(390,440,cs),
(390,457,o),
(403,470,o),
(420,470,cs),
(437,470,o),
(450,457,o),
(450,440,c)
);
},
{
closed = 1;
nodes = (
(418,488,l),
(165,800,l),
(103,756,l),
(368,441,l)
);
},
{
closed = 1;
nodes = (
(737,756,l),
(675,800,l),
(422,488,l),
(472,441,l)
);
},
{
ref = _Mleg;
}
);
width = 840;
},
{
anchors = (
{
name = bottom;
pos = (420,0);
},
{
name = top;
pos = (420,800);
}
);
layerId = m005;
shapes = (
{
closed = 1;
nodes = (
(520,440,l),
(520,496,o),
(476,540,o),
(420,540,cs),
(364,540,o),
(320,496,o),
(320,440,cs),
(320,384,o),
(364,340,o),
(420,340,cs),
(476,340,o),
(520,384,o),
(520,440,c),
(450,440,l),
(450,423,o),
(437,410,o),
(420,410,cs),
(403,410,o),
(390,423,o),
(390,440,cs),
(390,457,o),
(403,470,o),
(420,470,cs),
(437,470,o),
(450,457,o),
(450,440,c)
);
},
{
closed = 1;
nodes = (
(418,488,l),
(165,800,l),
(103,756,l),
(368,441,l)
);
},
{
closed = 1;
nodes = (
(737,756,l),
(675,800,l),
(422,488,l),
(472,441,l)
);
},
{
ref = _Mleg;
}
);
width = 840;
},
{
anchors = (
{
name = bottom;
pos = (420,0);
},
{
name = top;
pos = (420,800);
}
);
layerId = m004;
shapes = (
{
closed = 1;
nodes = (
(520,440,l),
(520,496,o),
(476,540,o),
(420,540,cs),
(364,540,o),
(320,496,o),
(320,440,cs),
(320,384,o),
(364,340,o),
(420,340,cs),
(476,340,o),
(520,384,o),
(520,440,c),
(450,440,l),
(450,423,o),
(437,410,o),
(420,410,cs),
(403,410,o),
(390,423,o),
(390,440,cs),
(390,457,o),
(403,470,o),
(420,470,cs),
(437,470,o),
(450,457,o),
(450,440,c)
);
},
{
closed = 1;
nodes = (
(418,488,l),
(165,800,l),
(103,756,l),
(368,441,l)
);
},
{
closed = 1;
nodes = (
(737,756,l),
(675,800,l),
(422,488,l),
(472,441,l)
);
},
{
ref = _Mleg;
}
);
width = 840;
}
);
},
{
glyphname = N.ss10;
kernLeft = H;
kernRight = H;
lastChange = "2023-10-30 10:13:52 +0000";
layers = (
{
anchors = (
{
name = bottom;
pos = (386,0);
},
{
name = top;
pos = (386,800);
}
);
background = {
shapes = (
{
closed = 1;
nodes = (
(550,112,ls),
(637,199,o),
(722,364,o),
(722,512,cs),
(722,670,o),
(625,808,o),
(330,808,c),
(210,688,ls),
(123,601,o),
(38,436,o),
(38,288,cs),
(38,130,o),
(135,-8,o),
(430,-8,c)
);
},
{
closed = 1;
nodes = (
(216,138,o),
(124,265,o),
(124,396,cs),
(124,487,o),
(174,576,o),
(230,632,cs),
(260,662,l),
(544,662,o),
(636,535,o),
(636,404,cs),
(636,313,o),
(586,224,o),
(530,168,cs),
(500,138,l)
);
}
);
};
guides = (
{
angle = -57.7256;
pos = (185,800);
}
);
layerId = m01;
shapes = (
{
closed = 1;
nodes = (
(175,800,l),
(45,800,l),
(60,715,l),
(105,640,l),
(105,160,l),
(60,85,l),
(45,0,l),
(255,0,l),
(240,85,l),
(195,160,l),
(195,640,l),
(195,715,l)
);
},
{
closed = 1;
nodes = (
(725,0,l),
(710,85,l),
(665,160,l),
(665,640,l),
(710,715,l),
(725,800,l),
(615,800,l),
(515,800,l),
(530,715,l),
(575,640,l),
(575,100,l),
(605,0,l)
);
},
{
closed = 1;
nodes = (
(378,481,l),
(185,800,l),
(156,800,l),
(156,714,l),
(320,442,l)
);
},
{
closed = 1;
nodes = (
(489,415,l),
(489,471,o),
(445,515,o),
(389,515,cs),
(333,515,o),
(289,471,o),
(289,415,cs),
(289,359,o),
(333,315,o),
(389,315,cs),
(445,315,o),
(489,359,o),
(489,415,c),
(419,415,l),
(419,398,o),
(406,385,o),
(389,385,cs),
(372,385,o),
(359,398,o),
(359,415,cs),
(359,432,o),
(372,445,o),
(389,445,cs),
(406,445,o),
(419,432,o),
(419,415,c)
);
},
{
closed = 1;
nodes = (
(398,350,l),
(605,0,l),
(635,0,l),
(635,83,l),
(456,388,l)
);
}
);
width = 770;
},
{
anchors = (
{
name = bottom;
pos = (386,0);
},
{
name = top;
pos = (386,800);
}
);
background = {
shapes = (
{
closed = 1;
nodes = (
(550,112,ls),
(637,199,o),
(722,364,o),
(722,512,cs),
(722,670,o),
(625,808,o),
(330,808,c),
(210,688,ls),
(123,601,o),
(38,436,o),
(38,288,cs),
(38,130,o),
(135,-8,o),
(430,-8,c)
);
},
{
closed = 1;
nodes = (
(216,138,o),
(124,265,o),
(124,396,cs),
(124,487,o),
(174,576,o),
(230,632,cs),
(260,662,l),
(544,662,o),
(636,535,o),
(636,404,cs),
(636,313,o),
(586,224,o),
(530,168,cs),
(500,138,l)
);
}
);
};
guides = (
{
angle = -50.0039;
pos = (252,579);
}
);
layerId = m003;
shapes = (
{
closed = 1;
nodes = (
(175,800,l),
(45,800,l),
(60,715,l),
(105,640,l),
(105,160,l),
(60,85,l),
(45,0,l),
(255,0,l),
(240,85,l),
(195,160,l),
(195,640,l),
(195,715,l)
);
},
{
closed = 1;
nodes = (
(725,0,l),
(710,85,l),
(665,160,l),
(665,640,l),
(710,715,l),
(725,800,l),
(615,800,l),
(515,800,l),
(530,715,l),
(575,640,l),
(575,100,l),
(605,0,l)
);
},
{
closed = 1;
nodes = (
(378,481,l),
(185,800,l),
(156,800,l),
(156,714,l),
(320,442,l)
);
},
{
closed = 1;
nodes = (
(489,415,l),
(489,471,o),
(445,515,o),
(389,515,cs),
(333,515,o),
(289,471,o),
(289,415,cs),
(289,359,o),
(333,315,o),
(389,315,cs),
(445,315,o),
(489,359,o),
(489,415,c),
(419,415,l),
(419,398,o),
(406,385,o),
(389,385,cs),
(372,385,o),
(359,398,o),
(359,415,cs),
(359,432,o),
(372,445,o),
(389,445,cs),
(406,445,o),
(419,432,o),
(419,415,c)
);
},
{
closed = 1;
nodes = (
(398,350,l),
(605,0,l),
(635,0,l),
(635,83,l),
(456,388,l)
);
}
);
width = 770;
},
{
anchors = (
{
name = bottom;
pos = (386,0);
},
{
name = top;
pos = (386,800);
}
);
background = {
shapes = (
{
closed = 1;
nodes = (
(550,112,ls),
(637,199,o),
(722,364,o),
(722,512,cs),
(722,670,o),
(625,808,o),
(330,808,c),
(210,688,ls),
(123,601,o),
(38,436,o),
(38,288,cs),
(38,130,o),
(135,-8,o),
(430,-8,c)
);
},
{
closed = 1;
nodes = (
(216,138,o),
(124,265,o),
(124,396,cs),
(124,487,o),
(174,576,o),
(230,632,cs),
(260,662,l),
(544,662,o),
(636,535,o),
(636,404,cs),
(636,313,o),
(586,224,o),
(530,168,cs),
(500,138,l)
);
}
);
};
guides = (
{
angle = -50.0039;
pos = (252,579);
}
);
layerId = m005;
shapes = (
{
closed = 1;
nodes = (
(175,800,l),
(45,800,l),
(60,715,l),
(105,640,l),
(105,160,l),
(60,85,l),
(45,0,l),
(255,0,l),
(240,85,l),
(195,160,l),
(195,640,l),
(195,715,l)
);
},
{
closed = 1;
nodes = (
(725,0,l),
(710,85,l),
(665,160,l),
(665,640,l),
(710,715,l),
(725,800,l),
(615,800,l),
(515,800,l),
(530,715,l),
(575,640,l),
(575,100,l),
(605,0,l)
);
},
{
closed = 1;
nodes = (
(378,481,l),
(185,800,l),
(156,800,l),
(156,714,l),
(320,442,l)
);
},
{
closed = 1;
nodes = (
(489,415,l),
(489,471,o),
(445,515,o),
(389,515,cs),
(333,515,o),
(289,471,o),
(289,415,cs),
(289,359,o),
(333,315,o),
(389,315,cs),
(445,315,o),
(489,359,o),
(489,415,c),
(419,415,l),
(419,398,o),
(406,385,o),
(389,385,cs),
(372,385,o),
(359,398,o),
(359,415,cs),
(359,432,o),
(372,445,o),
(389,445,cs),
(406,445,o),
(419,432,o),
(419,415,c)
);
},
{
closed = 1;
nodes = (
(398,350,l),
(605,0,l),
(635,0,l),
(635,83,l),
(456,388,l)
);
}
);
width = 770;
},
{
anchors = (
{
name = bottom;
pos = (361,0);
},
{
name = top;
pos = (361,800);
}
);
background = {
shapes = (
{
closed = 1;
nodes = (
(525,112,ls),
(612,199,o),
(697,364,o),
(697,512,cs),
(697,670,o),
(600,808,o),
(305,808,c),
(185,688,ls),
(98,601,o),
(13,436,o),
(13,288,cs),
(13,130,o),
(110,-8,o),
(405,-8,c)
);
},
{
closed = 1;
nodes = (
(191,138,o),
(99,265,o),
(99,396,cs),
(99,487,o),
(149,576,o),
(205,632,cs),
(235,662,l),
(519,662,o),
(611,535,o),
(611,404,cs),
(611,313,o),
(561,224,o),
(505,168,cs),
(475,138,l)
);
}
);
};
guides = (
{
angle = -57.7256;
pos = (160,800);
}
);
layerId = m004;
shapes = (
{
closed = 1;
nodes = (
(150,800,l),
(20,800,l),
(35,715,l),
(80,640,l),
(80,160,l),
(35,85,l),
(20,0,l),
(230,0,l),
(215,85,l),
(170,160,l),
(170,640,l),
(170,715,l)
);
},
{
closed = 1;
nodes = (
(700,0,l),
(685,85,l),
(640,160,l),
(640,640,l),
(685,715,l),
(700,800,l),
(590,800,l),
(490,800,l),
(505,715,l),
(550,640,l),
(550,100,l),
(580,0,l)
);
},
{
closed = 1;
nodes = (
(353,481,l),
(160,800,l),
(131,800,l),
(131,714,l),
(295,442,l)
);
},
{
closed = 1;
nodes = (
(464,415,l),
(464,471,o),
(420,515,o),
(364,515,cs),
(308,515,o),
(264,471,o),
(264,415,cs),
(264,359,o),
(308,315,o),
(364,315,cs),
(420,315,o),
(464,359,o),
(464,415,c),
(394,415,l),
(394,398,o),
(381,385,o),
(364,385,cs),
(347,385,o),
(334,398,o),
(334,415,cs),
(334,432,o),
(347,445,o),
(364,445,cs),
(381,445,o),
(394,432,o),
(394,415,c)
);
},
{
closed = 1;
nodes = (
(373,350,l),
(580,0,l),
(610,0,l),
(610,83,l),
(431,388,l)
);
}
);
width = 720;
}
);
metricLeft = "=M";
metricRight = "=M";
},
{
glyphname = P.ss10;
kernLeft = H;
kernRight = P;
lastChange = "2023-10-30 10:14:01 +0000";
layers = (
{
anchors = (
{
name = bottom;
pos = (290,0);
},
{
name = top;
pos = (290,800);
}
);
background = {
shapes = (
{
closed = 1;
nodes = (
(440,511,o),
(407,460,o),
(250,372,c),
(344,365,l),
(486,459,o),
(545,539,o),
(545,602,cs),
(545,736,o),
(431,808,o),
(225,808,cs),
(134,808,o),
(85,806,o),
(35,800,c),
(50,715,l),
(95,640,l),
(95,160,l),
(50,85,l),
(35,0,l),
(245,0,l),
(230,85,l),
(185,160,l),
(185,673,l),
(351,673,o),
(440,629,o),
(440,546,cs)
);
}
);
};
layerId = m01;
shapes = (
{
closed = 1;
nodes = (
(393,369,l),
(500,445,o),
(545,525,o),
(545,582,cs),
(545,723,o),
(441,808,o),
(225,808,cs),
(134,808,o),
(85,806,o),
(35,800,c),
(50,715,l),
(95,640,l),
(95,160,l),
(50,85,l),
(35,0,l),
(245,0,l),
(230,85,l),
(185,160,l),
(185,673,l),
(392,667,o),
(440,606,o),
(440,526,cs),
(440,502,o),
(426,461,o),
(366,416,c)
);
},
{
closed = 1;
nodes = (
(330,480,l),
(274,480,o),
(230,436,o),
(230,380,cs),
(230,324,o),
(274,280,o),
(330,280,cs),
(386,280,o),
(430,324,o),
(430,380,cs),
(430,436,o),
(386,480,o),
(330,480,c),
(330,410,l),
(347,410,o),
(360,397,o),
(360,380,cs),
(360,363,o),
(347,350,o),
(330,350,cs),
(313,350,o),
(300,363,o),
(300,380,cs),
(300,397,o),
(313,410,o),
(330,410,c)
);
}
);
width = 580;
},
{
anchors = (
{
name = bottom;
pos = (290,0);
},
{
name = top;
pos = (290,800);
}
);
background = {
shapes = (
{
closed = 1;
nodes = (
(440,511,o),
(407,460,o),
(250,372,c),
(344,365,l),
(486,459,o),
(545,539,o),
(545,602,cs),
(545,736,o),
(431,808,o),
(225,808,cs),
(134,808,o),
(85,806,o),
(35,800,c),
(50,715,l),
(95,640,l),
(95,160,l),
(50,85,l),
(35,0,l),
(245,0,l),
(230,85,l),
(185,160,l),
(185,673,l),
(351,673,o),
(440,629,o),
(440,546,cs)
);
}
);
};
layerId = m003;
shapes = (
{
closed = 1;
nodes = (
(393,369,l),
(500,445,o),
(545,525,o),
(545,582,cs),
(545,723,o),
(441,808,o),
(225,808,cs),
(134,808,o),
(85,806,o),
(35,800,c),
(50,715,l),
(95,640,l),
(95,160,l),
(50,85,l),
(35,0,l),
(245,0,l),
(230,85,l),
(185,160,l),
(185,673,l),
(392,667,o),
(440,606,o),
(440,526,cs),
(440,502,o),
(426,461,o),
(366,416,c)
);
},
{
closed = 1;
nodes = (
(330,480,l),
(274,480,o),
(230,436,o),
(230,380,cs),
(230,324,o),
(274,280,o),
(330,280,cs),
(386,280,o),
(430,324,o),
(430,380,cs),
(430,436,o),
(386,480,o),
(330,480,c),
(330,410,l),
(347,410,o),
(360,397,o),
(360,380,cs),
(360,363,o),
(347,350,o),
(330,350,cs),
(313,350,o),
(300,363,o),
(300,380,cs),
(300,397,o),
(313,410,o),
(330,410,c)
);
}
);
width = 580;
},
{
anchors = (
{
name = bottom;
pos = (290,0);
},
{
name = top;
pos = (290,800);
}
);
background = {
shapes = (
{
closed = 1;
nodes = (
(440,511,o),
(407,460,o),
(250,372,c),
(344,365,l),
(486,459,o),
(545,539,o),
(545,602,cs),
(545,736,o),
(431,808,o),
(225,808,cs),
(134,808,o),
(85,806,o),
(35,800,c),
(50,715,l),
(95,640,l),
(95,160,l),
(50,85,l),
(35,0,l),
(245,0,l),
(230,85,l),
(185,160,l),
(185,673,l),
(351,673,o),
(440,629,o),
(440,546,cs)
);
}
);
};
layerId = m005;
shapes = (
{
closed = 1;
nodes = (
(393,369,l),
(500,445,o),
(545,525,o),
(545,582,cs),
(545,723,o),
(441,808,o),
(225,808,cs),
(134,808,o),
(85,806,o),
(35,800,c),
(50,715,l),
(95,640,l),
(95,160,l),
(50,85,l),
(35,0,l),
(245,0,l),
(230,85,l),
(185,160,l),
(185,673,l),
(392,667,o),
(440,606,o),
(440,526,cs),
(440,502,o),
(426,461,o),
(366,416,c)
);
},
{
closed = 1;
nodes = (
(330,480,l),
(274,480,o),
(230,436,o),
(230,380,cs),
(230,324,o),
(274,280,o),
(330,280,cs),
(386,280,o),
(430,324,o),
(430,380,cs),
(430,436,o),
(386,480,o),
(330,480,c),
(330,410,l),
(347,410,o),
(360,397,o),
(360,380,cs),
(360,363,o),
(347,350,o),
(330,350,cs),
(313,350,o),
(300,363,o),
(300,380,cs),
(300,397,o),
(313,410,o),
(330,410,c)
);
}
);
width = 580;
},
{
anchors = (
{
name = bottom;
pos = (275,0);
},
{
name = top;
pos = (275,800);
}
);
background = {
shapes = (
{
closed = 1;
nodes = (
(425,511,o),
(392,460,o),
(235,372,c),
(329,365,l),
(471,459,o),
(530,539,o),
(530,602,cs),
(530,736,o),
(416,808,o),
(210,808,cs),
(119,808,o),
(70,806,o),
(20,800,c),
(35,715,l),
(80,640,l),
(80,160,l),
(35,85,l),
(20,0,l),
(230,0,l),
(215,85,l),
(170,160,l),
(170,673,l),
(336,673,o),
(425,629,o),
(425,546,cs)
);
}
);
};
layerId = m004;
shapes = (
{
closed = 1;
nodes = (
(378,369,l),
(485,445,o),
(530,525,o),
(530,582,cs),
(530,723,o),
(426,808,o),
(210,808,cs),
(119,808,o),
(70,806,o),
(20,800,c),
(35,715,l),
(80,640,l),
(80,160,l),
(35,85,l),
(20,0,l),
(230,0,l),
(215,85,l),
(170,160,l),
(170,673,l),
(377,667,o),
(425,606,o),
(425,526,cs),
(425,502,o),
(411,461,o),
(351,416,c)
);
},
{
closed = 1;
nodes = (
(315,480,l),
(259,480,o),
(215,436,o),
(215,380,cs),
(215,324,o),
(259,280,o),
(315,280,cs),
(371,280,o),
(415,324,o),
(415,380,cs),
(415,436,o),
(371,480,o),
(315,480,c),
(315,410,l),
(332,410,o),
(345,397,o),
(345,380,cs),
(345,363,o),
(332,350,o),
(315,350,cs),
(298,350,o),
(285,363,o),
(285,380,cs),
(285,397,o),
(298,410,o),
(315,410,c)
);
}
);
width = 537;
}
);
metricLeft = "=E";
metricRight = "=D-3";
},
{
glyphname = Q.ss10;
kernLeft = O;
kernRight = O;
lastChange = "2023-10-30 10:14:05 +0000";
layers = (
{
anchors = (
{
name = bottom;
pos = (380,0);
},
{
name = top;
pos = (380,800);
}
);
guides = (
{
angle = 45;
pos = (530,168);
},
{
angle = 45;
pos = (401,-37);
}
);
layerId = m01;
shapes = (
{
closed = 1;
nodes = (
(550,112,ls),
(637,199,o),
(722,364,o),
(722,512,cs),
(722,670,o),
(625,808,o),
(330,808,c),
(210,688,ls),
(123,601,o),
(38,436,o),
(38,288,cs),
(38,130,o),
(135,-8,o),
(430,-8,c)
);
},
{
closed = 1;
nodes = (
(216,138,o),
(124,265,o),
(124,396,cs),
(124,487,o),
(174,576,o),
(230,632,cs),
(260,662,l),
(544,662,o),
(636,535,o),
(636,404,cs),
(636,313,o),
(586,224,o),
(530,168,cs),
(500,138,l)
);
},
{
closed = 1;
nodes = (
(639,-158,l),
(639,-102,o),
(595,-58,o),
(539,-58,cs),
(483,-58,o),
(439,-102,o),
(439,-158,cs),
(439,-214,o),
(483,-258,o),
(539,-258,cs),
(595,-258,o),
(639,-214,o),
(639,-158,c),
(569,-158,l),
(569,-175,o),
(556,-188,o),
(539,-188,cs),
(522,-188,o),
(509,-175,o),
(509,-158,cs),
(509,-141,o),
(522,-128,o),
(539,-128,cs),
(556,-128,o),
(569,-141,o),
(569,-158,c)
);
},
{
closed = 1;
nodes = (
(263,-254,o),
(338,-239,o),
(395,-239,cs),
(441,-239,o),
(482,-246,o),
(509,-254,c),
(497,-180,l),
(453,-173,o),
(408,-170,o),
(365,-170,cs),
(339,-170,o),
(301,-171,o),
(263,-175,c),
(440,2,l),
(427,65,l),
(141,-221,l),
(194,-272,l)
);
}
);
width = 760;
},
{
anchors = (
{
name = bottom;
pos = (380,0);
},
{
name = top;
pos = (380,800);
}
);
layerId = m003;
shapes = (
{
closed = 1;
nodes = (
(550,112,ls),
(637,199,o),
(722,364,o),
(722,512,cs),
(722,670,o),
(625,808,o),
(330,808,c),
(210,688,ls),
(123,601,o),
(38,436,o),
(38,288,cs),
(38,130,o),
(135,-8,o),
(430,-8,c)
);
},
{
closed = 1;
nodes = (
(216,138,o),
(124,265,o),
(124,396,cs),
(124,487,o),
(174,576,o),
(230,632,cs),
(260,662,l),
(544,662,o),
(636,535,o),
(636,404,cs),
(636,313,o),
(586,224,o),
(530,168,cs),
(500,138,l)
);
},
{
closed = 1;
nodes = (
(639,-158,l),
(639,-102,o),
(595,-58,o),
(539,-58,cs),
(483,-58,o),
(439,-102,o),
(439,-158,cs),
(439,-214,o),
(483,-258,o),
(539,-258,cs),
(595,-258,o),
(639,-214,o),
(639,-158,c),
(569,-158,l),
(569,-175,o),
(556,-188,o),
(539,-188,cs),
(522,-188,o),
(509,-175,o),
(509,-158,cs),
(509,-141,o),
(522,-128,o),
(539,-128,cs),
(556,-128,o),
(569,-141,o),
(569,-158,c)
);
},
{
closed = 1;
nodes = (
(263,-254,o),
(338,-239,o),
(395,-239,cs),
(441,-239,o),
(482,-246,o),
(509,-254,c),
(497,-180,l),
(453,-173,o),
(408,-170,o),
(365,-170,cs),
(339,-170,o),
(301,-171,o),
(263,-175,c),
(440,2,l),
(427,65,l),
(141,-221,l),
(194,-272,l)
);
}
);
width = 760;
},
{
anchors = (
{
name = bottom;
pos = (380,0);
},
{
name = top;
pos = (380,800);
}
);
layerId = m005;
shapes = (
{
closed = 1;
nodes = (
(550,112,ls),
(637,199,o),
(722,364,o),
(722,512,cs),
(722,670,o),
(625,808,o),
(330,808,c),
(210,688,ls),
(123,601,o),
(38,436,o),
(38,288,cs),
(38,130,o),
(135,-8,o),
(430,-8,c)
);
},
{
closed = 1;
nodes = (
(216,138,o),
(124,265,o),
(124,396,cs),
(124,487,o),
(174,576,o),
(230,632,cs),
(260,662,l),
(544,662,o),
(636,535,o),
(636,404,cs),
(636,313,o),
(586,224,o),
(530,168,cs),
(500,138,l)
);
},
{
closed = 1;
nodes = (
(639,-158,l),
(639,-102,o),
(595,-58,o),
(539,-58,cs),
(483,-58,o),
(439,-102,o),
(439,-158,cs),
(439,-214,o),
(483,-258,o),
(539,-258,cs),
(595,-258,o),
(639,-214,o),
(639,-158,c),
(569,-158,l),
(569,-175,o),
(556,-188,o),
(539,-188,cs),
(522,-188,o),
(509,-175,o),
(509,-158,cs),
(509,-141,o),
(522,-128,o),
(539,-128,cs),
(556,-128,o),
(569,-141,o),
(569,-158,c)
);
},
{
closed = 1;
nodes = (
(263,-254,o),
(338,-239,o),
(395,-239,cs),
(441,-239,o),
(482,-246,o),
(509,-254,c),
(497,-180,l),
(453,-173,o),
(408,-170,o),
(365,-170,cs),
(339,-170,o),
(301,-171,o),
(263,-175,c),
(440,2,l),
(427,65,l),
(141,-221,l),
(194,-272,l)
);
}
);
width = 760;
},
{
anchors = (
{
name = bottom;
pos = (352,0);
},
{
name = top;
pos = (352,800);
}
);
guides = (
{
angle = 45;
pos = (502,168);
},
{
angle = 45;
pos = (373,-37);
}
);
layerId = m004;
shapes = (
{
closed = 1;
nodes = (
(522,112,ls),
(609,199,o),
(694,364,o),
(694,512,cs),
(694,670,o),
(597,808,o),
(302,808,c),
(182,688,ls),
(95,601,o),
(10,436,o),
(10,288,cs),
(10,130,o),
(107,-8,o),
(402,-8,c)
);
},
{
closed = 1;
nodes = (
(188,138,o),
(96,265,o),
(96,396,cs),
(96,487,o),
(146,576,o),
(202,632,cs),
(232,662,l),
(516,662,o),
(608,535,o),
(608,404,cs),
(608,313,o),
(558,224,o),
(502,168,cs),
(472,138,l)
);
},
{
closed = 1;
nodes = (
(611,-158,l),
(611,-102,o),
(567,-58,o),
(511,-58,cs),
(455,-58,o),
(411,-102,o),
(411,-158,cs),
(411,-214,o),
(455,-258,o),
(511,-258,cs),
(567,-258,o),
(611,-214,o),
(611,-158,c),
(541,-158,l),
(541,-175,o),
(528,-188,o),
(511,-188,cs),
(494,-188,o),
(481,-175,o),
(481,-158,cs),
(481,-141,o),
(494,-128,o),
(511,-128,cs),
(528,-128,o),
(541,-141,o),
(541,-158,c)
);
},
{
closed = 1;
nodes = (
(235,-254,o),
(310,-239,o),
(367,-239,cs),
(413,-239,o),
(454,-246,o),
(481,-254,c),
(469,-180,l),
(425,-173,o),
(380,-170,o),
(337,-170,cs),
(311,-170,o),
(273,-171,o),
(235,-175,c),
(412,2,l),
(399,65,l),
(113,-221,l),
(166,-272,l)
);
}
);
width = 704;
}
);
metricLeft = "=O";
metricRight = "=O";
},
{
glyphname = S.ss10;
kernLeft = S;
kernRight = S;
lastChange = "2023-10-30 10:14:10 +0000";
layers = (
{
anchors = (
{
name = bottom;
pos = (295,0);
},
{
name = top;
pos = (295,800);
}
);
background = {
shapes = (
{
closed = 1;
nodes = (
(560,487,o),
(159,417,o),
(152,611,c),
(161,620,o),
(170,629,o),
(180,638,c),
(348,638,o),
(458,615,o),
(520,563,c),
(520,746,l),
(450,789,o),
(365,808,o),
(265,808,c),
(217,760,o),
(168,713,o),
(120,665,cs),
(106,650,o),
(79,620,o),
(65,600,c),
(65,343,o),
(469,411,o),
(469,262,cs),
(469,238,o),
(455,219,o),
(426,192,cs),
(416,181,o),
(404,172,o),
(393,162,c),
(272,162,o),
(181,185,o),
(112,207,c),
(95,248,o),
(79,290,o),
(62,331,c),
(30,331,l),
(30,89,l),
(104,20,o),
(223,-8,o),
(324,-8,c),
(381,49,o),
(439,105,o),
(496,162,cs),
(527,192,o),
(560,220,o),
(560,266,cs)
);
}
);
};
layerId = m01;
shapes = (
{
closed = 1;
nodes = (
(253,483,l),
(192,509,o),
(145,544,o),
(142,613,c),
(180,650,l),
(348,650,o),
(458,633,o),
(520,595,c),
(520,766,l),
(450,795,o),
(365,808,o),
(265,808,c),
(120,665,l),
(106,650,o),
(79,620,o),
(65,600,c),
(65,480,o),
(156,435,o),
(253,405,c)
);
},
{
closed = 1;
nodes = (
(300,523,l),
(244,523,o),
(200,479,o),
(200,423,cs),
(200,367,o),
(244,323,o),
(300,323,cs),
(356,323,o),
(400,367,o),
(400,423,cs),
(400,479,o),
(356,523,o),
(300,523,c),
(300,453,l),
(317,453,o),
(330,440,o),
(330,423,cs),
(330,406,o),
(317,393,o),
(300,393,cs),
(283,393,o),
(270,406,o),
(270,423,cs),
(270,440,o),
(283,453,o),
(300,453,c)
);
},
{
closed = 1;
nodes = (
(353,377,l),
(424,356,o),
(481,331,o),
(481,272,cs),
(481,248,o),
(464,207,o),
(435,180,c),
(392,140,l),
(273,140,o),
(184,163,o),
(116,195,c),
(70,311,l),
(38,311,l),
(38,81,l),
(110,18,o),
(226,-8,o),
(324,-8,c),
(471,137,ls),
(527,192,o),
(550,230,o),
(550,286,cs),
(550,390,o),
(452,421,o),
(353,451,c)
);
}
);
width = 590;
},
{
anchors = (
{
name = bottom;
pos = (295,0);
},
{
name = top;
pos = (295,800);
}
);
layerId = m003;
shapes = (
{
closed = 1;
nodes = (
(253,483,l),
(192,509,o),
(145,544,o),
(142,613,c),
(180,650,l),
(348,650,o),
(458,633,o),
(520,595,c),
(520,766,l),
(450,795,o),
(365,808,o),
(265,808,c),
(120,665,l),
(106,650,o),
(79,620,o),
(65,600,c),
(65,480,o),
(156,435,o),
(253,405,c)
);
},
{
closed = 1;
nodes = (
(300,523,l),
(244,523,o),
(200,479,o),
(200,423,cs),
(200,367,o),
(244,323,o),
(300,323,cs),
(356,323,o),
(400,367,o),
(400,423,cs),
(400,479,o),
(356,523,o),
(300,523,c),
(300,453,l),
(317,453,o),
(330,440,o),
(330,423,cs),
(330,406,o),
(317,393,o),
(300,393,cs),
(283,393,o),
(270,406,o),
(270,423,cs),
(270,440,o),
(283,453,o),
(300,453,c)
);
},
{
closed = 1;
nodes = (
(353,377,l),
(424,356,o),
(481,331,o),
(481,272,cs),
(481,248,o),
(464,207,o),
(435,180,c),
(392,140,l),
(273,140,o),
(184,163,o),
(116,195,c),
(70,311,l),
(38,311,l),
(38,81,l),
(110,18,o),
(226,-8,o),
(324,-8,c),
(471,137,ls),
(527,192,o),
(550,230,o),
(550,286,cs),
(550,390,o),
(452,421,o),
(353,451,c)
);
}
);
width = 590;
},
{
anchors = (
{
name = bottom;
pos = (295,0);
},
{
name = top;
pos = (295,800);
}
);
layerId = m005;
shapes = (
{
closed = 1;
nodes = (
(253,483,l),
(192,509,o),
(145,544,o),
(142,613,c),
(180,650,l),
(348,650,o),
(458,633,o),
(520,595,c),
(520,766,l),
(450,795,o),
(365,808,o),
(265,808,c),
(120,665,l),
(106,650,o),
(79,620,o),
(65,600,c),
(65,480,o),
(156,435,o),
(253,405,c)
);
},
{
closed = 1;
nodes = (
(300,523,l),
(244,523,o),
(200,479,o),
(200,423,cs),
(200,367,o),
(244,323,o),
(300,323,cs),
(356,323,o),
(400,367,o),
(400,423,cs),
(400,479,o),
(356,523,o),
(300,523,c),
(300,453,l),
(317,453,o),
(330,440,o),
(330,423,cs),
(330,406,o),
(317,393,o),
(300,393,cs),
(283,393,o),
(270,406,o),
(270,423,cs),
(270,440,o),
(283,453,o),
(300,453,c)
);
},
{
closed = 1;
nodes = (
(353,377,l),
(424,356,o),
(481,331,o),
(481,272,cs),
(481,248,o),
(464,207,o),
(435,180,c),
(392,140,l),
(273,140,o),
(184,163,o),
(116,195,c),
(70,311,l),
(38,311,l),
(38,81,l),
(110,18,o),
(226,-8,o),
(324,-8,c),
(471,137,ls),
(527,192,o),
(550,230,o),
(550,286,cs),
(550,390,o),
(452,421,o),
(353,451,c)
);
}
);
width = 590;
},
{
anchors = (
{
name = bottom;
pos = (267,0);
},
{
name = top;
pos = (267,800);
}
);
background = {
shapes = (
{
closed = 1;
nodes = (
(532,487,o),
(131,417,o),
(124,611,c),
(133,620,o),
(142,629,o),
(152,638,c),
(320,638,o),
(430,615,o),
(492,563,c),
(492,746,l),
(422,789,o),
(337,808,o),
(237,808,c),
(189,760,o),
(140,713,o),
(92,665,cs),
(78,650,o),
(51,620,o),
(37,600,c),
(37,343,o),
(441,411,o),
(441,262,cs),
(441,238,o),
(427,219,o),
(398,192,cs),
(388,181,o),
(376,172,o),
(365,162,c),
(244,162,o),
(153,185,o),
(84,207,c),
(67,248,o),
(51,290,o),
(34,331,c),
(2,331,l),
(2,89,l),
(76,20,o),
(195,-8,o),
(296,-8,c),
(353,49,o),
(411,105,o),
(468,162,cs),
(499,192,o),
(532,220,o),
(532,266,cs)
);
}
);
};
layerId = m004;
shapes = (
{
closed = 1;
nodes = (
(225,483,l),
(164,509,o),
(117,544,o),
(114,613,c),
(152,650,l),
(320,650,o),
(430,633,o),
(492,595,c),
(492,766,l),
(422,795,o),
(337,808,o),
(237,808,c),
(92,665,l),
(78,650,o),
(51,620,o),
(37,600,c),
(37,480,o),
(128,435,o),
(225,405,c)
);
},
{
closed = 1;
nodes = (
(272,523,l),
(216,523,o),
(172,479,o),
(172,423,cs),
(172,367,o),
(216,323,o),
(272,323,cs),
(328,323,o),
(372,367,o),
(372,423,cs),
(372,479,o),
(328,523,o),
(272,523,c),
(272,453,l),
(289,453,o),
(302,440,o),
(302,423,cs),
(302,406,o),
(289,393,o),
(272,393,cs),
(255,393,o),
(242,406,o),
(242,423,cs),
(242,440,o),
(255,453,o),
(272,453,c)
);
},
{
closed = 1;
nodes = (
(325,377,l),
(396,356,o),
(453,331,o),
(453,272,cs),
(453,248,o),
(436,207,o),
(407,180,c),
(364,140,l),
(245,140,o),
(156,163,o),
(88,195,c),
(42,311,l),
(10,311,l),
(10,81,l),
(82,18,o),
(198,-8,o),
(296,-8,c),
(443,137,ls),
(499,192,o),
(522,230,o),
(522,286,cs),
(522,390,o),
(424,421,o),
(325,451,c)
);
}
);
width = 533;
}
);
metricLeft = "=O";
metricRight = "=O*1.05";
},
{
glyphname = Y.ss10;
kernLeft = Y;
kernRight = Y;
lastChange = "2023-10-30 10:14:16 +0000";
layers = (
{
anchors = (
{
name = bottom;
pos = (365,0);
},
{
name = top;
pos = (385,800);
},
{
name = topleft;
pos = (20,800);
}
);
guides = (
{
angle = -59.8863;
pos = (269,600);
}
);
layerId = m01;
shapes = (
{
closed = 1;
nodes = (
(548,566,l),
(599,647,o),
(656,731,o),
(705,800,c),
(615,800,l),
(492,601,l)
);
},
{
closed = 1;
nodes = (
(557,648,l),
(648,800,l),
(515,800,l),
(530,715,l)
);
},
{
closed = 1;
nodes = (
(180,565,l),
(240,715,l),
(255,800,l),
(75,800,l)
);
},
{
closed = 1;
nodes = (
(325,350,l),
(325,160,l),
(280,85,l),
(265,0,l),
(475,0,l),
(460,85,l),
(415,160,l),
(415,350,l)
);
},
{
closed = 1;
nodes = (
(595,540,l),
(595,596,o),
(551,640,o),
(495,640,cs),
(439,640,o),
(395,596,o),
(395,540,cs),
(395,484,o),
(439,440,o),
(495,440,cs),
(551,440,o),
(595,484,o),
(595,540,c),
(525,540,l),
(525,523,o),
(512,510,o),
(495,510,cs),
(478,510,o),
(465,523,o),
(465,540,cs),
(465,557,o),
(478,570,o),
(495,570,cs),
(512,570,o),
(525,557,o),
(525,540,c)
);
},
{
closed = 1;
nodes = (
(445,524,l),
(350,370,l),
(397,370,l),
(155,800,l),
(35,800,l),
(325,300,l),
(415,290,l),
(415,329,o),
(450,403,o),
(500,487,c)
);
}
);
width = 730;
},
{
anchors = (
{
name = bottom;
pos = (365,0);
},
{
name = top;
pos = (385,800);
},
{
name = topleft;
pos = (20,800);
}
);
layerId = m003;
shapes = (
{
closed = 1;
nodes = (
(548,566,l),
(599,647,o),
(656,731,o),
(705,800,c),
(615,800,l),
(492,601,l)
);
},
{
closed = 1;
nodes = (
(557,648,l),
(648,800,l),
(515,800,l),
(530,715,l)
);
},
{
closed = 1;
nodes = (
(180,565,l),
(240,715,l),
(255,800,l),
(75,800,l)
);
},
{
closed = 1;
nodes = (
(325,350,l),
(325,160,l),
(280,85,l),
(265,0,l),
(475,0,l),
(460,85,l),
(415,160,l),
(415,350,l)
);
},
{
closed = 1;
nodes = (
(595,540,l),
(595,596,o),
(551,640,o),
(495,640,cs),
(439,640,o),
(395,596,o),
(395,540,cs),
(395,484,o),
(439,440,o),
(495,440,cs),
(551,440,o),
(595,484,o),
(595,540,c),
(525,540,l),
(525,523,o),
(512,510,o),
(495,510,cs),
(478,510,o),
(465,523,o),
(465,540,cs),
(465,557,o),
(478,570,o),
(495,570,cs),
(512,570,o),
(525,557,o),
(525,540,c)
);
},
{
closed = 1;
nodes = (
(445,524,l),
(350,370,l),
(397,370,l),
(155,800,l),
(35,800,l),
(325,300,l),
(415,290,l),
(415,329,o),
(450,403,o),
(500,487,c)
);
}
);
width = 730;
},
{
anchors = (
{
name = bottom;
pos = (365,0);
},
{
name = top;
pos = (385,800);
},
{
name = topleft;
pos = (20,800);
}
);
layerId = m005;
shapes = (
{
closed = 1;
nodes = (
(548,566,l),
(599,647,o),
(656,731,o),
(705,800,c),
(615,800,l),
(492,601,l)
);
},
{
closed = 1;
nodes = (
(557,648,l),
(648,800,l),
(515,800,l),
(530,715,l)
);
},
{
closed = 1;
nodes = (
(180,565,l),
(240,715,l),
(255,800,l),
(75,800,l)
);
},
{
closed = 1;
nodes = (
(325,350,l),
(325,160,l),
(280,85,l),
(265,0,l),
(475,0,l),
(460,85,l),
(415,160,l),
(415,350,l)
);
},
{
closed = 1;
nodes = (
(595,540,l),
(595,596,o),
(551,640,o),
(495,640,cs),
(439,640,o),
(395,596,o),
(395,540,cs),
(395,484,o),
(439,440,o),
(495,440,cs),
(551,440,o),
(595,484,o),
(595,540,c),
(525,540,l),
(525,523,o),
(512,510,o),
(495,510,cs),
(478,510,o),
(465,523,o),
(465,540,cs),
(465,557,o),
(478,570,o),
(495,570,cs),
(512,570,o),
(525,557,o),
(525,540,c)
);
},
{
closed = 1;
nodes = (
(445,524,l),
(350,370,l),
(397,370,l),
(155,800,l),
(35,800,l),
(325,300,l),
(415,290,l),
(415,329,o),
(450,403,o),
(500,487,c)
);
}
);
width = 730;
},
{
anchors = (
{
name = bottom;
pos = (350,0);
},
{
name = top;
pos = (370,800);
},
{
name = topleft;
pos = (5,800);
}
);
guides = (
{
angle = -59.8863;
pos = (254,600);
}
);
layerId = m004;
shapes = (
{
closed = 1;
nodes = (
(533,566,l),
(584,647,o),
(641,731,o),
(690,800,c),
(600,800,l),
(477,601,l)
);
},
{
closed = 1;
nodes = (
(542,648,l),
(633,800,l),
(500,800,l),
(515,715,l)
);
},
{
closed = 1;
nodes = (
(165,565,l),
(225,715,l),
(240,800,l),
(60,800,l)
);
},
{
closed = 1;
nodes = (
(310,350,l),
(310,160,l),
(265,85,l),
(250,0,l),
(460,0,l),
(445,85,l),
(400,160,l),
(400,350,l)
);
},
{
closed = 1;
nodes = (
(580,540,l),
(580,596,o),
(536,640,o),
(480,640,cs),
(424,640,o),
(380,596,o),
(380,540,cs),
(380,484,o),
(424,440,o),
(480,440,cs),
(536,440,o),
(580,484,o),
(580,540,c),
(510,540,l),
(510,523,o),
(497,510,o),
(480,510,cs),
(463,510,o),
(450,523,o),
(450,540,cs),
(450,557,o),
(463,570,o),
(480,570,cs),
(497,570,o),
(510,557,o),
(510,540,c)
);
},
{
closed = 1;
nodes = (
(430,524,l),
(335,370,l),
(382,370,l),
(140,800,l),
(20,800,l),
(310,300,l),
(400,290,l),
(400,329,o),
(435,403,o),
(485,487,c)
);
}
);
width = 710;
}
);
metricLeft = "=V";
metricRight = "=V";
},
{
glyphname = Z.ss10;
kernLeft = Z;
kernRight = Z;
lastChange = "2023-10-30 10:14:23 +0000";
layers = (
{
anchors = (
{
name = bottom;
pos = (280,0);
},
{
name = center;
pos = (280,400);
},
{
name = top;
pos = (280,800);
}
);
background = {
shapes = (
{
closed = 1;
nodes = (
(480,0,l),
(510,140,l),
(217,140,l),
(188,140,o),
(164,146,o),
(147,171,c),
(134,120,l),
(500,660,l),
(420,660,l),
(110,200,ls),
(62,129,o),
(33,68,o),
(10,0,c)
);
},
{
closed = 1;
nodes = (
(28,660,l),
(500,660,l),
(530,800,l),
(58,800,l)
);
},
{
closed = 1;
nodes = (
(480,0,l),
(540,0,l),
(540,205,l),
(455,190,l),
(380,140,l)
);
}
);
};
layerId = m01;
shapes = (
{
closed = 1;
nodes = (
(373,473,l),
(500,660,l),
(420,660,l),
(318,509,l)
);
},
{
closed = 1;
nodes = (
(28,660,l),
(500,660,l),
(530,800,l),
(58,800,l)
);
},
{
closed = 1;
nodes = (
(480,0,l),
(540,0,l),
(540,205,l),
(455,190,l),
(380,140,l)
);
},
{
closed = 1;
nodes = (
(411,440,l),
(411,496,o),
(367,540,o),
(311,540,cs),
(255,540,o),
(211,496,o),
(211,440,cs),
(211,384,o),
(255,340,o),
(311,340,cs),
(367,340,o),
(411,384,o),
(411,440,c),
(341,440,l),
(341,423,o),
(328,410,o),
(311,410,cs),
(294,410,o),
(281,423,o),
(281,440,cs),
(281,457,o),
(294,470,o),
(311,470,cs),
(328,470,o),
(341,457,o),
(341,440,c)
);
},
{
closed = 1;
nodes = (
(248,404,l),
(110,200,ls),
(62,129,o),
(33,68,o),
(10,0,c),
(480,0,l),
(510,140,l),
(217,140,l),
(188,140,o),
(164,146,o),
(147,171,c),
(134,120,l),
(301,367,l)
);
}
);
width = 560;
},
{
anchors = (
{
name = bottom;
pos = (280,0);
},
{
name = center;
pos = (280,400);
},
{
name = top;
pos = (280,800);
}
);
layerId = m003;
shapes = (
{
closed = 1;
nodes = (
(373,473,l),
(500,660,l),
(420,660,l),
(318,509,l)
);
},
{
closed = 1;
nodes = (
(28,660,l),
(500,660,l),
(530,800,l),
(58,800,l)
);
},
{
closed = 1;
nodes = (
(480,0,l),
(540,0,l),
(540,205,l),
(455,190,l),
(380,140,l)
);
},
{
closed = 1;
nodes = (
(411,440,l),
(411,496,o),
(367,540,o),
(311,540,cs),
(255,540,o),
(211,496,o),
(211,440,cs),
(211,384,o),
(255,340,o),
(311,340,cs),
(367,340,o),
(411,384,o),
(411,440,c),
(341,440,l),
(341,423,o),
(328,410,o),
(311,410,cs),
(294,410,o),
(281,423,o),
(281,440,cs),
(281,457,o),
(294,470,o),
(311,470,cs),
(328,470,o),
(341,457,o),
(341,440,c)
);
},
{
closed = 1;
nodes = (
(248,404,l),
(110,200,ls),
(62,129,o),
(33,68,o),
(10,0,c),
(480,0,l),
(510,140,l),
(217,140,l),
(188,140,o),
(164,146,o),
(147,171,c),
(134,120,l),
(301,367,l)
);
}
);
width = 560;
},
{
anchors = (
{
name = bottom;
pos = (280,0);
},
{
name = center;
pos = (280,400);
},
{
name = top;
pos = (280,800);
}
);
layerId = m005;
shapes = (
{
closed = 1;
nodes = (
(373,473,l),
(500,660,l),
(420,660,l),
(318,509,l)
);
},
{
closed = 1;
nodes = (
(28,660,l),
(500,660,l),
(530,800,l),
(58,800,l)
);
},
{
closed = 1;
nodes = (
(480,0,l),
(540,0,l),
(540,205,l),
(455,190,l),
(380,140,l)
);
},
{
closed = 1;
nodes = (
(411,440,l),
(411,496,o),
(367,540,o),
(311,540,cs),
(255,540,o),
(211,496,o),
(211,440,cs),
(211,384,o),
(255,340,o),
(311,340,cs),
(367,340,o),
(411,384,o),
(411,440,c),
(341,440,l),
(341,423,o),
(328,410,o),
(311,410,cs),
(294,410,o),
(281,423,o),
(281,440,cs),
(281,457,o),
(294,470,o),
(311,470,cs),
(328,470,o),
(341,457,o),
(341,440,c)
);
},
{
closed = 1;
nodes = (
(248,404,l),
(110,200,ls),
(62,129,o),
(33,68,o),
(10,0,c),
(480,0,l),
(510,140,l),
(217,140,l),
(188,140,o),
(164,146,o),
(147,171,c),
(134,120,l),
(301,367,l)
);
}
);
width = 560;
},
{
anchors = (
{
name = bottom;
pos = (280,0);
},
{
name = center;
pos = (280,400);
},
{
name = top;
pos = (280,800);
}
);
background = {
shapes = (
{
closed = 1;
nodes = (
(480,0,l),
(510,140,l),
(217,140,l),
(188,140,o),
(164,146,o),
(147,171,c),
(134,120,l),
(500,660,l),
(420,660,l),
(110,200,ls),
(62,129,o),
(33,68,o),
(10,0,c)
);
},
{
closed = 1;
nodes = (
(28,660,l),
(500,660,l),
(530,800,l),
(58,800,l)
);
},
{
closed = 1;
nodes = (
(480,0,l),
(540,0,l),
(540,205,l),
(455,190,l),
(380,140,l)
);
}
);
};
layerId = m004;
shapes = (
{
closed = 1;
nodes = (
(373,473,l),
(500,660,l),
(420,660,l),
(318,509,l)
);
},
{
closed = 1;
nodes = (
(28,660,l),
(500,660,l),
(530,800,l),
(58,800,l)
);
},
{
closed = 1;
nodes = (
(480,0,l),
(540,0,l),
(540,205,l),
(455,190,l),
(380,140,l)
);
},
{
closed = 1;
nodes = (
(411,440,l),
(411,496,o),
(367,540,o),
(311,540,cs),
(255,540,o),
(211,496,o),
(211,440,cs),
(211,384,o),
(255,340,o),
(311,340,cs),
(367,340,o),
(411,384,o),
(411,440,c),
(341,440,l),
(341,423,o),
(328,410,o),
(311,410,cs),
(294,410,o),
(281,423,o),
(281,440,cs),
(281,457,o),
(294,470,o),
(311,470,cs),
(328,470,o),
(341,457,o),
(341,440,c)
);
},
{
closed = 1;
nodes = (
(248,404,l),
(110,200,ls),
(62,129,o),
(33,68,o),
(10,0,c),
(480,0,l),
(510,140,l),
(217,140,l),
(188,140,o),
(164,146,o),
(147,171,c),
(134,120,l),
(301,367,l)
);
}
);
width = 560;
}
);
},
{
export = 0;
glyphname = E.002;
lastChange = "2022-12-16 11:29:04 +0000";
layers = (
{
layerId = m01;
shapes = (
{
closed = 1;
nodes = (
(245,0,l),
(230,85,l),
(185,160,l),
(185,640,l),
(230,715,l),
(245,800,l),
(35,800,l),
(50,715,l),
(95,640,l),
(95,160,l),
(50,85,l),
(35,0,l)
);
},
{
closed = 1;
nodes = (
(185,640,l),
(485,640,l),
(485,800,l),
(185,800,l)
);
},
{
closed = 1;
nodes = (
(185,0,l),
(525,0,l),
(525,160,l),
(185,160,l)
);
},
{
closed = 1;
nodes = (
(135,380,l),
(399,380,l),
(429,460,l),
(165,460,l)
);
},
{
closed = 1;
nodes = (
(435,160,l),
(390,85,l),
(375,0,l),
(585,0,l),
(570,85,l),
(525,160,l)
);
},
{
closed = 1;
nodes = (
(530,715,l),
(545,800,l),
(335,800,l),
(350,715,l),
(395,640,l),
(485,640,l)
);
}
);
width = 610;
},
{
layerId = m003;
shapes = (
{
closed = 1;
nodes = (
(245,0,l),
(230,85,l),
(185,160,l),
(185,640,l),
(230,715,l),
(245,800,l),
(35,800,l),
(50,715,l),
(95,640,l),
(95,160,l),
(50,85,l),
(35,0,l)
);
},
{
closed = 1;
nodes = (
(185,640,l),
(485,640,l),
(485,800,l),
(185,800,l)
);
},
{
closed = 1;
nodes = (
(185,0,l),
(525,0,l),
(525,160,l),
(185,160,l)
);
},
{
closed = 1;
nodes = (
(135,380,l),
(399,380,l),
(429,460,l),
(165,460,l)
);
},
{
closed = 1;
nodes = (
(435,160,l),
(390,85,l),
(375,0,l),
(585,0,l),
(570,85,l),
(525,160,l)
);
},
{
closed = 1;
nodes = (
(530,715,l),
(545,800,l),
(335,800,l),
(350,715,l),
(395,640,l),
(485,640,l)
);
}
);
width = 610;
},
{
layerId = m005;
shapes = (
{
closed = 1;
nodes = (
(245,0,l),
(230,85,l),
(185,160,l),
(185,640,l),
(230,715,l),
(245,800,l),
(35,800,l),
(50,715,l),
(95,640,l),
(95,160,l),
(50,85,l),
(35,0,l)
);
},
{
closed = 1;
nodes = (
(185,640,l),
(485,640,l),
(485,800,l),
(185,800,l)
);
},
{
closed = 1;
nodes = (
(185,0,l),
(525,0,l),
(525,160,l),
(185,160,l)
);
},
{
closed = 1;
nodes = (
(135,380,l),
(399,380,l),
(429,460,l),
(165,460,l)
);
},
{
closed = 1;
nodes = (
(435,160,l),
(390,85,l),
(375,0,l),
(585,0,l),
(570,85,l),
(525,160,l)
);
},
{
closed = 1;
nodes = (
(530,715,l),
(545,800,l),
(335,800,l),
(350,715,l),
(395,640,l),
(485,640,l)
);
}
);
width = 610;
},
{
layerId = m004;
shapes = (
{
closed = 1;
nodes = (
(245,0,l),
(230,85,l),
(185,160,l),
(185,640,l),
(230,715,l),
(245,800,l),
(35,800,l),
(50,715,l),
(95,640,l),
(95,160,l),
(50,85,l),
(35,0,l)
);
},
{
closed = 1;
nodes = (
(185,640,l),
(485,640,l),
(485,800,l),
(185,800,l)
);
},
{
closed = 1;
nodes = (
(185,0,l),
(525,0,l),
(525,160,l),
(185,160,l)
);
},
{
closed = 1;
nodes = (
(135,380,l),
(399,380,l),
(429,460,l),
(165,460,l)
);
},
{
closed = 1;
nodes = (
(435,160,l),
(390,85,l),
(375,0,l),
(585,0,l),
(570,85,l),
(525,160,l)
);
},
{
closed = 1;
nodes = (
(530,715,l),
(545,800,l),
(335,800,l),
(350,715,l),
(395,640,l),
(485,640,l)
);
}
);
width = 610;
}
);
},
{
export = 0;
glyphname = E.003;
lastChange = "2022-12-16 11:29:04 +0000";
layers = (
{
layerId = m01;
shapes = (
{
closed = 1;
nodes = (
(245,0,l),
(230,85,l),
(185,160,l),
(185,640,l),
(230,715,l),
(245,800,l),
(35,800,l),
(50,715,l),
(95,640,l),
(95,160,l),
(50,85,l),
(35,0,l)
);
},
{
closed = 1;
nodes = (
(185,710,l),
(485,710,l),
(485,800,l),
(185,800,l)
);
},
{
closed = 1;
nodes = (
(185,0,l),
(525,0,l),
(525,90,l),
(185,90,l)
);
},
{
closed = 1;
nodes = (
(150,380,l),
(414,380,l),
(414,460,l),
(150,460,l)
);
},
{
closed = 1;
nodes = (
(400,0,l),
(560,0,l),
(560,150,l),
(475,135,l),
(400,90,l)
);
},
{
closed = 1;
nodes = (
(435,665,l),
(520,650,l),
(520,800,l),
(360,800,l),
(360,710,l)
);
},
{
closed = 1;
nodes = (
(320,379,l),
(395,329,l),
(480,314,l),
(480,524,l),
(395,509,l),
(320,459,l)
);
}
);
width = 585;
},
{
layerId = m003;
shapes = (
{
closed = 1;
nodes = (
(245,0,l),
(230,85,l),
(185,160,l),
(185,640,l),
(230,715,l),
(245,800,l),
(35,800,l),
(50,715,l),
(95,640,l),
(95,160,l),
(50,85,l),
(35,0,l)
);
},
{
closed = 1;
nodes = (
(185,710,l),
(485,710,l),
(485,800,l),
(185,800,l)
);
},
{
closed = 1;
nodes = (
(185,0,l),
(525,0,l),
(525,90,l),
(185,90,l)
);
},
{
closed = 1;
nodes = (
(150,380,l),
(414,380,l),
(414,460,l),
(150,460,l)
);
},
{
closed = 1;
nodes = (
(400,0,l),
(560,0,l),
(560,150,l),
(475,135,l),
(400,90,l)
);
},
{
closed = 1;
nodes = (
(435,665,l),
(520,650,l),
(520,800,l),
(360,800,l),
(360,710,l)
);
},
{
closed = 1;
nodes = (
(320,379,l),
(395,329,l),
(480,314,l),
(480,524,l),
(395,509,l),
(320,459,l)
);
}
);
width = 585;
},
{
layerId = m005;
shapes = (
{
closed = 1;
nodes = (
(245,0,l),
(230,85,l),
(185,160,l),
(185,640,l),
(230,715,l),
(245,800,l),
(35,800,l),
(50,715,l),
(95,640,l),
(95,160,l),
(50,85,l),
(35,0,l)
);
},
{
closed = 1;
nodes = (
(185,710,l),
(485,710,l),
(485,800,l),
(185,800,l)
);
},
{
closed = 1;
nodes = (
(185,0,l),
(525,0,l),
(525,90,l),
(185,90,l)
);
},
{
closed = 1;
nodes = (
(150,380,l),
(414,380,l),
(414,460,l),
(150,460,l)
);
},
{
closed = 1;
nodes = (
(400,0,l),
(560,0,l),
(560,150,l),
(475,135,l),
(400,90,l)
);
},
{
closed = 1;
nodes = (
(435,665,l),
(520,650,l),
(520,800,l),
(360,800,l),
(360,710,l)
);
},
{
closed = 1;
nodes = (
(320,379,l),
(395,329,l),
(480,314,l),
(480,524,l),
(395,509,l),
(320,459,l)
);
}
);
width = 585;
},
{
layerId = m004;
shapes = (
{
closed = 1;
nodes = (
(245,0,l),
(230,85,l),
(185,160,l),
(185,640,l),
(230,715,l),
(245,800,l),
(35,800,l),
(50,715,l),
(95,640,l),
(95,160,l),
(50,85,l),
(35,0,l)
);
},
{
closed = 1;
nodes = (
(185,710,l),
(485,710,l),
(485,800,l),
(185,800,l)
);
},
{
closed = 1;
nodes = (
(185,0,l),
(525,0,l),
(525,90,l),
(185,90,l)
);
},
{
closed = 1;
nodes = (
(150,380,l),
(414,380,l),
(414,460,l),
(150,460,l)
);
},
{
closed = 1;
nodes = (
(400,0,l),
(560,0,l),
(560,150,l),
(475,135,l),
(400,90,l)
);
},
{
closed = 1;
nodes = (
(435,665,l),
(520,650,l),
(520,800,l),
(360,800,l),
(360,710,l)
);
},
{
closed = 1;
nodes = (
(320,379,l),
(395,329,l),
(480,314,l),
(480,524,l),
(395,509,l),
(320,459,l)
);
}
);
width = 585;
}
);
},
{
export = 0;
glyphname = G.001;
lastChange = "2022-12-16 12:15:08 +0000";
layers = (
{
layerId = m01;
shapes = (
{
closed = 1;
nodes = (
(575,112,l),
(563,138,l),
(215,138,o),
(124,212,o),
(124,386,cs),
(124,481,o),
(154,582,o),
(221,649,cs),
(234,662,l),
(356,662,o),
(441,649,o),
(526,629,c),
(566,777,l),
(513,796,o),
(429,808,o),
(304,808,c),
(189,693,ls),
(96,600,o),
(38,436,o),
(38,278,cs),
(38,78,o),
(134,-8,o),
(493,-8,c)
);
},
{
closed = 1;
nodes = (
(575,112,l),
(575,240,l),
(610,315,l),
(625,400,l),
(415,400,l),
(430,315,l),
(485,240,l),
(485,112,l)
);
}
);
width = 635;
},
{
layerId = m003;
width = 648;
},
{
layerId = m005;
width = 648;
},
{
layerId = m004;
shapes = (
{
closed = 1;
nodes = (
(547,112,l),
(535,138,l),
(187,138,o),
(96,212,o),
(96,386,cs),
(96,481,o),
(126,582,o),
(193,649,cs),
(206,662,l),
(328,662,o),
(413,649,o),
(498,629,c),
(538,777,l),
(485,796,o),
(401,808,o),
(276,808,c),
(161,693,ls),
(68,600,o),
(10,436,o),
(10,278,cs),
(10,78,o),
(106,-8,o),
(465,-8,c)
);
},
{
closed = 1;
nodes = (
(547,112,l),
(547,240,l),
(582,315,l),
(597,400,l),
(387,400,l),
(402,315,l),
(457,240,l),
(457,112,l)
);
}
);
width = 607;
}
);
metricLeft = "=O";
metricRight = "=10";
},
{
export = 0;
glyphname = J.001;
lastChange = "2022-12-16 11:29:04 +0000";
layers = (
{
layerId = m01;
shapes = (
{
closed = 1;
nodes = (
(455,0,l),
(440,85,l),
(395,160,l),
(395,640,l),
(440,715,l),
(455,800,l),
(245,800,l),
(260,715,l),
(305,640,l),
(305,160,l),
(260,85,l),
(245,0,l)
);
},
{
closed = 1;
nodes = (
(159,707,l),
(140,688,ls),
(53,601,o),
(-32,436,o),
(-32,288,cs),
(-32,130,o),
(65,-8,o),
(360,-8,c),
(480,112,ls),
(567,199,o),
(652,364,o),
(652,512,cs),
(652,571,o),
(638,628,o),
(606,675,c),
(515,552,l),
(551,509,o),
(566,457,o),
(566,404,cs),
(566,313,o),
(516,224,o),
(460,168,cs),
(430,138,l),
(146,138,o),
(54,265,o),
(54,396,cs),
(54,487,o),
(104,576,o),
(160,632,cs),
(178,650,l)
);
}
);
width = 600;
},
{
layerId = m003;
width = 600;
},
{
layerId = m005;
width = 600;
},
{
layerId = m004;
shapes = (
{
closed = 1;
nodes = (
(455,0,l),
(440,85,l),
(395,160,l),
(395,640,l),
(440,715,l),
(455,800,l),
(245,800,l),
(260,715,l),
(305,640,l),
(305,160,l),
(260,85,l),
(245,0,l)
);
},
{
closed = 1;
nodes = (
(159,707,l),
(140,688,ls),
(53,601,o),
(-32,436,o),
(-32,288,cs),
(-32,130,o),
(65,-8,o),
(360,-8,c),
(480,112,ls),
(567,199,o),
(652,364,o),
(652,512,cs),
(652,571,o),
(638,628,o),
(606,675,c),
(515,552,l),
(551,509,o),
(566,457,o),
(566,404,cs),
(566,313,o),
(516,224,o),
(460,168,cs),
(430,138,l),
(146,138,o),
(54,265,o),
(54,396,cs),
(54,487,o),
(104,576,o),
(160,632,cs),
(178,650,l)
);
}
);
width = 600;
}
);
},
{
export = 0;
glyphname = J.003;
lastChange = "2022-12-16 12:17:19 +0000";
layers = (
{
anchors = (
{
name = bottom;
pos = (327,0);
},
{
name = top;
pos = (503,800);
}
);
layerId = m01;
shapes = (
{
closed = 1;
nodes = (
(128,433,c),
(125,436,l),
(38,340,l),
(38,288,ls),
(38,130,o),
(133,-8,o),
(428,-8,c),
(548,112,l),
(548,640,l),
(593,715,l),
(608,800,l),
(398,800,l),
(413,715,l),
(458,640,l),
(458,139,l),
(206,150,o),
(128,271,o)
);
}
);
width = 653;
},
{
anchors = (
{
name = bottom;
pos = (327,0);
},
{
name = top;
pos = (503,800);
}
);
layerId = m003;
shapes = (
{
closed = 1;
nodes = (
(128,433,c),
(125,436,l),
(38,340,l),
(38,288,ls),
(38,130,o),
(133,-8,o),
(428,-8,c),
(548,112,l),
(548,640,l),
(593,715,l),
(608,800,l),
(398,800,l),
(413,715,l),
(458,640,l),
(458,139,l),
(206,150,o),
(128,271,o)
);
}
);
width = 653;
},
{
anchors = (
{
name = bottom;
pos = (327,0);
},
{
name = top;
pos = (503,800);
}
);
layerId = m005;
shapes = (
{
closed = 1;
nodes = (
(128,433,c),
(125,436,l),
(38,340,l),
(38,288,ls),
(38,130,o),
(133,-8,o),
(428,-8,c),
(548,112,l),
(548,640,l),
(593,715,l),
(608,800,l),
(398,800,l),
(413,715,l),
(458,640,l),
(458,139,l),
(206,150,o),
(128,271,o)
);
}
);
width = 653;
},
{
anchors = (
{
name = bottom;
pos = (299,0);
},
{
name = top;
pos = (475,800);
}
);
layerId = m004;
shapes = (
{
closed = 1;
nodes = (
(100,433,c),
(97,436,l),
(10,340,l),
(10,288,ls),
(10,130,o),
(105,-8,o),
(400,-8,c),
(520,112,l),
(520,640,l),
(565,715,l),
(580,800,l),
(370,800,l),
(385,715,l),
(430,640,l),
(430,139,l),
(178,150,o),
(100,271,o)
);
}
);
width = 600;
}
);
metricLeft = "=O";
metricRight = "=U";
},
{
export = 0;
glyphname = M.001;
lastChange = "2023-10-03 11:37:43 +0000";
layers = (
{
anchors = (
{
name = bottom;
pos = (420,0);
},
{
name = top;
pos = (420,800);
}
);
guides = (
{
angle = -49.9271;
pos = (226,599);
},
{
angle = 50.0039;
pos = (717,756);
},
{
angle = 231.1466;
pos = (675,800);
}
);
layerId = m01;
shapes = (
{
closed = 1;
nodes = (
(376,327,l),
(746,768,l),
(675,800,l),
(412,474,l),
(477,462,l),
(203,800,l),
(165,800,l),
(132,698,l),
(429,344,l)
);
},
{
closed = 1;
nodes = (
(795,0,l),
(780,85,l),
(735,160,l),
(735,640,l),
(780,715,l),
(795,800,l),
(685,800,l),
(675,800,l),
(645,700,l),
(645,160,l),
(600,85,l),
(585,0,l)
);
},
{
closed = 1;
nodes = (
(231,0,l),
(216,85,l),
(171,160,l),
(171,700,l),
(165,800,l),
(155,800,l),
(45,800,l),
(60,715,l),
(105,640,l),
(105,160,l),
(60,85,l),
(45,0,l)
);
}
);
width = 840;
},
{
anchors = (
{
name = bottom;
pos = (420,0);
},
{
name = top;
pos = (420,800);
}
);
guides = (
{
angle = -49.9271;
pos = (226,599);
}
);
layerId = m003;
shapes = (
{
closed = 1;
nodes = (
(440,402,l),
(737,756,l),
(675,800,l),
(420,485,l),
(165,800,l),
(103,756,l),
(400,402,l)
);
},
{
ref = _Mleg;
}
);
width = 840;
},
{
anchors = (
{
name = bottom;
pos = (420,0);
},
{
name = top;
pos = (420,800);
}
);
guides = (
{
angle = -49.9271;
pos = (226,599);
}
);
layerId = m005;
shapes = (
{
closed = 1;
nodes = (
(440,402,l),
(737,756,l),
(675,800,l),
(420,485,l),
(165,800,l),
(103,756,l),
(400,402,l)
);
},
{
ref = _Mleg;
}
);
width = 840;
},
{
anchors = (
{
name = bottom;
pos = (448,0);
},
{
name = top;
pos = (448,800);
}
);
guides = (
{
angle = -49.9271;
pos = (226,599);
}
);
layerId = m004;
shapes = (
{
closed = 1;
nodes = (
(467,302,l),
(764,656,l),
(702,800,l),
(447,485,l),
(192,800,l),
(130,656,l),
(427,302,l)
);
},
{
pos = (27,0);
ref = _Mleg;
}
);
width = 895;
}
);
metricLeft = "=H";
metricRight = "=H";
},
{
export = 0;
glyphname = N.001;
lastChange = "2022-12-16 12:17:19 +0000";
layers = (
{
anchors = (
{
name = bottom;
pos = (420,0);
},
{
name = top;
pos = (420,800);
}
);
background = {
shapes = (
{
closed = 1;
nodes = (
(550,112,ls),
(637,199,o),
(722,364,o),
(722,512,cs),
(722,670,o),
(625,808,o),
(330,808,c),
(210,688,ls),
(123,601,o),
(38,436,o),
(38,288,cs),
(38,130,o),
(135,-8,o),
(430,-8,c)
);
},
{
closed = 1;
nodes = (
(216,138,o),
(124,265,o),
(124,396,cs),
(124,487,o),
(174,576,o),
(230,632,cs),
(260,662,l),
(544,662,o),
(636,535,o),
(636,404,cs),
(636,313,o),
(586,224,o),
(530,168,cs),
(500,138,l)
);
}
);
};
guides = (
{
angle = -50.0039;
pos = (252,579);
}
);
layerId = m01;
shapes = (
{
closed = 1;
nodes = (
(615,194,l),
(595,277,l),
(165,800,l),
(103,756,l),
(575,194,l)
);
},
{
closed = 1;
nodes = (
(255,0,l),
(240,85,l),
(195,160,l),
(195,700,l),
(165,800,l),
(155,800,l),
(45,800,l),
(60,715,l),
(105,640,l),
(105,160,l),
(60,85,l),
(45,0,l)
);
},
{
closed = 1;
nodes = (
(725,0,l),
(710,85,l),
(665,160,l),
(665,640,l),
(710,715,l),
(725,800,l),
(615,800,l),
(515,800,l),
(530,715,l),
(575,640,l),
(575,160,l),
(530,85,l),
(515,0,l)
);
}
);
width = 770;
},
{
anchors = (
{
name = bottom;
pos = (420,0);
},
{
name = top;
pos = (420,800);
}
);
background = {
shapes = (
{
closed = 1;
nodes = (
(550,112,ls),
(637,199,o),
(722,364,o),
(722,512,cs),
(722,670,o),
(625,808,o),
(330,808,c),
(210,688,ls),
(123,601,o),
(38,436,o),
(38,288,cs),
(38,130,o),
(135,-8,o),
(430,-8,c)
);
},
{
closed = 1;
nodes = (
(216,138,o),
(124,265,o),
(124,396,cs),
(124,487,o),
(174,576,o),
(230,632,cs),
(260,662,l),
(544,662,o),
(636,535,o),
(636,404,cs),
(636,313,o),
(586,224,o),
(530,168,cs),
(500,138,l)
);
}
);
};
guides = (
{
angle = -50.0039;
pos = (252,579);
}
);
layerId = m003;
shapes = (
{
closed = 1;
nodes = (
(615,194,l),
(595,277,l),
(165,800,l),
(103,756,l),
(575,194,l)
);
},
{
closed = 1;
nodes = (
(255,0,l),
(240,85,l),
(195,160,l),
(195,700,l),
(165,800,l),
(155,800,l),
(45,800,l),
(60,715,l),
(105,640,l),
(105,160,l),
(60,85,l),
(45,0,l)
);
},
{
closed = 1;
nodes = (
(725,0,l),
(710,85,l),
(665,160,l),
(665,640,l),
(710,715,l),
(725,800,l),
(615,800,l),
(515,800,l),
(530,715,l),
(575,640,l),
(575,160,l),
(530,85,l),
(515,0,l)
);
}
);
width = 770;
},
{
anchors = (
{
name = bottom;
pos = (420,0);
},
{
name = top;
pos = (420,800);
}
);
background = {
shapes = (
{
closed = 1;
nodes = (
(550,112,ls),
(637,199,o),
(722,364,o),
(722,512,cs),
(722,670,o),
(625,808,o),
(330,808,c),
(210,688,ls),
(123,601,o),
(38,436,o),
(38,288,cs),
(38,130,o),
(135,-8,o),
(430,-8,c)
);
},
{
closed = 1;
nodes = (
(216,138,o),
(124,265,o),
(124,396,cs),
(124,487,o),
(174,576,o),
(230,632,cs),
(260,662,l),
(544,662,o),
(636,535,o),
(636,404,cs),
(636,313,o),
(586,224,o),
(530,168,cs),
(500,138,l)
);
}
);
};
guides = (
{
angle = -50.0039;
pos = (252,579);
}
);
layerId = m005;
shapes = (
{
closed = 1;
nodes = (
(615,194,l),
(595,277,l),
(165,800,l),
(103,756,l),
(575,194,l)
);
},
{
closed = 1;
nodes = (
(255,0,l),
(240,85,l),
(195,160,l),
(195,700,l),
(165,800,l),
(155,800,l),
(45,800,l),
(60,715,l),
(105,640,l),
(105,160,l),
(60,85,l),
(45,0,l)
);
},
{
closed = 1;
nodes = (
(725,0,l),
(710,85,l),
(665,160,l),
(665,640,l),
(710,715,l),
(725,800,l),
(615,800,l),
(515,800,l),
(530,715,l),
(575,640,l),
(575,160,l),
(530,85,l),
(515,0,l)
);
}
);
width = 770;
},
{
anchors = (
{
name = bottom;
pos = (395,0);
},
{
name = top;
pos = (395,800);
}
);
background = {
shapes = (
{
closed = 1;
nodes = (
(525,112,ls),
(612,199,o),
(697,364,o),
(697,512,cs),
(697,670,o),
(600,808,o),
(305,808,c),
(185,688,ls),
(98,601,o),
(13,436,o),
(13,288,cs),
(13,130,o),
(110,-8,o),
(405,-8,c)
);
},
{
closed = 1;
nodes = (
(191,138,o),
(99,265,o),
(99,396,cs),
(99,487,o),
(149,576,o),
(205,632,cs),
(235,662,l),
(519,662,o),
(611,535,o),
(611,404,cs),
(611,313,o),
(561,224,o),
(505,168,cs),
(475,138,l)
);
}
);
};
guides = (
{
angle = -50.0039;
pos = (227,579);
}
);
layerId = m004;
shapes = (
{
closed = 1;
nodes = (
(590,194,l),
(570,277,l),
(140,800,l),
(78,756,l),
(550,194,l)
);
},
{
closed = 1;
nodes = (
(230,0,l),
(215,85,l),
(170,160,l),
(170,700,l),
(140,800,l),
(130,800,l),
(20,800,l),
(35,715,l),
(80,640,l),
(80,160,l),
(35,85,l),
(20,0,l)
);
},
{
closed = 1;
nodes = (
(700,0,l),
(685,85,l),
(640,160,l),
(640,640,l),
(685,715,l),
(700,800,l),
(590,800,l),
(490,800,l),
(505,715,l),
(550,640,l),
(550,160,l),
(505,85,l),
(490,0,l)
);
}
);
width = 720;
}
);
metricLeft = "=M";
metricRight = "=M";
},
{
export = 0;
glyphname = N.002;
lastChange = "2022-12-16 12:17:19 +0000";
layers = (
{
anchors = (
{
name = bottom;
pos = (420,0);
},
{
name = top;
pos = (420,800);
}
);
background = {
shapes = (
{
closed = 1;
nodes = (
(550,112,ls),
(637,199,o),
(722,364,o),
(722,512,cs),
(722,670,o),
(625,808,o),
(330,808,c),
(210,688,ls),
(123,601,o),
(38,436,o),
(38,288,cs),
(38,130,o),
(135,-8,o),
(430,-8,c)
);
},
{
closed = 1;
nodes = (
(216,138,o),
(124,265,o),
(124,396,cs),
(124,487,o),
(174,576,o),
(230,632,cs),
(260,662,l),
(544,662,o),
(636,535,o),
(636,404,cs),
(636,313,o),
(586,224,o),
(530,168,cs),
(500,138,l)
);
}
);
};
guides = (
{
angle = -50.0039;
pos = (252,579);
}
);
layerId = m01;
shapes = (
{
closed = 1;
nodes = (
(155,800,l),
(45,800,l),
(60,715,l),
(105,640,l),
(105,160,l),
(60,85,l),
(45,0,l),
(255,0,l),
(240,85,l),
(195,160,l),
(195,640,l),
(240,715,l),
(255,800,l)
);
},
{
closed = 1;
nodes = (
(725,0,l),
(710,85,l),
(665,160,l),
(665,640,l),
(710,715,l),
(725,800,l),
(615,800,l),
(515,800,l),
(530,715,l),
(575,640,l),
(575,160,l),
(530,85,l),
(515,0,l)
);
},
{
closed = 1;
nodes = (
(126,574,l),
(575,190,l),
(615,190,l),
(595,273,l),
(165,640,l),
(126,640,l)
);
}
);
width = 770;
},
{
anchors = (
{
name = bottom;
pos = (420,0);
},
{
name = top;
pos = (420,800);
}
);
background = {
shapes = (
{
closed = 1;
nodes = (
(550,112,ls),
(637,199,o),
(722,364,o),
(722,512,cs),
(722,670,o),
(625,808,o),
(330,808,c),
(210,688,ls),
(123,601,o),
(38,436,o),
(38,288,cs),
(38,130,o),
(135,-8,o),
(430,-8,c)
);
},
{
closed = 1;
nodes = (
(216,138,o),
(124,265,o),
(124,396,cs),
(124,487,o),
(174,576,o),
(230,632,cs),
(260,662,l),
(544,662,o),
(636,535,o),
(636,404,cs),
(636,313,o),
(586,224,o),
(530,168,cs),
(500,138,l)
);
}
);
};
guides = (
{
angle = -50.0039;
pos = (252,579);
}
);
layerId = m003;
shapes = (
{
closed = 1;
nodes = (
(155,800,l),
(45,800,l),
(60,715,l),
(105,640,l),
(105,160,l),
(60,85,l),
(45,0,l),
(255,0,l),
(240,85,l),
(195,160,l),
(195,640,l),
(240,715,l),
(255,800,l)
);
},
{
closed = 1;
nodes = (
(725,0,l),
(710,85,l),
(665,160,l),
(665,640,l),
(710,715,l),
(725,800,l),
(615,800,l),
(515,800,l),
(530,715,l),
(575,640,l),
(575,160,l),
(530,85,l),
(515,0,l)
);
},
{
closed = 1;
nodes = (
(126,574,l),
(575,190,l),
(615,190,l),
(595,273,l),
(165,640,l),
(126,640,l)
);
}
);
width = 770;
},
{
anchors = (
{
name = bottom;
pos = (420,0);
},
{
name = top;
pos = (420,800);
}
);
background = {
shapes = (
{
closed = 1;
nodes = (
(550,112,ls),
(637,199,o),
(722,364,o),
(722,512,cs),
(722,670,o),
(625,808,o),
(330,808,c),
(210,688,ls),
(123,601,o),
(38,436,o),
(38,288,cs),
(38,130,o),
(135,-8,o),
(430,-8,c)
);
},
{
closed = 1;
nodes = (
(216,138,o),
(124,265,o),
(124,396,cs),
(124,487,o),
(174,576,o),
(230,632,cs),
(260,662,l),
(544,662,o),
(636,535,o),
(636,404,cs),
(636,313,o),
(586,224,o),
(530,168,cs),
(500,138,l)
);
}
);
};
guides = (
{
angle = -50.0039;
pos = (252,579);
}
);
layerId = m005;
shapes = (
{
closed = 1;
nodes = (
(155,800,l),
(45,800,l),
(60,715,l),
(105,640,l),
(105,160,l),
(60,85,l),
(45,0,l),
(255,0,l),
(240,85,l),
(195,160,l),
(195,640,l),
(240,715,l),
(255,800,l)
);
},
{
closed = 1;
nodes = (
(725,0,l),
(710,85,l),
(665,160,l),
(665,640,l),
(710,715,l),
(725,800,l),
(615,800,l),
(515,800,l),
(530,715,l),
(575,640,l),
(575,160,l),
(530,85,l),
(515,0,l)
);
},
{
closed = 1;
nodes = (
(126,574,l),
(575,190,l),
(615,190,l),
(595,273,l),
(165,640,l),
(126,640,l)
);
}
);
width = 770;
},
{
anchors = (
{
name = bottom;
pos = (395,0);
},
{
name = top;
pos = (395,800);
}
);
background = {
shapes = (
{
closed = 1;
nodes = (
(525,112,ls),
(612,199,o),
(697,364,o),
(697,512,cs),
(697,670,o),
(600,808,o),
(305,808,c),
(185,688,ls),
(98,601,o),
(13,436,o),
(13,288,cs),
(13,130,o),
(110,-8,o),
(405,-8,c)
);
},
{
closed = 1;
nodes = (
(191,138,o),
(99,265,o),
(99,396,cs),
(99,487,o),
(149,576,o),
(205,632,cs),
(235,662,l),
(519,662,o),
(611,535,o),
(611,404,cs),
(611,313,o),
(561,224,o),
(505,168,cs),
(475,138,l)
);
}
);
};
guides = (
{
angle = -50.0039;
pos = (227,579);
}
);
layerId = m004;
shapes = (
{
closed = 1;
nodes = (
(130,800,l),
(20,800,l),
(35,715,l),
(80,640,l),
(80,160,l),
(35,85,l),
(20,0,l),
(230,0,l),
(215,85,l),
(170,160,l),
(170,640,l),
(215,715,l),
(230,800,l)
);
},
{
closed = 1;
nodes = (
(700,0,l),
(685,85,l),
(640,160,l),
(640,640,l),
(685,715,l),
(700,800,l),
(590,800,l),
(490,800,l),
(505,715,l),
(550,640,l),
(550,160,l),
(505,85,l),
(490,0,l)
);
},
{
closed = 1;
nodes = (
(101,574,l),
(550,190,l),
(590,190,l),
(570,273,l),
(140,640,l),
(101,640,l)
);
}
);
width = 720;
}
);
metricLeft = "=M";
metricRight = "=M";
},
